<svg id="Layer_1" data-name="Layer 1" xmlns="http://www.w3.org/2000/svg" width="169.07mm" height="144.75mm" viewBox="0 0 479.27 410.31">
  <defs>
    <style>
      .cls-1 {
        fill: #99502f;
      }

      .cls-2 {
        fill: #f9e6e5;
      }

      .cls-3 {
        fill: #540d04;
      }

      .cls-4 {
        fill: #68371f;
      }

      .cls-5 {
        fill: #a1140d;
      }

      .cls-6 {
        fill: #f3a400;
      }

      .cls-7 {
        fill: #b16840;
      }

      .cls-8 {
        fill: #aa1707;
      }

      .cls-9 {
        fill: #ef8900;
      }

      .cls-10 {
        fill: #ba2117;
      }

      .cls-11 {
        fill: #3a0804;
      }

      .cls-12 {
        fill: #e2d7d7;
      }

      .cls-13 {
        fill: #d82f21;
      }

      .cls-14 {
        fill: #12087a;
      }

      .cls-15 {
        fill: #a85e3a;
      }

      .cls-16 {
        fill: #744224;
      }

      .cls-17 {
        fill: #9e7456;
      }

      .cls-18, .cls-19 {
        fill: none;
        stroke: #68371f;
        stroke-miterlimit: 10;
      }

      .cls-18 {
        stroke-width: 3px;
      }

      .cls-19 {
        stroke-width: 2px;
      }
    </style>
  </defs>
  <title>big_boat</title>
  <path class="cls-1" d="M429.47,202.36l-.54.48Z"/>
  <path class="cls-2" d="M371.39,205.3c-4.27-1.41-7.8-4.17-11.6-6.42-10.23-6.06-20.15-12.61-29.81-19.52-9.87-7.05-19.51-14.42-28.81-22.22C292.68,150,284.46,142.6,276.38,135c-5.7-5.36-11.2-10.92-16.72-16.45-3.89-3.89-7.47-8.07-11.21-12.11a23.8,23.8,0,0,0-1.84-1.63v-1a3.9,3.9,0,0,0,3.64-3.12c.49-1.57-1-2.42-2.17-3.12-2.77-1.6-5.6-3-9-2.64l-.93-.06-.51-1a214.22,214.22,0,0,0,34.17-.5l1,.5c2.67,3.89,6.15,7.07,9.35,10.46q9.75,10.32,20.47,19.65T324.84,142c8.39,6.3,17.2,12,26.07,17.61,2.16,1.36,4.12,3.36,6.9,3.61a244.3,244.3,0,0,0,13.43,41.4A3.41,3.41,0,0,1,371.39,205.3Z"/>
  <path class="cls-3" d="M357.81,163.18c-2.78-.25-4.74-2.25-6.9-3.61C342,154,333.23,148.26,324.84,142q-11.43-8.57-22.21-17.93t-20.47-19.65c-3.2-3.39-6.68-6.57-9.35-10.46a74,74,0,0,1,11.58-1.43c5.06-.42,10.07-1.12,15.09-1.79,5.82-.78,11.61-1.81,17.41-2.73l.47,0c6.7,7.72,14,14.88,21.34,22,4.85,4.67,9.61,9.45,14.87,13.68.41,7.28.45,14.58,1.36,21.84C355.68,151.41,356.84,157.28,357.81,163.18Z"/>
  <path class="cls-3" d="M362.31,55.82l-4.56,22.26c-5.16,1.47-10.33,2.91-15.59,4h-.51c-5.32-5.72-10.43-11.61-15.42-17.61-4.3-5.18-8.17-10.69-12-16.2A156.44,156.44,0,0,1,304.88,33c-2.67-5-5.69-9.83-7.29-15.34,7.72,0,15.44.07,23.16.13,5.16,0,10.33.14,15.5.21.68,1.29,1.34,2.59,2,3.86a217.07,217.07,0,0,0,18,27.41C358.07,51.59,359.54,54.33,362.31,55.82Z"/>
  <path class="cls-4" d="M343.08,8.9,353,8.68,370.85,8c-.28,3.15-3.45,2.9-5.32,4.22a2.82,2.82,0,0,0,3,1c3-.49,5,.94,6.75,3.09a14.08,14.08,0,0,1-1.67.33c-8.93.62-17.86,1.08-26.81,1.12-3.52,0-7.05.15-10.57.23-5.17-.07-10.34-.16-15.5-.21-7.72-.06-15.44-.09-23.16-.13-10.9-.53-21.79-1-32.7-1-4.57-.65-9.19-.39-13.78-.61-9.1-.43-18.19-.83-27.29-1.25-5.33-.29-10.66-.6-16-.86q-13.05-.63-26.09-1.21c-10.88-.91-21.79-1.48-32.69-2-2-.17-4.08-.37-6.13-.52l-20.6-1.51c1.34-1.58,3.34-.59,5-1.16-.7-.86-1.61-.58-2.34-.84-2.57-.89-5.49-1.33-6.64-4.39h0l.46-.55C120,.21,121.68-.08,123.41,0c4.58.26,9.16.64,13.74,1-3.8,1-7.74-.2-11.56.91,10.77,2,21.71,2.49,32.55,3.94-9.18.84-18.44-.2-28.24,1.36,5.52,1.74,10.57,1.11,15.49,1.41,8.35.52,16.74.72,25.11,1.07,8.78.37,17.57.66,26.35,1,9.11.33,18.23.71,27.34,1q16.63.51,33.28,1c11,.33,22,.49,33,1,8.46.41,16.94.1,25.42.42,12.58.47,25.2.27,37.79-.39,2.32-.13,4.63-.5,6.94-.76l0-.65a52.28,52.28,0,0,1-11.33-1c1.85-1,3.69.06,5.06-1.65H340.77C341.82,9.11,342.59,9.48,343.08,8.9Z"/>
  <path class="cls-2" d="M336.25,18c3.52-.08,7.05-.21,10.57-.23,8.95,0,17.88-.5,26.81-1.12a14.08,14.08,0,0,0,1.67-.33l.75.34a226.4,226.4,0,0,0-10.23,27.15c-1.19,4-2.34,8-3.51,12-2.77-1.49-4.24-4.23-6-6.58a217.07,217.07,0,0,1-18-27.41C337.59,20.56,336.93,19.26,336.25,18Z"/>
  <path class="cls-2" d="M341.65,82h.5c0,.85.57,1.33,1.1,1.84l12.13,11.49c-.92,9.4-1.27,18.83-1.81,28.26-5.26-4.23-10-9-14.87-13.68-7.35-7.07-14.64-14.23-21.34-22,3.59-1.37,7.47-1.44,11.14-2.48C332.86,84.29,337.42,83.77,341.65,82Z"/>
  <path class="cls-3" d="M355.38,95.37,343.25,83.88c-.53-.51-1.13-1-1.1-1.84,5.27-1.05,10.44-2.49,15.6-4Z"/>
  <path class="cls-4" d="M376.05,16.63l-.75-.34c-1.74-2.15-3.77-3.58-6.75-3.09a2.82,2.82,0,0,1-3-1c1.87-1.32,5-1.07,5.32-4.22,2.88-.26,5.74-.61,8.62-.74s4.85,1.2,5.31,3.13-.87,4.19-3.41,5.42A11.54,11.54,0,0,1,376.05,16.63Zm.16-2.32c-.22-.21-.35-.43-.51-.46a.71.71,0,0,0-.59.19c-.16.35.08.58.42.58A2.52,2.52,0,0,0,376.21,14.31Z"/>
  <path class="cls-3" d="M16.75,147.71c.31-8.42,2.21-16.55,4.56-24.59,3.79,4.94,7.62,9.84,11.81,14.43,1.11,1.21,2,3,4,2.91l3.49,4.95c1.18,1.94,2.31,3.92,3.57,5.82a280.76,280.76,0,0,0,26.35,34.32A302.56,302.56,0,0,0,94,209.06c1.43,1.26,3.25,2.23,4.07,4.13-3.68,0-7.35-.14-11-.34-6.63-.36-13.3,0-19.95-.16-1.78,0-1,.75-.77,1.48l-1.46,0c-.39-.57-1-.45-1.52-.38-1-.28-2.06.21-2.94-.52,1.14-1.24,2.84,0,4.78-1.24-1-.73-1.87-1.25-2.63-1.87-7.37-6-13.42-13.32-19.46-20.58a200.82,200.82,0,0,1-21.79-32.18C19.62,154.3,17,151.53,16.75,147.71Z"/>
  <path class="cls-2" d="M40.65,145.41l-3.49-4.95A20,20,0,0,0,35,136.07a236.09,236.09,0,0,1-11.22-21.88A152.25,152.25,0,0,1,28.4,98.8l.28-.53h-.06c3.33.26,6.68.24,10,.43,3.19.19,6.22,1.5,9.44,1.12l1,.54c.7,3.17,2.29,6,3.76,8.8A320,320,0,0,0,69.68,138.3q10.69,16.08,22.47,31.36a11.64,11.64,0,0,1-3.66-.3c-4.06-1.52-8.31-2.43-12.4-3.91a118.24,118.24,0,0,1-28.48-15.16C45.3,148.65,43.56,146.17,40.65,145.41Z"/>
  <path class="cls-4" d="M343.08,8.9c-.49.58-1.26.21-2.31.76h13.57c-1.37,1.71-3.21.65-5.06,1.65a52.28,52.28,0,0,0,11.33,1l0,.65c-2.31.26-4.62.63-6.94.76-12.59.66-25.21.86-37.79.39-8.48-.32-17,0-25.42-.42-11-.53-22-.69-33-1s-22.19-.65-33.28-1c-9.11-.28-18.23-.66-27.34-1-8.78-.32-17.57-.61-26.35-1-8.37-.35-16.76-.55-25.11-1.07-4.92-.3-10,.33-15.49-1.41,9.8-1.56,19.06-.52,28.24-1.36C147.3,4.39,136.36,3.9,125.59,1.9,129.41.79,133.35,2,137.15,1c4.68.27,9.36.56,14,.78,1.89.09,3.78,0,5.67,0l1.11.53c2.73,1,5.64.58,8.45.88,6,.65,12.13.6,18.17,1.2,2.54.25,5.08.24,7.61.43,10.06.75,20.1,1.9,30.2,1.9,8.15,0,16.28.88,24.44.55a14.34,14.34,0,0,1,1.7.21,92.84,92.84,0,0,0,15.73,0,2.07,2.07,0,0,1,1.61.28,11.42,11.42,0,0,0,6.87.11c8.05.27,16.09.58,24.14.79,4.94.13,9.88.11,14.82.13Q327.4,8.87,343.08,8.9ZM161.82,6.2c-.57-.22-1.24-.7-2,0Z"/>
  <path class="cls-2" d="M122.32,8.74l20.6,1.51c2.05.15,4.09.35,6.13.52a12.57,12.57,0,0,0,.7,1.83c3.69,6.37,7.46,12.69,11.08,19.1,1.71,3,4.22,5.65,5,9.17-2.06.07-3.45,1.41-4.89,2.61a15.81,15.81,0,0,1-9.64,3.85c-4.3.19-8.48-.72-12.69-1.38a4.38,4.38,0,0,0-.8-2.75c-5.07-8.72-10.54-17.21-15.39-26.07a29.75,29.75,0,0,0-4.07-6.38c.37-1.2,1.56-1.44,2.43-2.05Z"/>
  <path class="cls-2" d="M16.75,147.71c.27,3.82,2.87,6.59,4.58,9.71A200.82,200.82,0,0,0,43.12,189.6c6,7.26,12.09,14.55,19.46,20.58.76.62,1.6,1.14,2.63,1.87-1.94,1.22-3.64,0-4.78,1.24l-2-.11a1.38,1.38,0,0,0-2-.1l-2.41-.17c-.44-.77-1-.87-1.56-.18l-2-.1c-.64-.6-1.38-.38-2.11-.28l-2.78-.27a24.18,24.18,0,0,0-3.82-4.77,148.35,148.35,0,0,1-13-16.32c-3.16-4.58-6.22-9.24-9.32-13.86A79,79,0,0,1,16.75,147.71Z"/>
  <path class="cls-4" d="M28.94,96a22.22,22.22,0,0,1-3.17-.47c-2.55-.74-3.47-2.84-2.53-5.6A1.89,1.89,0,0,0,24,91.08c4.11,3.7,9.36,3.88,14.35,4.23,7.77.53,15.54,1.08,23.31,1.52l26.78,1.48c6.14.34,12.28.75,18.43,1,10.25.4,20.49.92,30.73,1.49,6.39.36,12.79.76,19.18,1,9.69.3,19.37.75,29.06,1a236.57,236.57,0,0,0,24.69-.32,37.56,37.56,0,0,0,10.32-2,4.3,4.3,0,0,0,2.95-3c2.49-.92,5.13-.61,7.68-.72a3.56,3.56,0,0,1,3.42,2.72,3.94,3.94,0,0,1-1,4,16,16,0,0,1-1.65,1.42,18.67,18.67,0,0,1-2.62.52c-13,.77-26,1.1-39.06.89-12.69-.2-25.37-.75-38.05-1.31l-1,0-1,0-11.32-.6-23.35-1.39-31.67-2.21L48.07,97.83C41.73,96.79,35.31,96.6,28.94,96Z"/>
  <path class="cls-3" d="M118.4,10.75a29.75,29.75,0,0,1,4.07,6.38c4.85,8.86,10.32,17.35,15.39,26.07a4.38,4.38,0,0,1,.8,2.75c-4.95,0-9.92-.27-14.84.55-.53-.15-1.17-.19-1-1,2.78-1.41,3.44-2.88,2.5-5.55h0a1.07,1.07,0,0,0-.5-1.15c-1.94-2.64-4.67-2.78-6.51-.35h0c-1.53.5-1.45,1.77-1.45,3-.22,2,1,3,2.45,4l0,6.39a12.66,12.66,0,0,0-.5,4,13.07,13.07,0,0,1-1.7-1Q110.07,49.13,103,43.41A100.77,100.77,0,0,1,118.4,10.75Z"/>
  <path class="cls-4" d="M223.83,97.39a4.33,4.33,0,0,1-3,3,37.56,37.56,0,0,1-10.32,2,236.57,236.57,0,0,1-24.69.32c-9.69-.25-19.37-.7-29.06-1-6.39-.2-12.79-.6-19.18-1-10.24-.57-20.48-1.09-30.73-1.49-6.15-.24-12.29-.65-18.43-1L61.68,96.83c-7.77-.44-15.54-1-23.31-1.52-5-.35-10.24-.53-14.35-4.23a1.89,1.89,0,0,1-.78-1.18l0,0c.46-.16.54-.54.58-1,.84-1.56,2.3-1.7,3.8-1.59,2.69.21,5.37.5,8,.76-2.12.87-4.49-.21-7.26.89a19.11,19.11,0,0,0,2.81.88c9.66,1.19,19.32,2.43,29,3.47,10.18,1.1,20.37,2.12,30.57,3,10,.82,20,1.51,29.94,2,6.65.31,13.29.6,19.93,1,8.61.51,17.24.69,25.86.94,12.28.35,24.59.21,36.87,0,2.66-.05,5.49,0,8.08-1.09-3.32-.48-6.65-.55-9.91-1.21l3.94-.14C211.61,98.24,217.7,97.1,223.83,97.39Z"/>
  <path class="cls-4" d="M201.54,98c3.26.66,6.59.73,9.91,1.21-2.59,1.09-5.42,1-8.08,1.09-12.28.21-24.59.35-36.87,0-8.62-.25-17.25-.43-25.86-.94-6.64-.4-13.28-.69-19.93-1-10-.46-20-1.15-29.94-2-10.2-.84-20.39-1.86-30.57-3-9.68-1-19.34-2.28-29-3.47A19.11,19.11,0,0,1,28.39,89c2.77-1.1,5.14,0,7.26-.89,7,.48,13.91,1,20.83,1.84,3.27,1.19,6.74,1.06,10.12,1.41,6.43.66,12.89,1,19.33,1.6,8.65.8,17.29,1.66,26,2,4.73.18,9.49.29,14.23.79,2.8.29,5.72.58,8.54-.29,3.51.71,7.07.21,10.59.48,9,.68,18,1.25,27.07,1.36l9.44.3,1.4,0C189.29,98.17,195.42,97.67,201.54,98Z"/>
  <path class="cls-2" d="M98.05,86a102.08,102.08,0,0,1,2.37-32.22c3.16,5.61,6.29,11.23,9.51,16.82,2.52,4.37,4.71,9,7.85,13,0,.65,0,1.3,0,1.95-.81,1.61-.23,3.32-.39,5-3.76,0-7.23-1.34-10.81-2.2C103.73,87.58,101,86.25,98.05,86Z"/>
  <path class="cls-3" d="M117.77,83.54c-3.13-4-5.32-8.58-7.84-13-3.22-5.59-6.35-11.21-9.51-16.82A45,45,0,0,1,103,43.41q7.08,5.7,14.16,11.39a13.07,13.07,0,0,0,1.7,1Q118.32,69.66,117.77,83.54Z"/>
  <path class="cls-3" d="M23.76,114.19A236.09,236.09,0,0,0,35,136.07a20,20,0,0,1,2.18,4.39c-2.09.06-2.93-1.7-4-2.91-4.19-4.59-8-9.49-11.81-14.43A47.83,47.83,0,0,1,23.76,114.19Z"/>
  <path class="cls-3" d="M98.05,86c3,.26,5.68,1.59,8.54,2.28,3.58.86,7,2.22,10.81,2.2,0,1.3-.05,2.6-.08,3.91-3.41-.19-6.85-.14-10.21-.62-3-.43-6,.08-9-.79Z"/>
  <path class="cls-4" d="M98.13,93c2.93.87,6,.36,9,.79,3.36.48,6.8.43,10.21.62l3.08,0a4.15,4.15,0,0,0,2.11.48c4.06.18,8.11.39,12.17.59-2.82.87-5.74.58-8.54.29-4.74-.5-9.5-.61-14.23-.79-8.69-.33-17.33-1.19-26-2-6.44-.59-12.9-.94-19.33-1.6-3.38-.35-6.85-.22-10.12-1.41,9.61.73,19.21,1.48,28.83,2.19C89.58,92.49,93.85,92.71,98.13,93Z"/>
  <path class="cls-3" d="M28.94,96c6.37.63,12.79.82,19.13,1.86v2c-3.22.38-6.25-.93-9.44-1.12-3.34-.19-6.69-.17-10-.43C28.73,97.51,28.83,96.74,28.94,96Z"/>
  <path class="cls-5" d="M23.8,89c0,.41-.12.79-.58,1A1,1,0,0,1,23.8,89Z"/>
  <path class="cls-6" d="M28.68,98.27l-.28.53Z"/>
  <path class="cls-2" d="M231.69,174.16c-3.07-2.9-6.8-5.67-7.05-10.14a73,73,0,0,1,.27-11.54c.72-6.84,1.53-13.66,2.85-20.41.08-.4.08-.82.16-1.22.7-3.37.7-3.37,3.32-1.3v.52a3.77,3.77,0,0,0-.47,1.08c-.64,9-.7,18.09-.45,27.13C230.46,163.58,231.21,168.86,231.69,174.16Z"/>
  <path class="cls-3" d="M223.82,14.8c9.1.42,18.19.82,27.29,1.25,4.59.22,9.21,0,13.78.61,1.45,2.07,2.3,4.47,3.6,6.61,5.25,8.61,10.52,17.22,16.43,25.4,4.71,6.51,9.54,12.93,14.62,19.15,5.61,6.86,11.55,13.45,17.35,20.15-5.8.92-11.59,2-17.41,2.73-5,.67-10,1.37-15.09,1.79a74,74,0,0,0-11.58,1.43l-1-.5a24.82,24.82,0,0,0-1.52-2.22c-5.09-5.91-9.87-12.07-14.47-18.36a269.22,269.22,0,0,1-15-23.14,179.48,179.48,0,0,1-10.6-20.54C228.26,24.33,226,19.59,223.82,14.8Z"/>
  <path class="cls-2" d="M223.82,14.8c2.17,4.79,4.44,9.53,6.49,14.36a179.48,179.48,0,0,0,10.6,20.54,269.22,269.22,0,0,0,15,23.14c4.6,6.29,9.38,12.45,14.47,18.36a24.82,24.82,0,0,1,1.52,2.22,214.22,214.22,0,0,1-34.17.5l-.47,0c-.59-1.89-2.2-3-3.37-4.46-6.44-7.86-12.7-15.85-18.63-24.09-5.69-7.92-11.25-15.92-16.43-24.21-4.25-6.8-8.33-13.7-12.46-20.58-1.55-2.59-2.42-5.59-4.58-7.82q13,.6,26.09,1.21C213.16,14.2,218.49,14.51,223.82,14.8Z"/>
  <path class="cls-2" d="M246.61,103.83A28.69,28.69,0,0,1,239.13,95c3.35-.38,6.18,1,9,2.64,1.21.7,2.66,1.55,2.17,3.12A3.9,3.9,0,0,1,246.61,103.83Z"/>
  <path class="cls-2" d="M316.89,88c-5.8-6.7-11.74-13.29-17.35-20.15-5.08-6.22-9.91-12.64-14.62-19.15-5.91-8.18-11.18-16.79-16.43-25.4-1.3-2.14-2.15-4.54-3.6-6.61,10.91,0,21.8.44,32.7,1,1.6,5.51,4.62,10.36,7.29,15.34a156.44,156.44,0,0,0,9.34,15.26c3.84,5.51,7.71,11,12,16.2,5,6,10.1,11.89,15.42,17.61-4.23,1.73-8.79,2.25-13.15,3.48-3.67,1-7.55,1.11-11.14,2.48Z"/>
  <path class="cls-7" d="M258.48,87.9l.09.65-.22,0-.23-.06Z"/>
  <path class="cls-3" d="M239.12,95c-11,.53-18.07.93-27.67,1.77-3.52-.61-3.12,0-6.69-.36-.18-.17-5.53-7.22-5.71-7.39-4.46-6.29-9-12.54-13.36-18.87-1.77-2.54-3.95-4.84-4.95-7.86l1.07-1.35c-1-.29-2.17,0-3.07-.65-.05-1.07-.85-1.76-1.38-2.55a40.23,40.23,0,0,1-4.08-6.7c2-1.6,2.85-4.43,5.74-5.18-2.59-.32-4.62-1.54-6.72-2.56a20.22,20.22,0,0,0-6.42-2.38c-.83-3.52-3.34-6.13-5-9.17-3.62-6.41-7.39-12.73-11.08-19.1a12.57,12.57,0,0,1-.7-1.83c10.9.48,21.81,1.05,32.69,2,2.16,2.23,3,5.23,4.58,7.82,4.13,6.88,8.21,13.78,12.46,20.58,5.18,8.29,10.74,16.29,16.43,24.21,5.93,8.24,12.19,16.23,18.63,24.09C235,90.85,238.54,93.07,239.12,95Z"/>
  <path class="cls-7" d="M253.08,248c0,6.76,0,13.51,0,20.26,0,.86.33,1.85-.62,2.49l-1.2-20.88c0-.65-.08-1.31-.13-2Z"/>
  <path class="cls-4" d="M376.21,14.31a2.52,2.52,0,0,1-.68.31c-.34,0-.58-.23-.42-.58a.71.71,0,0,1,.59-.19C375.86,13.88,376,14.1,376.21,14.31Z"/>
  <path class="cls-2" d="M40.65,145.41c2.91.76,4.65,3.24,7,4.88a118.24,118.24,0,0,0,28.48,15.16c4.09,1.48,8.34,2.39,12.4,3.91a11.64,11.64,0,0,0,3.66.3l1,.5a298.65,298.65,0,0,0,20.75,23.91c6.4,6.77,13.15,13.2,19.7,19.82.62.63,1.66,1,1.87,2.27-4.24-.46-8.31-.74-12.37-1.06-7.69-.61-15.36-1.36-23.08-1.35l-1.92-.56c-.82-1.9-2.64-2.87-4.07-4.13a302.56,302.56,0,0,1-23.46-23.51,280.76,280.76,0,0,1-26.35-34.32C43,149.33,41.83,147.35,40.65,145.41Z"/>
  <path class="cls-3" d="M93.15,170.16l-1-.5Q80.4,154.34,69.68,138.3a320,320,0,0,1-16.89-29.13c-1.47-2.81-3.06-5.63-3.76-8.8,3.74.16,7.17,1.63,10.76,2.42,8.55,1.87,17.23,3,25.85,4.38A1.54,1.54,0,0,0,86.8,107c.46-.42,0-.92-.2-1.32-.84-1.65-2.37-3-2.38-5l31.67,2.21c.64,2.58,2.76,4.54,3,7.28-3.67-.3-7.33-.65-11-.9-6-.41-12.06-1-18-1.86-.64-.1-1.44-.4-1.84.18s.21,1.22.55,1.76a341.47,341.47,0,0,0,19,28.37c6.65,8.64,13.4,17.19,20.65,25.35,2.66,3,5.88,5.53,8,9-3.64,1.09-7.45.74-11.13.88A128.29,128.29,0,0,1,93.15,170.16Z"/>
  <path class="cls-3" d="M84.22,100.69c0,2,1.54,3.36,2.38,5,.21.4.66.9.2,1.32a1.54,1.54,0,0,1-1.16.15c-8.62-1.42-17.3-2.51-25.85-4.38-3.59-.79-7-2.26-10.76-2.42l-1-.54c0-.66,0-1.33,0-2Z"/>
  <path class="cls-8" d="M165.88,40.87a20.22,20.22,0,0,1,6.42,2.38c2.1,1,4.13,2.24,6.72,2.56-2.89.75-3.73,3.58-5.73,5.18a9.19,9.19,0,0,1-7.61,0c-3-1.39-4-1.24-5.88,1.6-2.12,3.26-3.94,6.72-5.89,10.1l-1.9,2a28.81,28.81,0,0,1-9.37,5c-1.37.18-2.74.39-4.12.51-6.17.55-11.52-1.8-16.68-4.79.18-5.66.41-11.33.5-17,0-1.19.68-1.52,1.48-1.93,4.92-.82,9.89-.56,14.84-.55,4.21.66,8.39,1.57,12.69,1.38A15.81,15.81,0,0,0,161,43.48C162.43,42.28,163.82,40.94,165.88,40.87Z"/>
  <path class="cls-3" d="M232.24,104.85c-.35.83-.69,1.65-1,2.47-5.81-1.35-11.63.06-17.45.05-4.16,0-8.33.59-12.5,1-8.64.78-17.27,1.8-25.93,2.33a159.45,159.45,0,0,1-17.76.6c-.61,0-1.45-.34-1.79.4s.26,1.25.69,1.74c3.61,4.14,7.11,8.41,10.91,12.38a229.64,229.64,0,0,0,32.48,28.71,2.26,2.26,0,0,1,1.2,1.77,1.71,1.71,0,0,1-1,1c-6.07,2-12.11,4.13-18.22,6-5.76,1.77-11.59,3.29-17.4,4.92l-1-.51a9.63,9.63,0,0,0-1.29-1.47c-5.36-4.05-9.61-9.25-14-14.22A217.49,217.49,0,0,1,123,116.9c-1.22-2.1-2.62-4.17-3.2-6.6a48.57,48.57,0,0,1,5.13.37c9.27.36,18.54.82,27.83.57.45,0,1.07.26,1.3-.32s-.18-.93-.49-1.31a17.31,17.31,0,0,1-3-4.72l1,0a.54.54,0,0,0,1,0c12.68.56,25.36,1.11,38.05,1.31,13,.21,26.05-.12,39.06-.89A18.67,18.67,0,0,0,232.24,104.85Z"/>
  <path class="cls-3" d="M150.56,104.89a17.31,17.31,0,0,0,3,4.72c.31.38.7.82.49,1.31s-.85.31-1.3.32c-9.29.25-18.56-.21-27.83-.57a48.57,48.57,0,0,0-5.13-.37l-.91-.12c-.24-2.74-2.36-4.7-3-7.28l23.35,1.39Z"/>
  <path class="cls-9" d="M152.51,105a.54.54,0,0,1-1,0Z"/>
  <path class="cls-1" d="M123.82,46.5c-.8.41-1.47.74-1.48,1.93-.09,5.66-.32,11.33-.5,17l-1.44,29-3.08,0c0-1.31.05-2.61.08-3.91.16-1.66-.42-3.37.39-5,.63-.33.53-.93.6-1.5.45-3.88.74-7.79,1.15-11.67a163.33,163.33,0,0,0,.82-18.09,3,3,0,0,0-1-2.4l0-6.39a3.71,3.71,0,0,0,3.53,0C122.65,46.31,123.29,46.35,123.82,46.5Z"/>
  <path class="cls-7" d="M119.36,51.83a3,3,0,0,1,1,2.4,163.33,163.33,0,0,1-.82,18.09c-.41,3.88-.7,7.79-1.15,11.67-.07.57,0,1.17-.6,1.5,0-.65,0-1.3,0-1.95l1.08-27.74A12.66,12.66,0,0,1,119.36,51.83Z"/>
  <path class="cls-10" d="M118.33,38.44c1.84-2.43,4.57-2.29,6.51.35,0,.46,0,.91.5,1.15h0c-3,4.16-4.75,4.47-8.48,1.52,0-1.24-.08-2.51,1.45-3,.19.62-.76,1.31-.07,1.8s1.43-.14,2-.55a3.77,3.77,0,0,0,1.73-2C120.6,37.58,120.6,37.58,118.33,38.44Z"/>
  <path class="cls-5" d="M116.88,41.45c3.73,2.95,5.45,2.64,8.48-1.52.94,2.67.28,4.14-2.5,5.55a3.71,3.71,0,0,1-3.53,0C117.92,44.47,116.66,43.41,116.88,41.45Z"/>
  <path class="cls-5" d="M125.34,39.94c-.51-.24-.52-.69-.5-1.15A1.07,1.07,0,0,1,125.34,39.94Z"/>
  <path class="cls-11" d="M120.4,94.42l1.44-29c5.16,3,10.51,5.34,16.68,4.79,1.38-.12,2.75-.33,4.12-.51A100.2,100.2,0,0,0,157,76.59c0,.33,0,.66,0,1a23.82,23.82,0,0,0-1.85,1.62c-4.13,4.41-9.32,6.17-15.25,6.33a25.68,25.68,0,0,1-13.76-3.93c-1-.56-1.77-.86-1.8.68a51.08,51.08,0,0,1-.49,8.1c-.25,1.45.6,1.89,2,2.1,7.3,1,14.61,1.82,22,2.5,8,.75,16,1.29,24.06,1.38a3.44,3.44,0,0,1,.45,0l0,.92c-9-.11-18.06-.68-27.07-1.36-3.52-.27-7.08.23-10.59-.48-4.06-.2-8.11-.41-12.17-.59A4.15,4.15,0,0,1,120.4,94.42Z"/>
  <path class="cls-2" d="M172.32,96.41a3.44,3.44,0,0,0-.45,0,5.39,5.39,0,0,0-.4-1.15c-2.25-3.39-4.61-6.72-6.75-10.18-1.31-2.12-3.36-3.81-3.82-6.43,3.36,1,6.77,1.9,10.07,3.08A144.24,144.24,0,0,0,199.05,89l.52.51c1.2,1.73,2.35,3.51,3.62,5.19,1.08,1.43.57,1.62-.95,1.77-5.56.57-11.13.41-16.71.47-.82,0-1.87-.43-2.35.75l-1.4,0c-.2-.53-.62-.64-1.14-.77C177.89,96.2,175.1,96.45,172.32,96.41Z"/>
  <path class="cls-2" d="M201.05,156.27a2.26,2.26,0,0,0-1.2-1.77,229.64,229.64,0,0,1-32.48-28.71c-3.8-4-7.3-8.24-10.91-12.38-.43-.49-1-1.08-.69-1.74s1.18-.43,1.79-.4a159.45,159.45,0,0,0,17.76-.6c8.66-.53,17.29-1.55,25.93-2.33,4.17-.38,8.34-1,12.5-1,5.82,0,11.64-1.4,17.45-.05a168.68,168.68,0,0,0-10.71,36.07c-.41,2.15-.34,4.39-1.09,6.49-2.32-.37-4,1.24-5.92,2-3.52,1.42-7.25,2.38-10.49,4.47Z"/>
  <path class="cls-2" d="M163.42,167.68l1,.51c1.23,1.8,3.06,2.95,4.63,4.4a196.37,196.37,0,0,0,20.72,16.21,217.09,217.09,0,0,0,19.18,12c6.48,3.58,13,7,19.85,9.92l7.93,12.88c-5.61,0-11.22.15-16.82-.06-8.93-.34-17.86-.92-26.78-1.4l-1.92-.58c-.16-1-1.15-1.37-1.82-1.89-6.55-5-12.93-10.3-19.2-15.7q-7-6-13.77-12.26c-6.66-6.11-13-12.53-19.2-19.11a8.67,8.67,0,0,1,3.51-1,39,39,0,0,0,9.7-1C154.74,169.65,159.27,169.49,163.42,167.68Z"/>
  <path class="cls-3" d="M228.77,210.75c-6.81-2.92-13.37-6.34-19.85-9.92a217.09,217.09,0,0,1-19.18-12A196.37,196.37,0,0,1,169,172.59c-1.57-1.45-3.4-2.6-4.63-4.4,5.81-1.63,11.64-3.15,17.4-4.92,6.11-1.89,12.15-4,18.22-6a1.71,1.71,0,0,0,1-1l1.94.09a2,2,0,0,0,1.13,1.49c4.75,3.08,9.48,6.2,14.21,9.3.45,14.75,3.36,28.91,10,42.21A12.64,12.64,0,0,1,228.77,210.75Z"/>
  <path class="cls-2" d="M218.33,167.15c-4.73-3.1-9.46-6.22-14.21-9.3a2,2,0,0,1-1.13-1.49c3.24-2.09,7-3.05,10.49-4.47,1.92-.77,3.6-2.38,5.92-2C219.3,155.65,217.91,161.35,218.33,167.15Z"/>
  <path class="cls-2" d="M199.05,89A144.24,144.24,0,0,1,171,81.68c-3.3-1.18-6.71-2.07-10.07-3.08l-1.45-1A1.42,1.42,0,0,0,158,76.09l.47-2c2-1.93,2.46-4.79,4.35-6.78,1.43-1.5,2.65-2.54,5-1.31,3.77,2,8.24,1.64,10.48-2.49a2.33,2.33,0,0,1,2.46-1.3c1,3,3.18,5.32,4.95,7.86C190.09,76.43,194.59,82.68,199.05,89Z"/>
  <path class="cls-12" d="M180.74,62.24a2.33,2.33,0,0,0-2.46,1.3C176,67.67,171.57,68,167.8,66c-2.34-1.23-3.56-.19-5,1.31-1.89,2-2.39,4.85-4.35,6.78-3.48-2.25-5-5.85-6.45-9.45l1.9-2c3.78-.34,7.25-1.46,10-4.19s5.42-2.71,8.58-1.16c2.06,1,4,2.31,6.25,2.9.9.68,2,.36,3.07.65Z"/>
  <path class="cls-2" d="M178.74,60.24c-2.25-.59-4.19-1.88-6.25-2.9-3.16-1.55-6-1.44-8.58,1.16s-6.22,3.85-10,4.19c2-3.38,3.77-6.84,5.89-10.1,1.85-2.84,2.86-3,5.88-1.6a9.19,9.19,0,0,0,7.61,0,39.52,39.52,0,0,0,4.07,6.7C177.89,58.48,178.69,59.17,178.74,60.24Z"/>
  <path class="cls-3" d="M137.19,172.63c6.19,6.58,12.54,13,19.2,19.11q6.8,6.22,13.77,12.26c6.27,5.4,12.65,10.66,19.2,15.7.67.52,1.66.85,1.82,1.9-4.14-.35-8.3-.61-12.44-1-6.81-.73-13.6-1.7-20.42-2.32-5.94-.54-11.84-1.49-17.82-1.59-1.14,0-2.26-.83-3.46-.17.41,1.29,2,1.63,2.05,3.05-5-.43-10-.89-14.94-1.28-7.35-.58-14.71-1.11-22.07-1.67-.07-1.39-2.12-1.33-2.06-2.82,7.72,0,15.39.74,23.08,1.35,4.06.32,8.13.6,12.37,1.06-.21-1.29-1.25-1.64-1.87-2.27-6.55-6.62-13.3-13-19.7-19.82a298.65,298.65,0,0,1-20.75-23.91A128.29,128.29,0,0,0,125.06,173c3.68-.14,7.49.21,11.13-.88Z"/>
  <path class="cls-2" d="M137.19,172.63l-1-.5c-2.08-3.52-5.3-6-8-9-7.25-8.16-14-16.71-20.65-25.35a341.47,341.47,0,0,1-19-28.37c-.34-.54-1-1.14-.55-1.76s1.2-.28,1.84-.18c6,.88,12,1.45,18,1.86,3.67.25,7.33.6,11,.9l.91.12c.58,2.43,2,4.5,3.2,6.6A217.49,217.49,0,0,0,148.16,152c4.36,5,8.61,10.17,14,14.22a9.63,9.63,0,0,1,1.29,1.47c-4.15,1.81-8.68,2-13,2.93a39,39,0,0,1-9.7,1A8.67,8.67,0,0,0,137.19,172.63Z"/>
  <path class="cls-11" d="M152,64.67c1.48,3.6,3,7.2,6.45,9.45-.16.65-.31,1.31-.47,2l-1,.5a100.2,100.2,0,0,1-14.36-6.89A28.81,28.81,0,0,0,152,64.67Z"/>
  <path class="cls-13" d="M118.33,38.44c2.27-.86,2.27-.86,3.64-.72a3.77,3.77,0,0,1-1.73,2c-.55.41-1.26,1.06-2,.55s.26-1.18.07-1.8Z"/>
  <path class="cls-3" d="M159.45,77.58l1.45,1c.46,2.62,2.51,4.31,3.82,6.43,2.14,3.46,4.5,6.79,6.75,10.18a5.39,5.39,0,0,1,.4,1.15c-8-.09-16.06-.63-24.06-1.38-7.34-.68-14.65-1.47-22-2.5-1.42-.21-2.27-.65-2-2.1a51.08,51.08,0,0,0,.49-8.1c0-1.54.82-1.24,1.8-.68a25.68,25.68,0,0,0,13.76,3.93c5.93-.16,11.12-1.92,15.25-6.33A23.82,23.82,0,0,1,157,77.58Z"/>
  <path class="cls-14" d="M159.45,77.58H157c0-.33,0-.66,0-1l1-.5A1.42,1.42,0,0,1,159.45,77.58Z"/>
  <path class="cls-1" d="M254.05,248c.53,0,1.09-.21,1.5.31q.49,11.59,1,23.17c0,.9,0,1.81,0,2.71l-2.93-.56a10.7,10.7,0,0,0,1-5C254.57,261.74,254.66,254.86,254.05,248Z"/>
  <path class="cls-4" d="M114.91,224.12c-10.42-.83-20.83-1.68-31.25-2.48Q56.35,219.56,29,217.51c-3.83-.29-4.8-1.34-4.23-4.28a12.66,12.66,0,0,0,8.41,2.92c9.61.25,19.19.86,28.78,1.51,6.88.46,13.79.52,20.66,1.1,2.87.25,5.74.26,8.61.45,9.41.63,18.81,1.3,28.22,1.94,5.16.36,10.32.67,15.47,1,8.34.62,16.67,1.3,25,1.91,3.27.25,6.56.33,9.83.6,7,.59,14,1.26,21.05,1.89,4.89.43,9.79.85,14.68,1.31,3.11.29,6.21,1.13,9.39.66,2.65,0,5.24.79,7.9.53,1.46,1.81,3.71,1.82,5.65,2.19,5.26,1,10.59,1.71,14.2-3.77A12.4,12.4,0,0,1,247,227a2.81,2.81,0,0,1,2.65,2.14,3.4,3.4,0,0,1-.95,3.82,4.28,4.28,0,0,1-4.48,1.44c-5.09-1.69-10.4-1.25-15.59-1.78-7.68-.78-15.4-1.09-23.11-1.65q-16.2-1.17-32.41-2.41c-4.34-.33-8.67-.7-13-1-8.84-.66-17.65-1.62-26.51-1.93-4.74-.79-9.55-.84-14.33-1.23a5.18,5.18,0,0,0-2.41-.19Z"/>
  <path class="cls-4" d="M214.9,228.57c-3.18.47-6.28-.37-9.39-.66-4.89-.46-9.79-.88-14.68-1.31-7-.63-14-1.3-21.05-1.89-3.27-.27-6.56-.35-9.83-.6-8.34-.61-16.67-1.29-25-1.91-5.15-.38-10.31-.69-15.47-1-9.41-.64-18.81-1.31-28.22-1.94-2.87-.19-5.74-.2-8.61-.45-6.87-.58-13.78-.64-20.66-1.1-9.59-.65-19.17-1.26-28.78-1.51a12.66,12.66,0,0,1-8.41-2.92c.35-1.65,1.55-2.12,3-2.12,1.21,0,2.41.06,3.62.1,4.74.16,9.43,1.21,14.21.87l2.78.26a2.46,2.46,0,0,0,2.11.29l2,.1a1.17,1.17,0,0,0,1.56.18l2.41.17,2,.1,2,.11c.88.73,2,.24,2.94.52-2.24.79-4.51.36-6.78.21-3.82-.24-7.62-.91-11.94-.74a11.69,11.69,0,0,0,4.46,1c2.7.11,5.39.36,8.08.63,6,.58,11.88,1.42,17.83,1.75,5.41.3,10.78,1,16.2,1.17,9.83.34,19.63,1.22,29.45,1.87,5.4.35,10.8.65,16.2,1,8.33.61,16.66,1.31,25,1.91,5.48.4,11,.59,16.45,1.06,8.56.73,17.13,1.48,25.66,2.49C207.66,226.61,211.52,226.59,214.9,228.57Z"/>
  <path class="cls-3" d="M45.65,212.08c-4.78.34-9.47-.71-14.21-.87-1.66-7.16-4.81-13.78-7.48-20.56a86.8,86.8,0,0,1-4.5-13.52c3.1,4.62,6.16,9.28,9.32,13.86a148.35,148.35,0,0,0,13,16.32A24.18,24.18,0,0,1,45.65,212.08Z"/>
  <path class="cls-7" d="M114.91,224.12l2,.07a15.45,15.45,0,0,0-.45,2.9c.2,5.83-.35,11.64-.55,17.46l-.9-.09Z"/>
  <path class="cls-15" d="M119.28,224.38q0,10.53,0,21.05l-3.45-.88c.2-5.82.75-11.63.55-17.46a15.45,15.45,0,0,1,.45-2.9A5.18,5.18,0,0,1,119.28,224.38Z"/>
  <path class="cls-15" d="M252.56,272.54c0-.61-.07-1.22-.1-1.83.95-.64.62-1.63.62-2.49,0-6.75,0-13.5,0-20.26l1,0c.61,6.87.52,13.75.54,20.63a10.7,10.7,0,0,1-1,5l-1-.43C252.61,273,252.59,272.76,252.56,272.54Z"/>
  <path class="cls-4" d="M214.9,228.57c-3.38-2-7.24-2-10.93-2.4-8.53-1-17.1-1.76-25.66-2.49-5.47-.47-11-.66-16.45-1.06-8.33-.6-16.66-1.3-25-1.91-5.4-.39-10.8-.69-16.2-1-9.82-.65-19.62-1.53-29.45-1.87-5.42-.18-10.79-.87-16.2-1.17-6-.33-11.88-1.17-17.83-1.75-2.69-.27-5.38-.52-8.08-.63a11.69,11.69,0,0,1-4.46-1c4.32-.17,8.12.5,11.94.74,2.27.15,4.54.58,6.78-.21.55-.07,1.13-.19,1.52.38a6.57,6.57,0,0,0,5.42.09c5.3.35,10.6.67,15.91,1.05s10.57.82,15.86,1.24c7.36.56,14.72,1.09,22.07,1.67,5,.39,10,.85,14.94,1.28,8.17.55,16.34,1.08,24.5,1.66,4.82.35,9.63.77,14.45,1.14,5.05.4,10.1.77,15.15,1.16,6.37.53,12.74,1.32,19.12,1.51,5.51.16,10.89,1.65,16.42,1.29,1.36,1.56,2.92.77,4.45.39,1,0,2.11-.32,3.07.37l-1.2.2c.51.63,1.29,0,1.67.72a69.34,69.34,0,0,1-13.92,1.14C220.14,229.36,217.55,228.57,214.9,228.57Z"/>
  <path class="cls-3" d="M102.08,216.57c-5.29-.42-10.58-.86-15.86-1.24s-10.61-.7-15.91-1.05l-4-.11c-.2-.73-1-1.51.77-1.48,6.65.12,13.32-.2,19.95.16,3.68.2,7.35.34,11,.34l1.92.56C100,215.24,102,215.18,102.08,216.57Z"/>
  <path class="cls-4" d="M66.35,214.17l4,.11a6.57,6.57,0,0,1-5.42-.09Z"/>
  <path class="cls-4" d="M222.8,229.1A69.34,69.34,0,0,0,236.72,228c-.38-.7-1.16-.09-1.67-.72l1.2-.2,3.35,0c1,.24,2.14-.3,3,.5-3.6,5.48-8.93,4.78-14.19,3.77C226.51,230.92,224.26,230.91,222.8,229.1Z"/>
  <path class="cls-3" d="M193.1,222.18c8.92.47,17.85,1,26.78,1.39,5.6.21,11.21.05,16.82.06,1.4.76,2,2.18,2.9,3.39l-3.35,0c-1-.69-2-.37-3.07-.37l-4.45-.39c-5.53.36-10.91-1.13-16.42-1.29-6.38-.19-12.75-1-19.12-1.51Z"/>
  <path class="cls-5" d="M141.08,237.77c0,.51,0,1-.72,1Z"/>
  <path class="cls-3" d="M139.09,219.52c0-1.42-1.64-1.76-2.05-3.05,1.2-.66,2.32.14,3.46.17,6,.1,11.88,1.05,17.82,1.59,6.82.62,13.61,1.59,20.42,2.32,4.14.44,8.3.7,12.44,1l1.92.57.09,1.31c-5.05-.39-10.1-.76-15.15-1.16-4.82-.37-9.63-.79-14.45-1.14C155.43,220.6,147.26,220.07,139.09,219.52Z"/>
  <path class="cls-4" d="M228.73,226.28l4.45.39C231.65,227.05,230.09,227.84,228.73,226.28Z"/>
  <path class="cls-3" d="M371.39,205.3c1.64,3.48,3.28,7,4.93,10.44a329.82,329.82,0,0,0,18.27,32.64A149.21,149.21,0,0,1,378,249.79c-6.49.32-13,.08-19.52.08l-1.94-.5c-3-2.81-6.48-5-9.7-7.51q-16.17-12.66-31.7-26.11c-8.95-7.74-17.72-15.68-26.19-23.92-14.26-13.87-28.24-28-41.34-43-5.44-6.24-10.76-12.6-16.34-18.72v-.52a85.74,85.74,0,0,1,1.55-12.36c.37-2.21.85-4.57,2.85-6.09a54.51,54.51,0,0,1,11-6.29,23.8,23.8,0,0,1,1.84,1.63c3.74,4,7.32,8.22,11.21,12.11,5.52,5.53,11,11.09,16.72,16.45,8.08,7.6,16.3,15,24.79,22.14,9.3,7.8,18.94,15.17,28.81,22.22,9.66,6.91,19.58,13.46,29.81,19.52C363.59,201.13,367.12,203.89,371.39,205.3Z"/>
  <path class="cls-3" d="M399,254.72l-5.84.27c-7.93.67-15.86,0-23.79-.11l-1,0-6.9,0c0-.14-.06-.28-.1-.42l1.67-.22c-1.24-1.84-3.68-2.27-4.57-4.33,6.51,0,13,.24,19.52-.08a149.21,149.21,0,0,0,16.62-1.41Z"/>
  <path class="cls-2" d="M231.24,130.07c5.58,6.12,10.9,12.48,16.34,18.72,13.1,15,27.08,29.17,41.34,43,8.47,8.24,17.24,16.18,26.19,23.92q15.54,13.45,31.7,26.11c3.22,2.52,6.7,4.7,9.7,7.51-.13.1-.26.29-.38.28-7.93-.52-15.88-.71-23.76-1.75-7-.93-14-1.41-20.92-2.85-3.59-.75-7.28-1.08-10.92-1.6l-2.9-1.07a2.47,2.47,0,0,0-1-1.61c-4.89-4.26-10.06-8.25-14.61-12.84-6-6.08-12.4-11.77-18.31-18-9.47-9.95-18.81-20-27.81-30.35-1.08-1.24-1.63-3.17-3.61-3.53l-.56-1.91c-.48-5.3-1.23-10.58-1.37-15.88-.25-9-.19-18.1.45-27.13A3.77,3.77,0,0,1,231.24,130.07Z"/>
  <path class="cls-3" d="M231.69,174.16c.19.64.38,1.28.56,1.91-.22,2.35.52,4.55.92,6.81,2.13,12,5.57,23.58,12.45,33.86,3.91,5.84,8.76,10.77,15.09,13.86a118.1,118.1,0,0,0,24.51,8.88c4.13,1,8.16,2.41,12.41,2.9l2.9,1.07c.08,1,.9,1.44,1.59,2,2.18,1.89,4.94,3.13,6.37,5.83a60.44,60.44,0,0,1-7.6-.37c-9.69-.95-19.41-1.66-29.12-2.47-5.63-.51-11.26-1-16.89-1.54-8.09-.7-16.19-1.3-24.28-2.1-12.15-1.19-24.28-2.75-36.48-3.53-.41-.45-1-.36-1.47-.34h-.54a20.82,20.82,0,0,0-3.14-.54c-6-.56-12-1.23-18.06-1.86L155.52,237c-.88-.11-1.76-.25-2.64-.32-3.52-.25-7-1.41-10.57-.14-.25-.94-1.09-1.41-1.7-2.05a50,50,0,0,1-7-8.87c8.86.31,17.67,1.27,26.51,1.93,4.34.33,8.67.7,13,1q16.2,1.22,32.41,2.41c7.71.56,15.43.87,23.11,1.65,5.19.53,10.5.09,15.59,1.78a4.28,4.28,0,0,0,4.48-1.44,3.4,3.4,0,0,0,.95-3.82A2.81,2.81,0,0,0,247,227a12.48,12.48,0,0,0-4.38.51c-.9-.8-2-.26-3-.5-.87-1.21-1.5-2.63-2.9-3.39l-7.93-12.88a12.64,12.64,0,0,0-.48-1.39c-6.6-13.3-9.51-27.46-10-42.21-.42-5.8,1-11.5,1.07-17.27.75-2.1.68-4.34,1.09-6.49a168.68,168.68,0,0,1,10.71-36.07c.35-.82.69-1.64,1-2.47a16,16,0,0,0,1.65-1.42,3.94,3.94,0,0,0,1-4,3.56,3.56,0,0,0-3.42-2.72c-2.55.11-5.19-.2-7.68.72-6.12-.29-12.21.85-18.34.43,0-1,.46-1.42,1.5-1.44,10.41-.16,20.81-.91,31.21-1.49l.94.06a28.69,28.69,0,0,0,7.48,8.88v1a54.51,54.51,0,0,0-11,6.29c-2,1.52-2.48,3.88-2.85,6.09a85.74,85.74,0,0,0-1.55,12.36c-2.62-2.07-2.62-2.07-3.32,1.3-.08.4-.08.82-.16,1.22-1.32,6.75-2.13,13.57-2.85,20.41a73,73,0,0,0-.27,11.54C224.89,168.49,228.62,171.26,231.69,174.16Z"/>
  <path class="cls-16" d="M399,254.72c1.47.13,3-.24,4.42.27s2.86,1.34,3.2,3.11a4.24,4.24,0,0,1-1.93,4.26,7.65,7.65,0,0,1-5.07,1.66c-10.05-.39-20.1.12-30.16-.2-22.58-.72-45.12-2.12-67.65-3.87-15.44-1.2-30.89-2.48-46.33-3.72-.41-.52-1-.35-1.49-.31l-1,0-1.94-.1c-7.38-.72-14.76-1.42-22.14-2.18q-32.44-3.33-64.89-6.71c-6.39-.67-12.77-1.43-19.16-2.07-3-.3-6.07-3-4.55-6,1.23.9,2.17,2.08,3.72,2.69,5.58,2.2,11.41,2.9,17.3,3.41,4.41.38,8.83.66,13.24,1.06,6.6.6,13.19,1.32,19.8,1.9,4.9.42,9.81.66,14.72,1,7.83.62,15.67,1.25,23.5,2,4.74.42,9.47.83,14.23,1.09,7.85.43,15.67,1.25,23.51,1.86,5,.39,10,.5,15,1.07,8.23.94,16.51,1.15,24.75,1.87,5.88.52,11.81.53,17.69,1.09,11.11,1.06,22.26,1.53,33.41,1.89,5.52.17,11.05,0,16.58.06A36.74,36.74,0,0,0,388,258.73c2.11-.57,4.2-1.46,5.16-3.74Z"/>
  <path class="cls-3" d="M308.49,251.31c-1.43-2.7-4.19-3.94-6.37-5.83-.69-.59-1.51-1-1.59-2,3.64.52,7.33.85,10.92,1.6,6.92,1.44,13.94,1.92,20.92,2.85,7.88,1,15.83,1.23,23.76,1.75.12,0,.25-.18.38-.28l1.94.5c.89,2.06,3.33,2.49,4.57,4.33l-1.66.22c-12.67,0-25.3-1-37.94-1.67C318.44,252.5,313.47,251.8,308.49,251.31Z"/>
  <path class="cls-16" d="M141.08,237.77l1.23-1.24c3.54-1.27,7.05-.11,10.57.14.88.07,1.76.21,2.64.32-2.4,1.34-5.23-.25-7.91,1,2.1.94,4.09.9,6,1.2,5.81.94,11.64,1.88,17.47,2.57,6,.7,12,1.57,18,2.29,6.74.79,13.48,1.62,20.23,2.34,5,.53,9.89,1.29,14.89,1.6,6,.38,11.88,1.28,17.82,1.82,6.53.6,13.07,1,19.6,1.55l25,2c5.48.43,11,.66,16.44,1.11,9.07.76,18.16,1.12,27.23,1.78,7.36.54,14.75.73,22.13,1,8.12.24,16.27.61,24.52-.53-1.74-1.24-3.6-.7-5.35-.87-.81-.07-1.92.45-2.22-.91,7.93.1,15.86.78,23.79.11-1,2.28-3.05,3.17-5.16,3.74a36.74,36.74,0,0,1-10.25,1.07c-5.53-.1-11.06.11-16.58-.06-11.15-.36-22.3-.83-33.41-1.89-5.88-.56-11.81-.57-17.69-1.09-8.24-.72-16.52-.93-24.75-1.87-5-.57-10-.68-15-1.07-7.84-.61-15.66-1.43-23.51-1.86-4.76-.26-9.49-.67-14.23-1.09-7.83-.7-15.67-1.33-23.5-2-4.91-.39-9.82-.63-14.72-1-6.61-.58-13.2-1.3-19.8-1.9-4.41-.4-8.83-.68-13.24-1.06-5.89-.51-11.72-1.21-17.3-3.41-1.55-.61-2.49-1.79-3.72-2.69h0C141.07,238.79,141.08,238.28,141.08,237.77Z"/>
  <path class="cls-16" d="M369.37,254.88c.3,1.36,1.41.84,2.22.91,1.75.17,3.61-.37,5.35.87-8.25,1.14-16.4.77-24.52.53-7.38-.23-14.77-.42-22.13-1-9.07-.66-18.16-1-27.23-1.78-5.46-.45-11-.68-16.44-1.11l-25-2c-6.53-.51-13.07-.95-19.6-1.55-5.94-.54-11.86-1.44-17.82-1.82-5-.31-9.93-1.07-14.89-1.6-6.75-.72-13.49-1.55-20.23-2.34-6-.72-12-1.59-18-2.29-5.83-.69-11.66-1.63-17.47-2.57-1.92-.3-3.91-.26-6-1.2,2.68-1.28,5.51.31,7.91-1l15.39,1.56c6,.63,12,1.3,18.06,1.86a20.82,20.82,0,0,1,3.14.54c.17.34.35.35.54,0,.52,0,1.06-.11,1.47.34,2.8,1.69,6,1.15,9,1.56,6.81.94,13.7,1.26,20.51,2.18,7.39,1,14.81,1.54,22.22,2.32,6.35.67,12.73,1.11,19.11,1.46,2.25.12,4.58.54,6.8-.35,9.71.81,19.43,1.52,29.12,2.47a60.44,60.44,0,0,0,7.6.37c5,.49,9.95,1.19,14.93,1.44,12.64.63,25.27,1.7,37.94,1.67l.09.42a11.22,11.22,0,0,0,6.9,0Z"/>
  <path class="cls-14" d="M368.41,246.93a11.22,11.22,0,0,1-6.9,0Z"/>
  <path class="cls-16" d="M369.12,254.88c-3,1.58-5.74,1.18-8.72-.46C363.38,254.44,366.13,254.86,369.12,254.88Z"/>
  <path class="cls-3" d="M297.63,242.38c-4.25-.49-8.28-1.92-12.41-2.9a118.1,118.1,0,0,1-24.51-8.88c-6.33-3.09-11.18-8-15.09-13.86-6.88-10.28-10.32-21.83-12.45-33.86-.4-2.26-1.14-4.46-.92-6.81,2,.36,2.53,2.29,3.61,3.53,9,10.36,18.34,20.4,27.81,30.35,5.91,6.21,12.29,11.9,18.31,18,4.55,4.59,9.72,8.58,14.61,12.84A2.47,2.47,0,0,1,297.63,242.38Z"/>
  <path class="cls-16" d="M271.77,248.47c-2.22.89-4.55.47-6.8.35-6.38-.35-12.76-.79-19.11-1.46-7.41-.78-14.83-1.32-22.22-2.32-6.81-.92-13.7-1.24-20.51-2.18-3-.41-6.21.13-9-1.56,12.2.78,24.33,2.34,36.48,3.53,8.09.8,16.19,1.4,24.28,2.1C260.51,247.43,266.14,248,271.77,248.47Z"/>
  <path class="cls-10" d="M192.65,241c-.19.34-.37.33-.54,0Z"/>
  <g>
    <path class="cls-4" d="M.23,274.11c-5.73,5.34,8.56,56.73,29.94,89.05,9.21,13.91,16.34,24.45,29.95,33.09,22.18,14.09,46,13.22,58.31,12.61,97.16-4.82,175.81-16.22,233.85-24.7,27.46-4,72-13,90.83-20.22,1.26-.48,5.82-1.11,11-3.94,23.1-12.51,29-60,22.85-59.89-10,.15-25.42,1.79-42.34-.49-25.51-3.43-25.51-3.43-50.65-8.18-94.81-17.91-176.79-27.51-242.67-42.56-5.52-1.26-27-7.54-56.07-10.17-7.45-.67-21.45.85-33,3.09C46.84,242.84,17.07,258.4.23,274.11Z"/>
    <path class="cls-17" d="M1.26,282c-5.68,5.08,8.49,53.9,29.68,84.6,9.12,13.22,16.2,23.23,29.68,31.44,22,13.39,45.55,12.56,57.8,12,96.3-4.58,174.25-15.41,231.78-23.47,27.21-3.81,71.33-12.33,90-19.2,1.25-.46,5.77-1.07,10.93-3.75,22.9-11.88,27.57-49.1,28.11-57,0,0-30.65,1.8-47.42-.36-25.29-3.26-25.29-3.26-50.2-7.77-94-17-175.23-26.14-240.52-40.43a354.51,354.51,0,0,0-55.58-9.66c-7.38-.64-21.26.8-32.73,2.93C47.46,252.32,18,267.1,1.26,282Z"/>
    <path class="cls-4" d="M128.34,409.54l-9.92.5L91.27,368.82a55.71,55.71,0,0,1-3.22-5.61L66,318.88a49.08,49.08,0,0,1-3.13-8l-18.94-65,8.3-4L73.1,307.09a34.69,34.69,0,0,0,2.09,5.13l18.18,40.13a61.93,61.93,0,0,0,3.87,7.23Z"/>
    <path class="cls-16" d="M0,288.29c0-1-3.33-4.5,11.48-14.38,16.68-11.12,21.76-13.56,28.62-17.17.4-.22,5.87-3.91,6.12-2.94.72,2.71,3.2,11.21,3.6,12.34,4.95,13.89,11,38.48,12.64,43.39,2.55,7.65.85,3.24,9.65,21.67,9.11,19.1,10.06,21.39,15.12,30.43,15.21,27.16,29.13,42.68,32.84,48.33,0,0-20.21.51-28-.82-16-2.74-30.68-10.42-34.19-12.79-4.08-2.76-15.1-10.25-33.77-40.52C11.12,334.67-.2,302.34,0,288.29Z"/>
    <path class="cls-16" d="M474.29,331.53c-.81,3.29-1.32,3.57-2.64,7.15-11.83,2.11-23.11,4.9-34.69,5.8-7-.17-14.71-1.63-21.72-2.4-5.95-.65-11.12-1.72-17-2.56-7.13-1-12.76-1.8-19.87-3C368.4,334.88,357.89,334,348,332c-6.8-1.38-71.83-9.89-78.48-12a108.37,108.37,0,0,0,1.37-12c0-3.43,1-6.27.51-8.17,4.68.54,45.34,6.47,49.86,7.65,14.13,3.69,18.7,2.38,32.94,5.65,9.69.81,22.57,2.37,32.89,4.3,8.93,1.68,18.25,3,27.27,4.1,11.25,1.39,20.62,2.51,32,2.35,7.63-.11,12-1.36,21.94-2.34.63-.16,8.23-.74,8.88-.82C477.17,323.66,474.29,331.2,474.29,331.53Z"/>
    <path class="cls-16" d="M477.17,320.69c-11.84,2.12-28.64,2.07-40.22,3-7-.17-14.71-1.63-21.72-2.4-6-.65-11.12-1.71-17-2.56-7.13-1-12.76-1.8-19.86-3-9.94-1.65-20.44-2.56-30.31-4.58-6.8-1.38-71.83-9.88-78.47-12a109.65,109.65,0,0,0,1.36-12c0-3.43,1.1-4.78.63-6.68,4.68.54,45.27,6,49.78,7.15,2.85.69,18.61,2.74,32.91,4.66,10.25,1.25,23.59,4.69,33.9,6.62,8.93,1.68,18.84,4.18,27.87,5.3,11.25,1.39,18.14,2.49,29.48,2.33,7.63-.11,12.82.73,23.3.54.63-.16,9.83-.37,10.48-.45"/>
    <path class="cls-16" d="M461.34,355.61c-8.06,13.22-58.34,21.54-63.14,22.55-6.65.8-18.18-4.89-24.85-4.22-3.58.36-9.24-1.37-12.83-1.3-12.27.23-14.21-3.47-26.48-3.72-10.24-.21-19.63-3.4-29.86-4-8.26-.51-16.36-3.61-24.59-4.38-9.61-.91-19.2-2-28.8-3-.21,0-.4-.26-.6-.39,4.7-2.53,9.69-4.51,14-7.74,3.54-2.66,7-5.39,8.75-9.6,6.88,1.05,13.75,2.16,20.64,3.14s14,1.74,20.92,2.86c6.64,1.07,13.36,1.37,20,2.32,4.05.57,8.15.8,12.24,1.08,16.25,1.1,30.3,3.48,48.91,6.1C400.59,355.15,456.4,355.45,461.34,355.61Z"/>
    <path class="cls-16" d="M395.23,378.77c-22.26,4.59-31.75,5.54-36.54,6.55-6.66.8-12.25,2-18.91,2.71-3.59.36-11.72,2.05-15.32,2.12-12.27.23-.8-1.75-13.07-2-10.24-.21-19.73-.83-30-1.45-8.25-.51-16.7-1.58-24.94-2.35-9.61-.9-19.35-1.84-28.94-2.86-.22,0-12-1-12.24-1.17,4.7-2.53,21.93-8.48,26.26-11.72,3.55-2.65,7.42-6.88,9.23-11.1,6.88,1.06,14.2,2.09,21.09,3.08s13.51,1.21,20.46,2.33c6.64,1.07,13.15,2,19.8,2.92a73.33,73.33,0,0,1,12,2.57c16.26,1.11,30.3,3.48,48.91,6.1C377.94,374.39,390.29,378.61,395.23,378.77Z"/>
    <path class="cls-16" d="M265.07,397.76c-11.09,1.28-20.79,2-33.06,3.65a162.42,162.42,0,0,0-18,1.79c-11.26,1-11.67.79-22.14,2.29-.22,0-14,1-14.22.85,4.7-2.53,23.91-10.5,28.24-13.74,3.54-2.65,7.42-6.88,9.23-11.1,8.77-1,17.66-2,24.55-1s13.16-2,20.1-.85c6.64,1.07,10.83,4.82,17.48,5.77,4.05.57,40.09,3.13,45.72,4.73"/>
    <path class="cls-16" d="M471.65,338.68c-2.33,5-5.62,12.22-10.31,16.93-19.14,1.8-39.91,2.38-59.09,2.21-11.73-.1-26.23-5.13-37.93-6.11-8-.67-16.36-2.26-24.34-2.85-5.9-.44-14.25-2-20.13-2.59-7.72-.75-13.78-2.55-21.48-3.4s-3.81-.57-11.48-1.6c-1.58-.21-10.34.19-11.75-.71,2.31-.4-.48.24,0-1.2,1.67-5.36,5.94-12.61,3.38-17.67,6.48.43,13.5,2.14,19.86,3,17.9,2.51,31.67,5.21,49.69,7.23,14.09,1.59,29.13,5.4,43.29,6.59,9.16.77,17.1,3.52,26.33,3.83,4.73.15,8.84,1.69,13.57,1.73C443.34,344.22,459.75,340.77,471.65,338.68Z"/>
    <path class="cls-18" d="M61.94,272.18c7.5-1.57,26.89-.14,38,.19,49.77,1.52,94.35,15.37,118.3,19.14C273.79,300.25,330.81,309,423,322.79c17.61,2.64,44.43-1.53,54.14-2.1"/>
    <path class="cls-18" d="M66.47,293.31c7.5-1.57,26.88-.14,38,.2,42.77,1.3,87.51,14.29,118.29,19.13,47.75,7.51,104.74,16.31,204.79,31.28,17.62,2.64,34.39-4.68,44.1-5.24"/>
    <path class="cls-19" d="M77.25,319.41c7.5-1.57,26.88-.14,38,.2,49.77,1.51,99.91,11.9,123.86,15.67C294.66,344,310,344,402.25,357.82c17.62,2.64,49.38-1.64,59.09-2.21"/>
    <path class="cls-19" d="M91.43,348.56c7.5-1.57,26.88-.14,38,.19,49.77,1.52,78,2.08,101.93,5.85,55.55,8.74,74.62,9.76,166.84,23.56"/>
    <path class="cls-19" d="M104.36,374.66c7.5-1.57,26.88-.14,38,.19,49.77,1.52,146,14.18,176.13,14.18"/>
  </g>
</svg>
