<svg id="Layer_1" data-name="Layer 1" xmlns="http://www.w3.org/2000/svg" width="112.83mm" height="157.52mm" viewBox="0 0 319.84 446.5">
  <defs>
    <style>
      .cls-1 {
        fill: none;
        stroke: #9e7456;
        stroke-miterlimit: 10;
        stroke-width: 4px;
      }

      .cls-2 {
        fill: #744224;
      }

      .cls-3 {
        fill: #9e7456;
      }

      .cls-4 {
        fill: #ead9ce;
      }

      .cls-5 {
        fill: #490806;
      }

      .cls-6 {
        fill: #fdfdfd;
      }

      .cls-7 {
        fill: #faeed8;
      }

      .cls-8 {
        fill: #b37f51;
      }
    </style>
  </defs>
  <title>boat</title>
  <g>
    <line class="cls-1" x1="106.96" y1="30.32" x2="0.2" y2="124.75"/>
    <line class="cls-1" x1="135.7" y1="28.58" x2="241.31" y2="33.72"/>
    <path class="cls-2" d="M103.63,31.76c3.93,1.31,18.08,5.33,18.32,10,.37,7.33,2,14.55,2.53,21.9a3.75,3.75,0,0,0,2.26-.34q-1.63-12.46-3.26-24.93c2.36,1.91,2.82-.61,4.15-1.38,1.27,8.83,2.52,17.5,3.77,26.16l2.24,0c-1.13-7.43-2.28-14.86-3.39-22.29-1-6.57,5.24-8.94,10.63-13.16M26.82,81.44m114.06-53.7c1.76-1.63,3.55-3.24,5.29-4.9,2-2,2-3.19-.13-5a19.88,19.88,0,0,0-10.22-4.4,45.14,45.14,0,0,0-8.2-.59c-1.17,0-1.65-.28-1.76-1.52-.16-1.94-.66-3.86-.82-5.81a7.23,7.23,0,0,0-2.5-5.29L119.72,0c-2.88,2-3.64,4.76-2.8,8.14.46,1.81,1.28,4.08.58,5.44-.61,1.17-3.15,1.33-4.82,2a51.89,51.89,0,0,0-10.52,5.17c-3.73,2.51-4,4.29-1.42,7.93a10.76,10.76,0,0,0,2.89,3.11m27.56-16.84c1,.07,2.15.08,3.23.24,3.62.51,7.08,1.48,10,3.82.67.55,1.75,1.15.61,2.23-1.6,1.51-3.24,3-4.84,4.48-.82.77-1.61.29-2.4,0a28.2,28.2,0,0,0-8-1.79c-7.48-.46-14.23,1.9-20.69,5.34-3.86,2.06-3.84,2.08-6.41-1.34-2.22-3-2.1-4,1.16-5.93C112.24,17,121.15,13.83,131.19,14.92Zm3.55,11.84A57.44,57.44,0,0,0,129,32.38c-2.67,3.45-5.39,4.17-9,1.46a13.52,13.52,0,0,0-3.93-1.49c-1.63-.53-3.29-1-5.52-1.66C118.7,26.56,126.53,25,134.74,26.76ZM118.6,5.26c.26-1.43.7-2.89,2.23-3s1.79,1.34,2,2.62q.45,3.24,1,6.48c.14.8.44,1.78-.84,1.56-1.06-.17-2.64,1.47-3.15-.55C119.21,10,119,7.59,118.6,5.26Z"/>
    <path class="cls-3" d="M131.4,63.15c-1.25-8.66-2.5-17.33-3.77-26.16-1.33.77-1.79,3.29-4.15,1.38q1.62,12.47,3.26,24.93Z"/>
    <path class="cls-3" d="M131.19,14.92c-10-1.09-19,2.08-27.36,7-3.26,1.92-3.38,3-1.16,5.93,2.57,3.42,2.55,3.4,6.41,1.34,6.46-3.44,13.21-5.8,20.69-5.34a28.2,28.2,0,0,1,8,1.79c.79.29,1.58.77,2.4,0,1.6-1.51,3.24-3,4.84-4.48,1.14-1.08.06-1.68-.61-2.23-2.91-2.34-6.37-3.31-10-3.82C133.34,15,132.23,15,131.19,14.92Z"/>
    <path class="cls-3" d="M134.74,26.76c-8.21-1.75-16-.2-24.17,3.93,2.23.67,3.89,1.13,5.52,1.66A13.52,13.52,0,0,1,120,33.84c3.61,2.71,6.33,2,9-1.46A57.44,57.44,0,0,1,134.74,26.76Z"/>
    <path class="cls-3" d="M118.6,5.26c.38,2.33.61,4.75,1.2,7.09.51,2,2.09.38,3.15.55,1.28.22,1-.76.84-1.56q-.54-3.24-1-6.48c-.18-1.28-.32-2.77-2-2.62S118.86,3.83,118.6,5.26Z"/>
    <path class="cls-2" d="M241.34,31.71h0c-3.28-.79-3,0-5.16-.45-6.1-1.15-14.74-1.51-19.3-.24-9.46,2.63-18.64,11.45-18.64,11.45-7.55-.52-21.21-1.89-28.07,1.36-11.25,5.34-15.5,11.68-15.5,11.68-12.32-.82-15.86-1-24.25,1.34-5.19,1.43-8.79,3.58-16.7,9.18-4.35,3.07-14.34,11.57-14.34,11.57-11.09.5-11-1.43-24.22,3.66-10.33,4-14.74,7.62-16.08,8.91-3.67,3.53-11.45,9.51-12.22,10.1l-.14.06c-9.62,1.4-12.13,1.15-22.7,3.7C17.23,105.67,9.84,113.43.2,124.75c-3.7,2.51,45.79,27.7,52.23,73.36,8.61,61-15.2,119.58-14,119.31,4.34-1,13.44-10.06,49.15-20,67.77-18.86,63.84-17,98.56-22.09,43.35-6.33,49.9-5.32,82.53-7.18a200,200,0,0,0,20.9-57.76c9.76-52.56,4.2-65.25,1.59-86.34C289,106.35,250.42,30.09,241.34,31.71Z"/>
    <path class="cls-4" d="M239.46,40.19c-1,.19-2.08.38-3.14.59-6-1.3-14.67-2.57-19.68-1.18-8.82,2.45-17.38,10.6-17.38,10.6-7-.47-19.75-1.71-26.14,1.3-10.49,4.94-14.46,10.8-14.46,10.8-11.48-.73-14.78-.86-22.6,1.28-4.84,1.33-8.19,3.31-15.57,8.49-4,2.85-13.37,10.7-13.37,10.7-10.34.48-10.3-1.3-22.57,3.42-9.63,3.7-13.74,7.06-15,8.25-3.43,3.26-10.68,8.79-11.39,9.33l-.14.06c-9,1.31-11.3,1.08-21.15,3.45-6.3,1.51-13.2,8.69-22.2,19.14-3.45,2.33,42.61,25.49,48.54,67.61C71.13,250.3,48.85,304.38,50,304.13c4.05-.9,12.54-9.31,45.82-18.53,63.16-17.51,59.49-15.81,91.85-20.55,40.38-5.91,46.49-5,76.89-6.76A184.31,184.31,0,0,0,284.09,205c9.18-48.51,4-60.21,1.63-79.67C283.71,109,247.92,38.68,239.46,40.19Z"/>
  </g>
  <path class="cls-5" d="M176.37,446c2.7.84,5.46.15,8.19.37.39-.72,1.08-.35,1.62-.37,23.43-.91,46.76-2.75,69.85-7,2.29-.42,4.59-.63,6.66-2.15a127.69,127.69,0,0,0,25.92-25.31c16.62-21.8,26.25-46.47,30.09-73.52.36-2.49.19-5.07,1.14-7.47V312.73c-.93-2.14-.7-4.45-1-6.69-2.61-19.85-9.25-38.45-17.47-56.56-3.31-7.29-6.33-14.66-6.93-22.77a20,20,0,0,1,1.6-9.91,2.54,2.54,0,0,1,2.57-1.76,20.58,20.58,0,0,0,7.53-1.46,9,9,0,0,0,6.05-8.34,24,24,0,0,0-2.71-12.33,3.51,3.51,0,0,0-2.12-1.73,30.91,30.91,0,0,0-12-1.61,8.05,8.05,0,0,1-3.33-.63c-5.45-2.22-11.57-.37-15.35,4.6-3.42,4.5-4.43,9.79-4.8,15.25-.79,11.89,2.49,22.71,8.4,32.92,3.76,6.49,7.61,12.94,10.32,20,.63,1.63.44,2.15-1.33,2.7-15.11,4.67-30.1,9.66-44.49,16.29a32,32,0,0,0-3.21,1.73c-2.63,1.62-3.21,3.21-2.17,6.15.35,1,.62,1.69-.53,2.37-18.07,10.7-34.06,24.21-50.38,37.28-3.43,2.76-6.9,5.47-10.35,8.19-.46.36-1,.68-1.62,1.15-2.46-20.95-5.13-41.66-8.76-62.22-.72-.44-1.39-.7-1.63.48.15.93.29,1.87.45,2.8,2,12.4,3.9,24.83,5.49,37.29.91,7.11,1.76,14.21,2.61,21.32.1.78.31,1.6-.55,2.21-1.71,1.21-3.38,2.48-5.07,3.73-.85.64-1.12.33-1.19-.63-.09-1.41-.26-2.82-.43-4.23-1.15-9.59-2.24-19.19-3.49-28.77-1.36-10.45-2.87-20.88-4.31-31.32-.72-.08-1.46-.18-1.61.84,1,7.51,2.09,15,3.09,22.52q2.79,20.83,5.11,41.71a2.83,2.83,0,0,1-1.41,3,124.12,124.12,0,0,1-59.69,23.6c-12.31,1.47-24.63,2-36.62-1.86-8.84-2.87-7.35-1.66-9.49-10.18a119.33,119.33,0,0,1-3.69-29.34c0-1-.28-1.41-1.32-1.49a22.25,22.25,0,0,1-7.56-2.21,2.54,2.54,0,0,0-2.63,0,10,10,0,0,1-1.89.71c-3.31,1.15-3.37,1.15-2.9,4.58,2.5,18.46,6,36.71,12.13,54.36a176.16,176.16,0,0,0,31.57,55.17,4.77,4.77,0,0,0,2.87,1.68c9.09,2,18.33,2.78,27.57,3.53,8.43.68,16.89,1.1,25.35,1.32,3,.71,6,.12,9,.34a12.47,12.47,0,0,1,6.39,0h15.17C171.5,445.68,174,446.21,176.37,446Zm87.22-14,.43-.38a159.14,159.14,0,0,0,36.47-52.25,144.69,144.69,0,0,0,11.89-49.25c.81-14.33-1.31-28.34-5.33-42.08a175.57,175.57,0,0,0-6.84-18.87c-.26-.61-1-1.32-.08-2,1.47-1.07,6.23.57,6.78,2.33,1,3.29,2.07,6.58,3.07,9.88a150.66,150.66,0,0,1,6.63,37.25,126.44,126.44,0,0,1-5.29,41.69c-6.75,22.66-16,44-32.87,61.25-4.4,4.51-8.8,9-14.1,12.47l-.3.3c-.19.19-.24.72-.63.43S263.37,432.29,263.59,432.05Zm19.26-25a.58.58,0,0,1-.05.14s-.07,0-.1,0l.16-.16c.06-.36-.1-.81.36-1,.06,0,.26.08.27.14C283.55,406.64,283.2,406.83,282.85,407ZM62.23,401.68a8.64,8.64,0,0,1,2.93.72,143.14,143.14,0,0,0,41.88,7c11.4.26,22.82.47,34.19-.8,4.35-.49,8.69-1,13-1.49,4.54-.54,9.07-1.12,13.61-1.68,6.66-1.11,13.38-1.92,20-3.4,6.12-1.37,12.26-2.67,18.34-4.2q24.65-6.19,49.3-12.33c8.58-2.11,17.26-3.79,26-5.24,4.18-.69,8.41-1.15,12.79-1.75a7.07,7.07,0,0,1-.29,1c-2.69,5.7-5.79,11.18-8.9,16.65a2.3,2.3,0,0,1-2.34,1.15c-4.4.13-8.8.2-13.19.52-13.22,1-26.37,2.56-39.47,4.66q-25.2,4-50.43,7.93c-4.13.63-8.25,1.48-12.47,1.34a3.13,3.13,0,0,1-2.19.52l-1.19.11a67.93,67.93,0,0,1-7.79.84c-10,1.08-20,1.69-30.07,1.89a215,215,0,0,1-34.11-1.94A155.55,155.55,0,0,1,66,407.29c-.75-.24-1.56-.36-1.94-1.28-.59-1.43-1.29-2.82-1.95-4.23l-.14-.23Zm95-3.59.45-.4.72-.07a2.6,2.6,0,0,1,.56-.22,251.78,251.78,0,0,0,26.59-6q12.33-3.54,24.49-7.57c5.78-1.91,11.56-3.8,17.3-5.8,15.81-5.53,31.73-10.73,47.89-15.14a244,244,0,0,1,24.35-5.32c.75-.13,2.47-1.06,1.85,1.24a139.49,139.49,0,0,1-5.61,16.51,1.92,1.92,0,0,1-1.82,1.29q-11.87,1.25-23.57,3.55c-13.15,2.57-26.1,5.91-39.06,9.26-23.22,6-46.56,11.49-70.37,14.73a274.54,274.54,0,0,1-33,3.2c-11.66.42-23.35.45-35-1a149.37,149.37,0,0,1-29.31-6.57c-2.62-.9-4.4-2.15-5-4.88-.11-.48-.79-.95-.29-1.44s1,.06,1.51.22c16.13,5.43,32.82,7.36,49.74,7.69,6.28.12,12.56-.07,18.84-.39,5.05-.25,10-1.08,15.06-1.45C148.13,399.13,152.6,397.79,157.22,398.09Zm22.84,32.48c-8,.44-16.05.93-24.1.87-16.21-.13-32.44.4-48.63-1.18a206.73,206.73,0,0,1-28.67-4.71c-1.26-.3-2.81-.26-3.69-1.45-1.29-1.76-2.45-3.62-3.9-5.78a208.78,208.78,0,0,0,21.61,4.29,208.89,208.89,0,0,0,21.74,1.8c9.87.26,19.75.28,29.62-.32,3.78-.23,7.58-.13,11.33-.53,2.71-.29,5.4-.21,8.1-.43,4.83-.4,9.68-.72,14.52-1.08,2.33.4,4.52-.58,6.79-.74,9.77-.71,19.48-2,29.21-3.05,8-.87,16.09-1.82,24.14-2.62,10.64-1.05,21.33-1.33,32-1.6a5.72,5.72,0,0,1,3.11.31c-2.69,3.61-5.29,7.06-7.85,10.55a2.06,2.06,0,0,1-1.94.79c-9-.1-18,.38-27,.91q-11.64.69-23.26,1.65C202.18,429.14,191.13,430,180.06,430.57Zm0-11c-6.51.55-13,1.23-19.54,1.63-8.62.53-17.25,1-25.89,1.2a289.91,289.91,0,0,1-33.59-1.06,223.47,223.47,0,0,1-28-4.8c-3.94-.88-5.24-3.43-6.67-6.7,2.49.41,4.58,1.38,6.77,1.94,14.77,3.81,29.87,5,45.05,5.34,11,.25,21.87-.58,32.78-1.26,4.9-.3,9.79-.72,14.65-1.47,4.65-.72,9.35-1.13,14-1.68.8-.12,1.59-.28,2.39-.37,6-.7,11.88-1.78,17.82-2.61,5.2-.73,10.38-1.89,15.59-2.72,9.1-1.46,18.21-2.86,27.35-4.12,5.79-.8,11.61-1.29,17.4-2,3.86-.5,7.76-.71,11.65-1,3.61-.25,7.23-.41,11.21-.63-2.6,4.4-5.22,8.31-7.88,12.19-.44.64-1.06.51-1.64.51-8.39,0-16.78.29-25.14.83-7.21.47-14.4,1.2-21.59,1.85-7.53.67-15,1.57-22.54,2.48C196.22,418.09,188.14,418.77,180.08,419.58Zm3,23.23a3.71,3.71,0,0,1-1.76.42c-3.58.06-7.16.23-10.74.29-6.62.12-13.25,0-19.88-.15q-19.55-.42-39-2.13c-7.52-.66-15-1.44-22.49-2.46-1-.13-2.09.29-2.91-.55A87.65,87.65,0,0,1,77.77,428a1.31,1.31,0,0,1,1.3-.14,202.67,202.67,0,0,0,46.28,5.52c11.6.16,23.22.12,34.82,0,8.11-.1,16.21-.5,24.32-.77,3-.23,6.06-.48,9.09-.7,9.83-.73,19.66-1.32,29.47-2.23,5.58-.51,11.17-.62,16.75-1.09,7.21-.61,14.45-.84,21.7-.86.4,0,1-.29,1.26.52-1.74,2-3.54,4-5.3,6a4.15,4.15,0,0,1-2.6,1.4c-8.87,1.49-17.76,2.84-26.69,3.84-7.53.83-15,1.7-22.6,2.25S190.6,443,183.08,442.81Zm-4.61-52.1c-1.34.4-2.57,1-4,1.36a275.56,275.56,0,0,1-31.68,5.33c-8,.9-16.1,1.55-24.18,1.83-4.65.17-9.32,0-14-.21a183.74,183.74,0,0,1-26.89-3,120.16,120.16,0,0,1-19.87-5.5c-1.73-.64-1.87-2.16-2.53-3.41-.21-.4,0-.82.61-.68a13.68,13.68,0,0,1,1.56.39,133.94,133.94,0,0,0,32.77,6.8,196.49,196.49,0,0,0,24.63.9c8.57-.36,17.11-.75,25.64-1.73,6.89-.79,13.74-1.77,20.54-3.17,5.55-1.14,11-2.77,16.47-4.17,17-5.65,32.93-13.61,49-21.31a445,445,0,0,1,44.47-18.81,246.62,246.62,0,0,1,32.79-9.22c1.54-.31,1.64,0,1.49,1.42-.55,5-1.45,9.89-2.34,14.82-.4,2.19-1.33,3.15-3.53,3.14a20,20,0,0,0-3.41.54c-18.36,3.3-36.1,8.85-53.79,14.63s-35.42,12.24-53.43,17.43C185.43,389.11,182.06,390.36,178.47,390.71Zm-6.67-15c4.7-2,9.45-3.93,14-6.29,11.37-5.88,22.35-12.43,33.28-19.05,16.42-9.95,33.34-18.88,51.31-25.69a223,223,0,0,1,33.36-9.39c1.23-.25,1.5.17,1.61,1.28a93.07,93.07,0,0,1,.36,16c-.07.91-.37,1.28-1.27,1.44-2.2.4-4.38.89-6.55,1.39-18.25,4.18-35.69,10.68-52.87,18-19.14,8.19-37.41,18.3-56.88,25.78a150.6,150.6,0,0,1-16.28,5.52,18.74,18.74,0,0,1-1.89.71,230.69,230.69,0,0,1-49.16,6.89A198.88,198.88,0,0,1,87,391.24a143.74,143.74,0,0,1-29.89-6.74c-2.24-.8-3.88-1.72-4.27-4.18-.06-.37-.53-.75-.2-1.11s.87,0,1.29.13c1.91.7,3.8,1.43,5.7,2.11,13.75,4.85,28.09,6.39,42.5,7.19a118.07,118.07,0,0,0,17.23-.26A159.86,159.86,0,0,0,141.92,385a184.49,184.49,0,0,0,21-6.11Q167.33,377.28,171.8,375.68Zm.95-24.32c11.36-8.8,22.7-17.64,34.09-26.4,6.58-5,13.26-10,19.89-15,5.15-3.86,10.57-7.34,16-10.71a121.11,121.11,0,0,1,24-10.94c9-3.15,18.43-4.85,27.7-7,2.06-.49,2.81,0,3.55,1.88a102,102,0,0,1,6.41,26.13c.16,1.33-.22,1.9-1.58,2.2-27.29,6-52.71,16.83-77,30.5-5.77,3.26-11.42,6.73-17.12,10.13-10,6-19.73,12.4-30.36,17.28a136.54,136.54,0,0,1-15.46,6.44,160.07,160.07,0,0,1-39.66,8.46,199.89,199.89,0,0,1-24.23.86,150,150,0,0,1-24.66-3,129.25,129.25,0,0,1-22.53-6.52c-1.19-.49-2.7-3.06-2.08-3.87.85-1.14,1.9.12,2.87.18a5.6,5.6,0,0,1,1.17.35,137.4,137.4,0,0,0,33.44,5.42A142.57,142.57,0,0,0,114,375.82a139.78,139.78,0,0,0,36.65-11.28A127.7,127.7,0,0,0,172.75,351.36ZM87.43,374.93c-13.14.4-25.62-2.79-37.91-7a2.46,2.46,0,0,1-1.72-1.82c-.25-1-.81-2.2-.11-2.88s1.61.35,2.35.74c11.56,6.12,24,8.65,36.94,8.88a139.54,139.54,0,0,0,22.64-1.6,128.33,128.33,0,0,0,37.22-11c12.37-5.9,23.37-13.87,33.92-22.51,13.92-11.41,27.76-22.91,42.28-33.58,21.36-15.71,45.11-25.8,70.9-31.39.52-.11,1.18-.66,1.52.29.54,1.53,1.83,3.1,1.39,4.54-.32,1.07-2.35.78-3.64,1-.53.11-1.06.23-1.59.33-16.19,3-31.93,7.5-46.37,15.49-20.09,11.12-38.28,25-55.55,40.09a186.92,186.92,0,0,1-35.16,24.64C133.54,370.4,110.91,374.48,87.43,374.93Zm208-106.3a101.31,101.31,0,0,0-4.26-10.95c-4-8.45-8.79-16.49-12.53-25.06-3.79-8.72-5.72-17.77-4.24-27.28.82-5.29,2.9-10,7.46-13.25,3.92-2.8,8.83-2.48,11.83.73,3.53,3.78,3.81,12.32.55,16.31a3.58,3.58,0,0,1-4.88,1c-2.36-1.22-3.44-3.65-3-7a3.38,3.38,0,0,0,2.37,1.52,3.09,3.09,0,0,0,3.69-2.87,4.69,4.69,0,0,0-3.55-5c-2.46-.35-4.68,1-6.16,3.76-2.54,4.78-3.17,10-3.41,15.31-.36,8.07,2.57,15.21,6.33,22.14s7.6,14.21,10.11,21.9C296.66,262.86,297.73,265.74,295.39,268.63Zm-11.92-61.74c1.37,4.74,4.66,6.77,9.24,7,1.19.06.91.62.66,1.28a23,23,0,0,0-1.19,4.08c-1.07,6.11.1,12,1.83,17.8,2.56,8.59,6.57,16.59,10.12,24.78a10.63,10.63,0,0,1,1.34,4c-1.13-.39-2.08-.74-3.05-1.05a5.32,5.32,0,0,0-3-.35c-.8.21-.66-.45-.74-.86-2.13-10.14-6.61-19.25-11.86-28.1S280.76,216.88,283.47,206.89Zm14.75,61.41a134.52,134.52,0,0,1,12.31,46.31c1.47,16.33-1,32.09-5.65,47.68-5.67,18.91-18,40.4-21.32,43,1.55-2.84,3-5.34,4.3-7.9a229.29,229.29,0,0,0,12.7-28.26,152.16,152.16,0,0,0,5.56-18.59,136,136,0,0,0,2.51-19c.49-6.72-.11-13.35-.7-20a114.69,114.69,0,0,0-3-16.66,125.63,125.63,0,0,0-7.43-22C296.66,271.15,296.55,269.78,298.22,268.3Zm.65-55.88c-.47,0-.95,0-1.42,0-1.42,0-2.37-.18-1.07-1.87a11.23,11.23,0,0,0,1.92-4.66,19.19,19.19,0,0,0-1.66-12.44c-.31-.64-1.11-1.58.54-1.58a26,26,0,0,1,8.4,1.2,2.44,2.44,0,0,1,1.5,1.26,21.71,21.71,0,0,1,2.58,10.93c-.16,3.47-1.34,5-4.62,6.11A18,18,0,0,1,298.87,212.42ZM58.66,365.47c-5.35-1.47-6.28-2.4-7.66-7.27A161.68,161.68,0,0,1,47.13,340a77,77,0,0,1-1.3-12.15c1.9.4,3.4,1.49,5.17,1.62,1.31.09,1.57.76,1.61,2a119,119,0,0,0,2.15,18.91A128.75,128.75,0,0,0,58.66,365.47Zm183.48-78.19c0-2.19,0-2.22,1.9-3.19A240.88,240.88,0,0,1,291,267c2.44-.64,2,1.51,2.5,2.53.77,1.51-.88,1.19-1.47,1.33a248.28,248.28,0,0,0-24.12,7c-8.12,2.82-16.12,5.9-23.41,10.57-.58.37-1.08,1.31-1.85.88S242.2,287.93,242.14,287.28ZM50,361.76a5.89,5.89,0,0,1-4.55-5.35c-.75-5.55-1.82-11.05-2.7-16.57-.51-3.2-.83-6.43-1.37-9.62-.29-1.68.9-2.13,1.93-2.25,1.24-.15.79,1.14.85,1.8.32,4,.9,7.91,1.52,11.84A188.33,188.33,0,0,0,50,361.76ZM287.81,200.54c0-.73.28-1.39,1-1.32,1.25.12,1.46,1.27,1.68,2.22a.89.89,0,0,1-1,1C288.34,202.38,288,201.44,287.81,200.54Z"/>
  <path class="cls-6" d="M319.84,330.62c-.95,2.4-.78,5-1.14,7.47-3.84,27.05-13.47,51.72-30.09,73.52a127.69,127.69,0,0,1-25.92,25.31c-2.07,1.52-4.37,1.73-6.66,2.15-23.09,4.22-46.42,6.06-69.85,7-.54,0-1.23-.35-1.62.37l111.11,0h24.17Z"/>
  <path class="cls-2" d="M176.37,446c-2.41.17-4.87-.36-7.25.37C171.53,446.19,174,447,176.37,446Z"/>
  <path class="cls-2" d="M154,446.4a12.47,12.47,0,0,0-6.39,0Z"/>
  <path class="cls-3" d="M178.35,369.42c10.63-4.88,20.36-11.31,30.36-17.28,5.7-3.4,11.35-6.87,17.12-10.13,24.27-13.67,49.69-24.46,77-30.5,1.36-.3,1.74-.87,1.58-2.2A102,102,0,0,0,298,283.18c-.74-1.84-1.49-2.37-3.55-1.88-9.27,2.19-18.67,3.89-27.7,7a121.11,121.11,0,0,0-24,10.94c-5.47,3.37-10.89,6.85-16,10.71-6.63,5-13.31,9.92-19.89,15-11.39,8.76-22.73,17.6-34.09,26.4a45.19,45.19,0,0,1,2,10.74,6.61,6.61,0,0,0,.48,2.55,5.64,5.64,0,0,1,.56,4.23C176.64,369.58,177.82,367.41,178.35,369.42Z"/>
  <path class="cls-3" d="M171.87,384.71a150.6,150.6,0,0,0,16.28-5.52c19.47-7.48,37.74-17.59,56.88-25.78,17.18-7.35,34.62-13.85,52.87-18,2.17-.5,4.35-1,6.55-1.39.9-.16,1.2-.53,1.27-1.44a93.07,93.07,0,0,0-.36-16c-.11-1.11-.38-1.53-1.61-1.28a223,223,0,0,0-33.36,9.39c-18,6.81-34.89,15.74-51.31,25.69-10.93,6.62-21.91,13.17-33.28,19.05-4.55,2.36-9.3,4.26-14,6.29.3.48.72.64.47,1.59-.37,1.42.23,3.09.47,4.65,0,.08.49.18.71.12.55-.13,1.14-.35,1.24.48s-.6.86-1.21,1S172,383.77,171.87,384.71Z"/>
  <path class="cls-3" d="M161,404.12c23.81-3.24,47.15-8.71,70.37-14.73,13-3.35,25.91-6.69,39.06-9.26q11.71-2.29,23.57-3.55a1.92,1.92,0,0,0,1.82-1.29,139.49,139.49,0,0,0,5.61-16.51c.62-2.3-1.1-1.37-1.85-1.24a244,244,0,0,0-24.35,5.32c-16.16,4.41-32.08,9.61-47.89,15.14-5.74,2-11.52,3.89-17.3,5.8q-12.17,4-24.49,7.57a251.78,251.78,0,0,1-26.59,6,2.6,2.6,0,0,0-.56.22c.26.9,1.63.62,1.76,1.75C160.34,401,160.7,402.54,161,404.12Z"/>
  <path class="cls-3" d="M178.47,390.71c3.59-.35,7-1.6,10.39-2.59,18-5.19,35.62-11.62,53.43-17.43s35.43-11.33,53.79-14.63a20,20,0,0,1,3.41-.54c2.2,0,3.13-.95,3.53-3.14.89-4.93,1.79-9.84,2.34-14.82.15-1.43.05-1.73-1.49-1.42a246.62,246.62,0,0,0-32.79,9.22,445,445,0,0,0-44.47,18.81c-16.08,7.7-32,15.66-49,21.31.28,1.53.1,1.95-.79,1.76-.39-.08-.81-.81-1.13-.1s.22,1,.79,1.17C177.63,388.7,178.54,389.3,178.47,390.71Z"/>
  <path class="cls-3" d="M167.15,411.76c4.22.14,8.34-.71,12.47-1.34q25.23-3.85,50.43-7.93c13.1-2.1,26.25-3.7,39.47-4.66,4.39-.32,8.79-.39,13.19-.52a2.3,2.3,0,0,0,2.34-1.15c3.11-5.47,6.21-11,8.9-16.65a7.07,7.07,0,0,0,.29-1c-4.38.6-8.61,1.06-12.79,1.75-8.72,1.45-17.4,3.13-26,5.24q-24.66,6.09-49.3,12.33c-6.08,1.53-12.22,2.83-18.34,4.2-6.57,1.48-13.29,2.29-20,3.39.08.42,1.21.73.29,1.19-1.69.83-1.13,2.2-1,3.44C167.27,410.64,167.52,411.19,167.15,411.76Z"/>
  <path class="cls-2" d="M178.35,369.42c-.53-2-1.71.16-2.59-.54a5.64,5.64,0,0,0-.56-4.23,6.61,6.61,0,0,1-.48-2.55,45.19,45.19,0,0,0-2-10.74,127.7,127.7,0,0,1-22.08,13.18A139.78,139.78,0,0,1,114,375.82a142.57,142.57,0,0,1-26.81,1.91,137.4,137.4,0,0,1-33.44-5.42A5.6,5.6,0,0,0,52.6,372c-1-.06-2-1.32-2.87-.18-.62.81.89,3.38,2.08,3.87a129.25,129.25,0,0,0,22.53,6.52,150,150,0,0,0,24.66,3,199.89,199.89,0,0,0,24.23-.86,160.07,160.07,0,0,0,39.66-8.46A136.54,136.54,0,0,0,178.35,369.42Z"/>
  <path class="cls-2" d="M184.49,432.61c-8.11.27-16.21.67-24.32.77-11.6.14-23.22.18-34.82,0a202.67,202.67,0,0,1-46.28-5.52,1.31,1.31,0,0,0-1.3.14,87.65,87.65,0,0,0,8.52,10.21c.82.84,1.93.42,2.91.55,7.48,1,15,1.8,22.49,2.46q19.49,1.71,39,2.13c6.63.14,13.26.27,19.88.15,3.58-.06,7.16-.23,10.74-.29a3.71,3.71,0,0,0,1.76-.42c.66-.74,1.7-.17,2.26-.57C185.13,438.94,183.69,435.9,184.49,432.61Z"/>
  <path class="cls-3" d="M180.08,419.58c8.06-.81,16.14-1.49,24.18-2.46,7.51-.91,15-1.81,22.54-2.48,7.19-.65,14.38-1.38,21.59-1.85,8.36-.54,16.75-.86,25.14-.83.58,0,1.2.13,1.64-.51,2.66-3.88,5.28-7.79,7.88-12.19-4,.22-7.6.38-11.21.63-3.89.27-7.79.48-11.65,1-5.79.74-11.61,1.23-17.4,2-9.14,1.26-18.25,2.66-27.35,4.12-5.21.83-10.39,2-15.59,2.72-5.94.83-11.85,1.91-17.82,2.61-.8.09-1.59.25-2.39.37.09,1.29-.88,2.62,0,3.87A4,4,0,0,1,180.08,419.58Z"/>
  <path class="cls-3" d="M180.06,430.57c11.07-.57,22.12-1.43,33.17-2.32q11.61-.94,23.26-1.65c9-.53,18-1,27-.91a2.06,2.06,0,0,0,1.94-.79c2.56-3.49,5.16-6.94,7.85-10.55a5.72,5.72,0,0,0-3.11-.31c-10.68.27-21.37.55-32,1.6-8,.8-16.1,1.75-24.14,2.62-9.73,1.05-19.44,2.34-29.21,3.05-2.27.16-4.46,1.14-6.79.74.37.68,1.13.26,1.77.63-.9.55-.88,1.23-.67,2.19C179.52,426.74,180.36,428.57,180.06,430.57Z"/>
  <path class="cls-3" d="M87.43,374.93c23.48-.45,46.11-4.53,67.11-15.68a186.92,186.92,0,0,0,35.16-24.64c17.27-15.06,35.46-29,55.55-40.09,14.44-8,30.18-12.53,46.37-15.49.53-.1,1.06-.22,1.59-.33,1.29-.25,3.32,0,3.64-1,.44-1.44-.85-3-1.39-4.54-.34-.95-1-.4-1.52-.29-25.79,5.59-49.54,15.68-70.9,31.39-14.52,10.67-28.36,22.17-42.28,33.58-10.55,8.64-21.55,16.61-33.92,22.51a128.33,128.33,0,0,1-37.22,11A139.54,139.54,0,0,1,87,372.88C74,372.65,61.6,370.12,50,364c-.74-.39-1.75-1.32-2.35-.74s-.14,1.91.11,2.88A2.46,2.46,0,0,0,49.52,368C61.81,372.14,74.29,375.33,87.43,374.93Z"/>
  <path class="cls-3" d="M184.49,432.61c-.8,3.29.64,6.33.85,9.63-.56.4-1.6-.17-2.26.57,7.52.2,15-.5,22.49-1s15.07-1.42,22.6-2.25c8.93-1,17.82-2.35,26.69-3.84a4.15,4.15,0,0,0,2.6-1.4c1.76-2.05,3.56-4.06,5.3-6-.3-.81-.86-.52-1.26-.52-7.25,0-14.49.25-21.7.86-5.58.47-11.17.58-16.75,1.09-9.81.91-19.64,1.5-29.47,2.23C190.55,432.13,187.52,432.38,184.49,432.61Z"/>
  <path class="cls-2" d="M180.06,430.57c.3-2-.54-3.83-1-5.7-.21-1-.23-1.64.67-2.19-.64-.37-1.4.05-1.77-.63-4.84.36-9.69.68-14.52,1.08-2.7.22-5.39.14-8.1.43-3.75.4-7.55.3-11.33.53-9.87.6-19.75.58-29.62.32a208.89,208.89,0,0,1-21.74-1.8,208.78,208.78,0,0,1-21.61-4.29c1.45,2.16,2.61,4,3.9,5.78.88,1.19,2.43,1.15,3.69,1.45a206.73,206.73,0,0,0,28.67,4.71c16.19,1.58,32.42,1.05,48.63,1.18C164,431.5,172,431,180.06,430.57Z"/>
  <path class="cls-3" d="M264.35,432.13c5.3-3.48,9.7-8,14.1-12.48,16.85-17.25,26.12-38.59,32.87-61.25a126.44,126.44,0,0,0,5.29-41.69A150.66,150.66,0,0,0,310,279.46c-1-3.3-2-6.59-3.07-9.88-.55-1.76-5.31-3.4-6.78-2.33-.9.65-.18,1.36.08,2a175.57,175.57,0,0,1,6.84,18.87c4,13.74,6.14,27.75,5.33,42.08a144.69,144.69,0,0,1-11.89,49.25A159.14,159.14,0,0,1,264,431.67Z"/>
  <path class="cls-2" d="M180.08,419.58a4,4,0,0,0-.43-3c-.89-1.25.08-2.58,0-3.87-4.69.55-9.39,1-14,1.68-4.86.75-9.75,1.17-14.65,1.47-10.91.68-21.83,1.51-32.78,1.26-15.18-.35-30.28-1.53-45-5.34-2.19-.56-4.28-1.53-6.77-1.94,1.43,3.27,2.73,5.82,6.67,6.7a223.47,223.47,0,0,0,28,4.8,289.91,289.91,0,0,0,33.59,1.06c8.64-.19,17.27-.67,25.89-1.2C167.06,420.81,173.57,420.13,180.08,419.58Z"/>
  <path class="cls-2" d="M161,404.12c-.29-1.58-.65-3.15-.84-4.75-.13-1.13-1.5-.85-1.76-1.75l-.72.07-.45.4c-4.62-.3-9.09,1-13.66,1.38-5,.37-10,1.2-15.06,1.45-6.28.32-12.56.51-18.84.39-16.92-.33-33.61-2.26-49.74-7.69-.48-.16-1.05-.67-1.51-.22s.18,1,.29,1.44c.61,2.73,2.39,4,5,4.88A149.37,149.37,0,0,0,93,406.29c11.65,1.48,23.34,1.45,35,1A274.54,274.54,0,0,0,161,404.12Z"/>
  <path class="cls-2" d="M171.87,384.71c.12-.94.86-1.14,1.61-1.24s1.32,0,1.21-1-.69-.61-1.24-.48c-.22.06-.7,0-.71-.12-.24-1.56-.84-3.23-.47-4.65.25-.95-.17-1.11-.47-1.59q-4.47,1.6-8.93,3.23a184.49,184.49,0,0,1-21,6.11,159.86,159.86,0,0,1-22.53,3.36,118.07,118.07,0,0,1-17.23.26c-14.41-.8-28.75-2.34-42.5-7.19-1.9-.68-3.79-1.41-5.7-2.11-.42-.15-.87-.58-1.29-.13s.14.74.2,1.11c.39,2.46,2,3.38,4.27,4.18A143.74,143.74,0,0,0,87,391.24a198.88,198.88,0,0,0,33.79,1.07A230.69,230.69,0,0,0,170,385.42,18.74,18.74,0,0,0,171.87,384.71Z"/>
  <path class="cls-2" d="M167.15,411.76c.37-.57.12-1.12,0-1.71-.15-1.24-.71-2.61,1-3.44.92-.46-.21-.77-.29-1.19-4.54.57-9.07,1.15-13.61,1.69-4.35.52-8.69,1-13,1.49-11.37,1.27-22.79,1.06-34.19.8a143.14,143.14,0,0,1-41.88-7,8.64,8.64,0,0,0-2.93-.72l-.1.1c.66,1.41,1.36,2.8,1.95,4.23.38.92,1.19,1,1.94,1.28a155.55,155.55,0,0,0,25.78,5.89,215,215,0,0,0,34.11,1.94c10.05-.2,20.08-.81,30.07-1.89a67.93,67.93,0,0,0,7.79-.84c.35-.58.74-.65,1.19-.11A3.13,3.13,0,0,0,167.15,411.76Z"/>
  <path class="cls-2" d="M178.47,390.71c.07-1.41-.84-2-2-2.4-.57-.19-1.06-.58-.79-1.17s.74,0,1.13.1c.89.19,1.07-.23.79-1.76-5.49,1.4-10.92,3-16.47,4.17-6.8,1.4-13.65,2.38-20.54,3.17-8.53,1-17.07,1.37-25.64,1.73a196.49,196.49,0,0,1-24.63-.9,133.94,133.94,0,0,1-32.77-6.8,13.68,13.68,0,0,0-1.56-.39c-.6-.14-.82.28-.61.68.66,1.25.8,2.77,2.53,3.41a120.16,120.16,0,0,0,19.87,5.5,183.74,183.74,0,0,0,26.89,3c4.66.18,9.33.38,14,.21,8.08-.28,16.14-.93,24.18-1.83a275.56,275.56,0,0,0,31.68-5.33C175.9,391.74,177.13,391.11,178.47,390.71Z"/>
  <path class="cls-3" d="M295.39,268.63c2.34-2.89,1.27-5.77.32-8.68-2.51-7.69-6.27-14.82-10.11-21.9s-6.69-14.07-6.33-22.14c.24-5.29.87-10.53,3.41-15.31,1.48-2.8,3.7-4.11,6.16-3.76a4.69,4.69,0,0,1,3.55,5,3.09,3.09,0,0,1-3.69,2.87,3.38,3.38,0,0,1-2.37-1.52c-.45,3.33.63,5.76,3,7a3.58,3.58,0,0,0,4.88-1c3.26-4,3-12.53-.55-16.31-3-3.21-7.91-3.53-11.83-.73-4.56,3.24-6.64,8-7.46,13.25-1.48,9.51.45,18.56,4.24,27.28,3.74,8.57,8.55,16.61,12.53,25.06A101.31,101.31,0,0,1,295.39,268.63Z"/>
  <path class="cls-3" d="M166.15,275.81a14.3,14.3,0,0,0-6.49,2.4c1.44,10.44,3,20.87,4.31,31.32,1.25,9.58,2.34,19.18,3.49,28.77.17,1.41.34,2.82.43,4.23.07,1,.34,1.27,1.19.63,1.69-1.25,3.36-2.52,5.07-3.73.86-.61.65-1.43.55-2.21-.85-7.11-1.7-14.21-2.61-21.32-1.59-12.46-3.46-24.89-5.49-37.29C166.44,277.68,166.3,276.74,166.15,275.81Z"/>
  <path class="cls-3" d="M283.47,206.89c-2.71,10-1.92,19.66,3.37,28.6s9.73,18,11.86,28.1c.08.41-.06,1.07.74.86a5.32,5.32,0,0,1,3,.35c1,.31,1.92.66,3.05,1.05a10.63,10.63,0,0,0-1.34-4c-3.55-8.19-7.56-16.19-10.12-24.78-1.73-5.82-2.9-11.69-1.83-17.8a23,23,0,0,1,1.19-4.08c.25-.66.53-1.22-.66-1.28C288.13,213.66,284.84,211.63,283.47,206.89Z"/>
  <path class="cls-2" d="M298.22,268.3c-1.67,1.48-1.56,2.85-.75,4.66a125.63,125.63,0,0,1,7.43,22,114.69,114.69,0,0,1,3,16.66c.59,6.62,1.19,13.25.7,20a136,136,0,0,1-2.51,19,152.16,152.16,0,0,1-5.56,18.59,229.29,229.29,0,0,1-12.7,28.26c-1.32,2.56-2.75,5.06-4.3,7.9,3.3-2.63,15.65-24.12,21.32-43,4.67-15.59,7.12-31.35,5.65-47.68A134.52,134.52,0,0,0,298.22,268.3Z"/>
  <path class="cls-3" d="M298.87,212.42a18,18,0,0,0,6.17-1c3.28-1.13,4.46-2.64,4.62-6.11a21.71,21.71,0,0,0-2.58-10.93,2.44,2.44,0,0,0-1.5-1.26,26,26,0,0,0-8.4-1.2c-1.65,0-.85.94-.54,1.58a19.19,19.19,0,0,1,1.66,12.44,11.23,11.23,0,0,1-1.92,4.66c-1.3,1.69-.35,1.86,1.07,1.87C297.92,212.43,298.4,212.42,298.87,212.42Z"/>
  <path class="cls-3" d="M58.66,365.47a128.75,128.75,0,0,1-3.9-15.14,119,119,0,0,1-2.15-18.91c0-1.21-.3-1.88-1.61-2-1.77-.13-3.27-1.22-5.17-1.62A77,77,0,0,0,47.13,340,161.68,161.68,0,0,0,51,358.2C52.38,363.07,53.31,364,58.66,365.47Z"/>
  <path class="cls-3" d="M242.14,287.28c.06.65-.2,1.6.49,2s1.27-.51,1.85-.88c7.29-4.67,15.29-7.75,23.41-10.57a248.28,248.28,0,0,1,24.12-7c.59-.14,2.24.18,1.47-1.33-.52-1-.06-3.17-2.5-2.53A240.88,240.88,0,0,0,244,284.09C242.11,285.06,242.13,285.09,242.14,287.28Z"/>
  <path class="cls-3" d="M50,361.76a188.33,188.33,0,0,1-4.32-20.15c-.62-3.93-1.2-7.87-1.52-11.84-.06-.66.39-1.95-.85-1.8-1,.12-2.22.57-1.93,2.25.54,3.19.86,6.42,1.37,9.62.88,5.52,2,11,2.7,16.57A5.89,5.89,0,0,0,50,361.76Z"/>
  <path class="cls-7" d="M287.81,200.54c.22.9.53,1.84,1.68,1.92a.89.89,0,0,0,1-1c-.22-.95-.43-2.1-1.68-2.22C288.09,199.15,287.83,199.81,287.81,200.54Z"/>
  <path class="cls-2" d="M282.85,407c.35-.19.7-.38.64-.86,0-.06-.21-.17-.27-.14-.46.2-.3.65-.36,1Z"/>
  <path class="cls-8" d="M165,412.28c-.45-.54-.84-.47-1.19.11Z"/>
  <path class="cls-8" d="M263.59,432.05c-.22.24-.47.58-.17.8s.44-.24.63-.43Z"/>
  <path class="cls-8" d="M157.22,398.09l.45-.4Z"/>
  <path class="cls-2" d="M62.23,401.68l-.24-.13c0,.08.1.15.14.23Z"/>
  <path class="cls-2" d="M282.86,407l-.16.16s.08,0,.1,0a.58.58,0,0,0,.05-.14Z"/>
  <path class="cls-8" d="M264.05,432.42l.3-.29-.33-.46-.43.38Z"/>
</svg>
