<svg xmlns="http://www.w3.org/2000/svg" width="688.78" height="574.48" viewBox="0 0 688.78 574.48"><defs><style>.cls-1{fill:#e0ddd5;}.cls-2{fill:none;stroke:#000;stroke-miterlimit:10;}.cls-3{fill:#fff;}</style></defs><title>map</title><g id="map-svg"><path class="cls-1" d="M662.69,21.28c-1.12-.35-1.42-1.29-1.47-2.48-3.38,4-7.89,5.67-12.33,7.43A3,3,0,0,1,646,26c-2.59-1.76-5.26-1.15-7.91-.27-4.66,1.54-6,.77-7-4.64-2.09,3.55-3.92,2-6.31.46-8-5.23-16.64-7.19-26-4.12-3.19,1.05-5.81,2.57-7.36,5.88s-7.66,3.64-9.94,1a7.89,7.89,0,0,0-8.07-2.68c-3.93.81-7.83,1.75-11.73,2.69s-4.35,4.75-5,7.7c-.68,3.32-1.88,5.76-4.67,7.71a11.35,11.35,0,0,0-4.76,6.57,7.49,7.49,0,0,1-3.16,4.11c-4.42,3.18-8.37,6.88-14.22,8-4.56.84-7.8,5.09-12.36,6.72-2.41.85-4.67,2.32-7.09,3.37-5.2,2.24-8.22,6.77-11,11.39-.79,1.3-1.37,2.81-2.62,3.61-4.54,2.89-7.7,7.49-12.55,10-1.11.56-2.7,1.19-2.17,2.64,1.38,3.74-1.22,5.55-3.28,7.66-2.6,2.67-6,4-9.31,5.46a2.63,2.63,0,0,1-3.15-.54c-.84-1,0-1.91.41-2.76,1.86-3.56,3.9-7,5.61-10.65,1.11-2.38,1.93-4.75-1-7a4.35,4.35,0,0,1-.6-6.13,4.14,4.14,0,0,1,.95-.87c8.65-5.28,16.42-12.34,26-15.47,4.25-1.38,7.13-5,11.71-5.41,1.73-.17,2.58-2.28,1.9-4.28s-2-2.64-4.11-1.79a15.66,15.66,0,0,1-6.29.94c-.87,0-2-.18-2.58.26-7.62,5.55-16.53,1.45-24.65,3.35a66.67,66.67,0,0,1-7.05.79c-5.19.64-7.35-1.43-7.58-6.65-.16-3.5-.52-7-1-10.47-.63-4.39-3.18-7-7.56-6.83-8.18.22-16.23-1-24.31-1.69-4.33-.38-8.54-2.71-11.93-4.93-4.08-2.68-8.18-2.42-12.34-3.19-.86-.16-1.77,0-2.62-.2-1.14-.26-2-1.26-1.22-2.22,3.25-4.22-1.26-6.41-2-9.93-3.85,3.45-1.38,5.38,1.39,7.66-5.4-1.51-7.72,1.76-9.87,5.32a2.88,2.88,0,0,1-2.14,1.41c-3.33.4-5.77,2.23-7.94,4.63-1.76,2-4.15,2.24-6.58,1.93-2.2-.27-4.25-1.31-6.64-.74-1.59.38-1.65-1.59-2.49-2.39-2.43-2.34-3.57-6.75-8.37-5.39-5.11,1.45-10.16,2.93-11.64,9.09-.31,1.3-.64,2.79-1.91,3.58-3.73,2.3-7.41,4.68-11.28,6.73-6.07,3.23-11.35,0-16-3.13-3.83-2.53-6.11.07-8.94,1.12s-3.67,3.9-4.38,6.6a1.25,1.25,0,0,0,.74,1.56c3.09,1,4.1,3.85,5.66,6.25A7.2,7.2,0,0,0,310.86,61a2.64,2.64,0,0,1,2.47,2c.15,1.57-1.45,1.54-2.46,1.66-3,.37-3.26,2.32-2.78,4.65a9.12,9.12,0,0,0,8.38,7.41c1.83.09,4.09.57,3.59-2.63a1,1,0,0,1,.7-1.16c.78-.16,1.11.45,1.35,1,1.42,3.37,4.35,4.39,7.53,5.59,3.65,1.37,7.08,3.52,9.12,7.15A24.12,24.12,0,0,0,345,94.09c1.35,1.06,2.31,2.38,1.9,4.21-.45,2-2.32,2.07-3.83,2.54-2,.6-2.84-.63-3.81-2.14-2.23-3.47-4.73-6.76-7.06-10.17a5,5,0,0,0-4.39-2.46c-4.22.13-7.45-1.89-10.4-4.56-3.29-3-7-3-10.82-1.43a5.89,5.89,0,0,1-2.43.85c-4.14,0-6.05,2.72-4.08,6.44,1.83,3.48,3.8,7.1,8.27,8.09,3.26.72,5.77,3,8.59,4.56a3,3,0,0,1,1.63,2.74,11.52,11.52,0,0,0,1.86,6c1.1,1.69.63,2.72-.49,4a8.59,8.59,0,0,0-1.51,2.13c-1.66,3.69-2.23,3.07-5.44.61-5.74-4.41-7.81-11-11.32-16.66-2.73-4.4-5.84-7.15-11.14-7.63-2.13-.19-4.09-1.84-6.23-2.5-2.49-.78-5.2-2.63-7.49.5-1.35,1.86-1.17,7.37.85,9.14,2.83,2.49,4.5,5.61,6.33,8.75s5.71,4,8.68,5.69c2.27,1.32,4.91,1.9,5.73,4.9.33,1.2,1.89,1.06,2.67,2.24a16.6,16.6,0,0,1-11.85-1.14c-1.71-.78-3.42-2.49-5-2.38-5.58.39-6.85-2.52-8.68-7.24a29.08,29.08,0,0,1-2.28-12.83c.22-3.27-.78-5.27-4-6.24-4.95-1.5-9.33-4.3-14-6.52a10.69,10.69,0,0,1-2.57-2.12c-.63-.61-1-1.81-1.71-1.94-5.61-1.16-7.43-6-10.2-10-.54-.78-1.82-1.19-1.25-2.42s1.71-.88,2.67-.9a11.08,11.08,0,0,0,4.41-.79c2.41-1.07,4.54-2.25,1.84-5.16-.88-1-.6-2.1-.5-3.23A2.37,2.37,0,0,0,246,54.3H246a2.23,2.23,0,0,0-2.81,1.3c-1.32,3.36-3.5,5.4-7.32,5.29a1.57,1.57,0,0,0-1.24.73c-1,3.24-2.65,3.22-5.27,1.48-1.92-1.28-1.88.38-1.75,1.79.17,1.92,1.42,4.43-2.45,4.21-1.38-.08-1.43,1.31-.85,2.26,3.72,6.09,2.75,11.7-.22,18-2.81,6-4,12.82-.6,19.49,1.32,2.55,2.75,4.82,5.41,6a4.43,4.43,0,0,1,3,4.69c-.08,2.59,1.21,4.48,3.31,6,4.25,3,6.94,6.79,7.46,12.35.37,3.9,2.2,7.68,3.52,11.47,1.12,3.22,4.4,4,6.94,5.38a14.16,14.16,0,0,1,5.9,5.55,32.7,32.7,0,0,0,4.3,5.69c4.76,5.4,8,11.7,11,18.17,1,2.17.82,4.3-1.23,5.23-4.6,2.07-8.89,5-14,5.74-.9.14-2.14.45-2.66-.72a2.13,2.13,0,0,1,.37-1.74c1.05-1.39,1.27.51,1.83.54,1.78.07,2.68-1.67,4.08-2.33,3.82-1.78,4.13-4,1.5-7.12-.66-.79-.65-2.12-1-3.17-.84-2.35-2.26-4.3-4.74-5-2.86-.77-5.63-1.32-8-3.51-1.74-1.6-3.75-.86-3.61,1.89.14,2.58-1.39,3-3.24,3.07-2.57.17-4.44,1.13-4.58,3.94-.18,3.41,1.88,6.46,4.49,6.92.25,0,.49,0,.74.06,1.5.54,6.42,8.37,6.53,9.93s-1.39,2-1.55,3.25a2.36,2.36,0,0,0,.71.31c1.81,0,3.49-2.88,5-1.08,1,1.25-1.91,2.12-2.36,3.76-.62,2.31-2.37,3.54-4.58,4.57-3.29,1.53-6.88,2.28-9.85,4.8-3.2,2.71-7.16,1.19-10.23-.57-3.49-2-5.41.7-7.84,1.7-1.1.45,1.73,4.59,3.54,4.06,5.16-1.49,8.64,0,12.56,3.55,1.36,1.23,5.2,2.24,8.55,2.08,2.67-.13,5.86,1.39,8.91,1.91,1.23.22,1.85,1.63,2.23,2.86.21.71.21,1.49.37,2.22,1.15,5.18,2.77,6,7.26,3.56,2.21-1.19,8.68.2,10.13,2.14.76,1,1.18,2.3.17,3-3.1,2.31-1.07,3.92.83,4.87,2.13,1.06.58,2,.24,3.2a17.14,17.14,0,0,1,8.62,1.09,4.49,4.49,0,0,0,3.92-.1c2.44-1.21,3.55.4,3.85,2.47.94,6.37,5.3,10.58,11.54,11.92,8,1.74,15.64,4.66,20.66,11.75,1.44,2,2,4.41-1.12,5.9s-4.42,3.87-3,7.34c2.09,5.08,1.39,10.57,2.23,15.83a18.38,18.38,0,0,0,2.56,6.5,5.77,5.77,0,0,1,.45,6,10.21,10.21,0,0,0-.74,4.4c-.06,2.52-1.28,4.19-3.86,4.11-2.27-.07-4.06-.7-5-3.51s-2.68-5.51-3.82-8.39c-.43-1.09-1.95-2.22-3-2-4.26,1.05-5.38-2.13-6.22-4.79-1.68-5.29-5.88-7.35-10.44-8.84-2.79-.91-2.47-1.91-.94-3.57.67-.74,1.58-1.39,1-2.57s-1.71-1.17-2.9-1.08a12,12,0,0,0-7.58,2.95,11,11,0,0,1-8.57,3.08,14.24,14.24,0,0,0-10.66,3.76,6,6,0,0,1-6,1.36c-3.19-1-3.75,1.06-4.06,3.26-.42,2.89,1.79,3,3.69,2.83a7.88,7.88,0,0,1,6.43,2.46c1.86,1.87,2.18,3.77-.17,5.32-2.17,1.43-2.14,2.72-.06,3.91,1.42.82,1.36,1.63,1,3.06-.79,3.66-.37,7,3.66,8.72a6.53,6.53,0,0,1,2.95,2.26,5.12,5.12,0,0,0,5.9,2.17c1.85-.42,3.42-.35,4.09,2,.61,2.18,3.17,2.2,4.61,3.55,1.2,1.12,2.86,2,2.51,3.87s-2.37,1.94-3.89,2.45c-3.62,1.23-7.48-.39-11.15,1.14-1.72.71-3.37,1.09-3.51,3.22-.08,1.29-1,1.64-1.87,2.06s-1.91.79-1.74,2.1c.13,1,.36,2.14-1.17,2.21-1.22.06-1.64-.87-2.06-1.85-.33-.78-.73-1.87-1.39-2.13-4.84-1.93-3.79-4.13-.58-6.76,1.36-1.11,1.28-2.84-.54-3.11-2.06-.3-3.58-1.79-5.48-2a2.67,2.67,0,0,1-2.47-1.85c-1.23-2.85-3.8-3.68-6.4-3.36-2.89.36-4.85-.15-6.16-2.87-.65-1.35-1.61-2.75-3.51-1.93s-1.76,2.47-1.63,4.18c.68,8.82,4.63,16.46,8.63,24.08,1.75,3.34,3.61,6.61,3.2,10.62-.07.67.18,1.79.64,2,5.47,3,5.22,8.42,6.25,13.42A74.5,74.5,0,0,0,257.5,404c1.33,2.78.82,4.14-2.17,4.56-1.13.16-2.19.75-2,1.84,1,5.26-.44,11.56,6,14.66a3,3,0,0,1,1.66,2.81c-.34,2.46.75,4,2.55,5.41,1.49,1.17,1.53,2.15-.61,2.78-4.16,1.23-6.28.1-7.39-4.23-.6-2.36-1.94-3.78-4.48-3.62-1,.06-2.11.05-2.33-.76-1.09-4-5.11-6.08-6.13-10.05-.25-1-.64-2.54-1.49-2.42-4.27.63-2.37-2.46-2.87-4.24-.72-2.6-.59-6.32-3.08-7.31-3.39-1.34-7.69-1.64-10.9.47-2.95,1.94-3.81,5.86-5.07,9.09-.66,1.71-1.82,3.62-.79,6,.64,1.45-2.71,1.39-2.46,3.6.3,2.7-.42,5.52,1,8.12a4.79,4.79,0,0,1,.27,4c-.59,1.56-1.49,2.39-3,.9a4.23,4.23,0,0,0-1.15-.95c-4.58-1.85-7.16-4-4.35-9.73,1.58-3.22-1.44-7.51-.19-11.4-4.81-4.95-4.77-12.58-9.63-17.51-.7-.71-1.27-1.68-2.41-1.59-4.15.3-4.32-1.61-3.53-5.1,1.31-5.8-1.65-8.17-7.41-6.43-5.25,1.58-6.14,2.9-6.58,8.16-.33,3.88-.63,7.58.46,11.51.88,3.2-2.22,5.28-4.21,7.73-1.06-1.45-2.14-2.74-3-4.15-1.23-2-2.37-3.21-5.28-3-3.8.3-6.69-5.12-5-9.55,1.18-3.11.31-4.82-1.87-6.82-4.78-4.41-6.78-10-6.46-16.5.12-2.44,1.46-4.19,3.22-5.73,6.11-5.35,6.24-7.16,3.9-14.75a38.31,38.31,0,0,0-19-22.81c-4.22-2.3-5.94-4.14-6.17-8.86-.26-5-5.14-6.28-9.07-7.92-4.17-1.75-5.27-4.66-3.28-8.66a2.49,2.49,0,0,1,1.92-1.51c5.71-1.24,9.83-4.29,11.33-10.26,1-3.82,3.92-7,3.52-11.32-.12-1.3,4.83-2.55,6.5-1.75.43.25.85.53,1.26.82,8,4.93,13.15,3.2,16.66-5.67,1.35-3.42,3.31-6,6.91-7.41,4-1.54,11-.34,13.93,2.79a9.25,9.25,0,0,0,4.65,3,4.2,4.2,0,0,1,3,2.06c2,3.88,5.66,5,9.64,5.41a2.69,2.69,0,0,1,.75,0c11.87,5.35,25.9,6.64,34.28,18.57a7.6,7.6,0,0,0,8.76,2.81c2.78-.81,3.1-2.59,1-4.58a12,12,0,0,1-1.14-1c-1.06-1.24-3.68-2.28-2.36-4s3.61-3.35,6.58-2.28c4.27,1.55,8.61,1.73,12.64-.85,1.09-.7,3.08-1.56,2-3s1-4.77-2.74-4.31a2.24,2.24,0,0,1-2.09-1.38,11.34,11.34,0,0,0-1.15-1.44c-3.67,3.4-5.58-2.14-8.76-1.74-1.53.2-3.21-.78-4.53.79-.32.39-1.11.74-1.23.25-.87-3.61-3.74-1.82-5.79-2.29-1.63-.37-3.67-.43-2.59-3.27.75-2-1.36-2.45-2.53-3.1-1.92-1.05-3.62-2.08-4.43-4.32-.33-.9-.41-2.66-1.89-2.41a4.82,4.82,0,0,0-3.45,3.17,6.46,6.46,0,0,0-.09,1.86c-.09,1.19-.47,2.35-1.78,2.56s-2-1.05-2.28-2.08c-.89-3.32-2-6.46-4.8-8.71-1-.84-2.24-2.6-3.33-1.71s-2.37,2.31-1.94,4.19c.76,3.31-.81,3.62-3.71,3.51-3.08-.12-6.28-2.05-9.38.33-1,.75-2.06-.43-3.08-.88-3.17-1.41-6-3.57-9.61-4-2.71-.36-5.1-.92-7.24,1.38a2.55,2.55,0,0,1-3.16.41c-2.63-1.46-4.37-.33-5.46,2-.88,1.87-2.22,1.86-3.73,1.3-4.28-1.6-8.08-.74-11.71,1.86-2.43,1.74-4.45,2-4.68-2a3.11,3.11,0,0,0-2.28-2.69c-3.13-1.32-6.08-2.8-6.17-7a4.11,4.11,0,0,0-2.67-3.65,1.5,1.5,0,0,0,.48,2.07l.1.05c2,1.6,2,4.44.8,5.37-2.89,2.18-5.15,5.32-8.78,6.47-.39.12-1.17-.39-1.33.17-.55,1.93-1.61,2.67-3.22,1.28s-3.5-2.83-2.38-5c2.36-4.6-1.5-8.21-1.54-12.38,0-.8-.59-1-1.31-.67-4.08,2.15-3.43-1.43-3.46-3.21,0-2.37.4-4.65-1-6.89-1.16-1.88-1.61-4.12-4.61-4.09-1.44,0-2.15-1.59-2.53-3a42.33,42.33,0,0,1-1.3-5.1c-.36-2.35-1.08-3.29-3.34-1.55-1.24,1-2.71,2.32-4.3.72s-2.81-3.25-1.84-5.7c.84-2.13,2-4,2.47-6.44s3.71-2.86,6-2.68A9,9,0,0,0,110,209c3.21-1.3,5.36.07,7.08,2.78,1.09,1.71,2,3.58,4.29.62,1.83-2.41,3.29.68,5.62,1.63-2-3.06-2.56-5.69-1.83-8.81.48-2-1.23-4-2.81-5.48-1-1-2.6-.76-2.81.36-.44,2.43-1.87,2.56-3.76,2.49a5.26,5.26,0,0,1-4.67-3.11c-.82-1.77-1.86-2.59-3.39-1.65-2.36,1.44-3.15,0-4-1.68-.45-.95-.28-2.49-2-2.12-1.54.33-.67,1.47-.74,2.37a7.16,7.16,0,0,1-1.12,2.74c-1.19,2-1.14,3.72,1,5.21,1,.67,2.33,1.33,2,2.86-.15.66-1.11.72-1.65.52-1.62-.59-3.49,2.27-5-.46a8.49,8.49,0,0,1-.93-4.72c.24-3.37-1.35-5.63-4-7.6-5.49-4.15-10.09-9.09-12.7-15.62C77.91,177.76,76.3,178,75,178c-5.24-.28-8.86-2.33-9.56-8a4.63,4.63,0,0,0-2-3.08c-.73-.55-1.69-1.64-1.2-2.11,2.14-2.08-.24-4.55.86-6.71.7-1.37-.88-1.14-1.55-1.42-4.72-2-4.81-2.15-3.46-6.89a6,6,0,0,0-3.35-7.36,39.29,39.29,0,0,0-5.22-2.11c-3.68-1-5-3.32-3.88-7.06.47-1.55,1-3.11,1.32-4.69.47-2.13.15-3.93-2.11-5s-3.1-2.85-3.73-5.66c-.89-4-2.18-8-7-10.72-4.67-2.57-9.17-6-13.78-8.92A30.84,30.84,0,0,0,16.48,96a21,21,0,0,1-10.22-9.6c-1.62-3-3.49-5.8-5.19-8.73a5.83,5.83,0,0,1-1-3.93C.26,72.45.6,71.27,2,71.15c1.21-.1,1.83.85,2.1,1.82a34.19,34.19,0,0,0,3.52,7.88c.55.94,1.14,2.19,2.51,1.83,1.08-.28,1.33-1.46,1.45-2.45.29-2.35.58-4.72.66-7.09s-2.41-3-3.7-4.4c-.91-1-3-2,.42-2.61,1.89-.36,1.43-2.58.9-3.82-.77-1.84-2.11-.79-3,.09-1.23,1.28-1.71.94-2.28-.55-1.64-4.28-3-8.47-1.08-13.1.66-1.54.51-3.45.62-5.19s.29-3.59,1.6-4.89c2-2,1.76-4.12,1-6.46-.5-1.54-1.29-3.43,1.09-4,2-.46,2.46,1.21,2.83,2.75a5.08,5.08,0,0,0,.47,1c4.37-2.37,4.79-5.14,1.33-8.33-2.13-2-3.74-4.06-2.51-7.21a3.11,3.11,0,0,0,.1-1.86C8.38,8.89,11.68,4.56,14,0H670.72c-.54,2.27-.7,4.68-2.94,6.19a1.92,1.92,0,0,0-.59,2.65c.71,1.32-.15,2.29-.47,3.46C665.83,15.52,663,17.85,662.69,21.28ZM123.86,38c2.56.44,4.3-.25,3.59-2.84-1.71-6.25-4.6-11.88-10.39-15.36-2.56-1.55-3.81-.71-4.2,2.36s.18,6.32,2.14,8.52c2.51,2.83,2.35,5,.46,7.94-.81,1.24-2,3.39-.3,4.4s3.48-.51,4.93-1.69a2.66,2.66,0,0,0,.73-1.28C121.32,38.4,122.21,37.43,123.86,38ZM101.94,19.48c0-5.51-1-8.32-3.77-11.23-2.43-2.52-4.8-2-6,1.2-2.34,6.2-1.49,12.15,1.08,18,.59,1.34,1.42,2.49,3,2.34a4.27,4.27,0,0,0,3.84-2.63A74.64,74.64,0,0,0,101.94,19.48Zm49.93,220.9a5.45,5.45,0,0,0-5.06,1.84c-.55.68-1.06,2.06.37,1.79,3.6-.68,6.34.62,8.93,2.8a1.25,1.25,0,0,0,1.7.1,1.29,1.29,0,0,0,.4-1.69c-1.43-2.49-2.7-5.22-6.34-4.84Z" transform="translate(-0.04 -0.02)"/><path class="cls-1" d="M688.79,453.25c-6.33,3.09-6.61,3-10.86-3a8.3,8.3,0,0,0-4.64-3.62c-2.89-.75-4.5-3.07-6.33-5.11-.31-.35-.73-1.1-.59-1.29,2.37-3.31-.77-7,.77-10.41.88-2,.13-3.59-2.52-2.69s-4.53,1.93-3.66-2.71c.48-2.62.63-4.64,3.07-6.21,1.8-1.15,2.64-2.82-.38-4-2.09-.81-3.79-2.6-6.09-2.83-1.41-.14-3.69-.36-1.71,2.3,1.3,1.73-.12,2.91-1.08,3.89-1.7,1.72-1.72,5.29-4.81,5.3-3.33,0-2.4-3.63-3.65-5.47-1.87-2.76-3.51-4.66-7.47-4.21-4.76.55-5.88-.92-5.92-5.71,0-1.56-.07-3-1.41-4.07-.54-.42-1.21-1.33-1.77-.15-1.69,3.58-3.61,1.43-5.27.15s-2.82-1.81-4,.55c-1,2-2.88,1.41-4.23.45-1.84-1.31-3.13-.28-4.32.74-1.41,1.21.34,1.91.78,2.75.85,1.63.76,2.39-1.13,3.45-4,2.2-8.5,3.81-10,9.09-.81,2.87-8,6.19-10.74,5.54-2.11-.5-1.83-2.53-2.1-4s.93-2.31,2.27-2.47a25,25,0,0,1,3,.29c1.08,0,2.08-.42,2.16-1.61a1.79,1.79,0,0,0-1.64-1.78c-1.9-.32-4.89.14-4.84-2.29.06-2.59,2.78-4.17,5.09-5.44a15.36,15.36,0,0,1,2.42-.73c-3-1-5.32,0-7.34.65-3.41,1.14-6.62.82-9.94.08-5.7-1.28-7.83-.23-8.84,5.41-.52,2.94-1.81,2.8-3.82,2.23-2.85-.82-5.52-1-8.32.62-2.24,1.29-8.41-.41-10.19-2.31-1-1.07-1.3-3-.4-3.31,3.6-1.35,4.86-6.86,10.36-5.21a6.15,6.15,0,0,0,7-2.9c1-1.91,3.14-1.63,4.7-.81,2.56,1.37,4.62,1,7-.6,2.73-1.9,5.84-.52,8.78-.31,2.46.18,4.91.54,8.15.91-2.62-2-3.19-3.8-1.38-5.83.32-.37.92-.73.47-1.24-1.35-1.49-1.33-2.92.1-4.27a5.92,5.92,0,0,1,5.52-1.72c3.19.72,5.29-.34,6.44-3.45.75-2,3.51-1.81,4.57-3.88-8.06,1.09-15.91,3.19-24,1.63a5.43,5.43,0,0,0-3.28.66A17.57,17.57,0,0,1,571,386.09a2.43,2.43,0,0,0-1.46.14c-5.66,3.35-10.87,1.74-15.94-1.38-1-.61-1.85-.73-2.55.4-.44.71-1.31,1.33-1.83.72-1.61-1.88-1.93-.27-2.48.76-.93,1.73-2,3.41-4.28,2.89-2-.45-2.15-2.23-2.26-3.89a7.34,7.34,0,0,0-1.45-3.42,4.15,4.15,0,0,1-.29-4.32c1.71-3.08,3-6.58,7-7.72,2.16-.62,4.27-2.3,5.79,1.06.4.91,1.78,1.34,2.59,2.11,1.11,1.05,2.06,2.38,3.75.91,2.16-1.88-1.17-1.07-1-2.09.43-2.53,2.25-4.2,3.84-5.89a15.53,15.53,0,0,0,3.52-4.82c-2.59.87-3.21,4.31-6.05,3-1.06-.48-.55-2.31-2.86-2.25-2.15.05-.14-2.35-.23-4-3.08.38-5.18-.93-6-4-.28-1.06-.83-1.51-1.83-.56-1.72,1.62-4.06,1.1-6.08,1.52-3,.6-4.77-1.76-4.2-4.79.53-2.8,2.13-5.72-1.28-8.09-.65-.46-.53-2.4-.36-3.6.5-3.42-1.62-6-2.8-8.8-.79-1.9-3-1.66-4.64-2-2.92-.56-5.15-1.51-4.25-5.35-2.8.61-5,1.18-6.27,3.61-1.13,2.19-3.64,1.2-5.4,2.07-2.94,1.44-2.79-1.47-3.6-2.9-2.1-3.72-4.47-4.59-7.61-2.58-1.79,1.14-3.71,3.11-5.42.46-1.52-2.36-2.29-5.51.53-7.47,4.7-3.26,9.53-6.61,15.8-5.72.5.07,1.21-.08,1.47.19,3.87,4.12,9,2,13.55,2.77,1.64.29,2.74.28,2.23,2.71-.88,4.22,1.31,6,5.36,4.81,6.06-1.77,7.87-5.32,5.4-10.78a3,3,0,0,1,.28-3.17A7.19,7.19,0,0,0,541,302.8c.37-5.68-.41-6.76-6.11-6.66-3.06.05-4.89-1.62-6.74-3.47-4.68-4.71-6.47-5-11.76-1.49-1.52,1-2.26.44-3-.81a11.22,11.22,0,0,1-1.06-4.34c-.32-2.5-.78-4.95-3.53-6.14a2.59,2.59,0,0,1-1.39-1.63c-.37-2.58-2-2.33-3.86-2.05s-3.82.4-3.81,3.07a4.59,4.59,0,0,1-.44,1.82c-.77,1.57-.42,4.43-2.93,4.15-2.33-.25-5.24-.81-6.06-3.65-1.55-5.3-6.59-5.93-10.45-7-3.46-.94-5.57-3.49-8.62-4.72a2,2,0,0,1-.68-2.74,2,2,0,0,1,1.05-.86c2.39-.69,2.36-2.16,2.39-4,0-1.18-.32-2.78,1.53-2.89a3,3,0,0,1,3.33,1.95c.35.93.4,2.83,2,1.56,1.86-1.53,6.53.24,5.59-4.57-.27-1.4-1.52-2.83.42-4,.67-.4.37-.79-.07-1.11s-1.3-.83-1.7-.31c-1.12,1.47-3.51.59-4.35,2.55a1.5,1.5,0,0,1-2.24.7,1.87,1.87,0,0,1-1.17-1.77,1.94,1.94,0,0,1,1.56-1.9c4.07-.68,3.63-2.57,2-5.53a20.84,20.84,0,0,1-1.83-6.84c-.45-2.94-1.08-6.1,2.59-7.76a8.23,8.23,0,0,1,9.9,2.14c3,3.95,4.93,8.58,7.86,12.62,1.13,1.54,2.54,4.41-1,5.91-1.2.5-.53,1.74-.09,2.64.88,1.78,1.78,3.55,2.72,5.41a22,22,0,0,1,.22-3.34c.38-1.78,1.15-3.51,3.13-3.83s2.55,1.29,3.13,2.7c1.05,2.56,3.15,3.12,5.54,2.79a40.32,40.32,0,0,0,6.61-1.42c3.3-1.05,6.36-3,10.11-2,.77.21,1.62-.53,2.3-1.62-3.17-1.24-5.94-1.94-9.13.07-4,2.49-5.64,1.67-6.8-2.84-.48-1.87-1.95-2.5-3.31-3.34s-3-1.57-2.22-3.38c1.32-3-.48-4.18-2.5-5.34-3.44-2-4.09-5.59-4.69-8.87a4.37,4.37,0,0,1,3.29-4.54c2.56-.65,4.75-2.38,7.88-1.38,2.22.71,2.93-1.35,1.92-3.31s-.25-3,1.69-3.54c3-.84,4.92-3.29,8.07-5.1-3.73-1.36-6.44-3.28-10.27-1.46-3.62,1.73-5.48.41-6.47-3.47-1.33-5.22-.66-7.26,3.42-10.36,2.35-1.78,1-6.61-2.87-7.8s-5.14-3.51-5.44-7a2.42,2.42,0,0,0-1.93-2.47c-2.11-.29-2.38-1.74-2.38-3.84-.82,1.47-.62,3.22-2.39,3.05a3.5,3.5,0,0,1-3.08-1.89c-.51-1.19.31-2,1.14-2.86,1.48-1.6-.25-3-.78-4.39s-2-2.87.08-3.72a5,5,0,0,1,6.09,1.42c.83,1.22-.16,4.19,2.4,3.67a8.73,8.73,0,0,0,6.18-4.55c1.73-3.41,3.76-6.31,7.6-8,2.55-1.1,2.59-4.3,1.91-6.59s-2.75-1.51-4.73-1c-5,1.28-10.19.62-15.2,2-5.4,1.49-11.13,1.64-16.16,4.61a14.62,14.62,0,0,1-6.55,1.56c-1.73.1-3.44.63-5.18.77-2.22.19-4.38,3.2-6.17,1.48s-2.52-4.79-3.61-7.3a3.45,3.45,0,0,1,.55-3.9c4.26-4.19,3.05-9.33,3.16-14.47.14-6.89-1.26-13.94,1.48-20.69,1.08-2.69,2.39-3.87,5.64-3.36,3.84.61,5.84-2.47,7-5.58,1.26-3.5,4.36-6.35,3.6-10.63-.24-1.4,1.37-1.93,2.7-2,3.57-.3,5.55-2.5,7.74-5.2a77.15,77.15,0,0,1,12.34-12.36c3.28-2.56,7.79-1.6,11.68-.63,4.42,1.11,8.19,1.53,11.17-3,1.47-2.26,12.11-2.9,14.5-1.4,1,.62,2.17,1.4,1.91,2.57-.69,3.14,1.47,4.3,3.51,5.5,2.26,1.34,4.61,2.54,7,3.68,1.35.65,3,1.51,4.33.88,4.86-2.4,9.8-.5,14.68-.64,3.41-.09,5.36-2.68,7.49-4.6,1.47-1.32-.71-2.26-1.71-2.3-2.71-.12-4.31-1.81-6-3.51-2.82-2.88-1.83-6.52,2.12-7.74,5.49-1.71,10.39-.49,14.69,3.2,1.55,1.33,1.44,2.87,0,4.19a21.55,21.55,0,0,1-2.55,1.57c-1.17.78-3.3,1.24-2.32,3.16.83,1.62,2.6,2.17,4.58,1.51a63,63,0,0,1,24-3.52c6,.37,12,0,17.78,2.4a8.24,8.24,0,0,0,6.55-.16c5-2,9.92-2.15,14.77.77,2,1.21,4.44.31,6.66.54,2.78.3,3.65-1.52,4.59-3.54a3.77,3.77,0,0,1,1.62-1.47c2.73-1.53,2.76-2.51.09-4.28-2-1.31-4-1-6.12-.31-4.16,1.37-10.87-.81-12.85-4.46-.83-1.53-1.28-3.74,1.27-4.69a19.44,19.44,0,0,0,8.3-5.65,4.35,4.35,0,0,1,3.06-1.25c5.23-.52,10.4-1.69,15.7-1.48a12.76,12.76,0,0,0,8.09-2.6,3.25,3.25,0,0,1,4.12-.24v.75c-1,1.47-.76,3.14-.76,4.76V447.76c0,1.62-.15,3.28.76,4.76Z" transform="translate(-0.04 -0.02)"/><path class="cls-1" d="M328.79,522.94a5.57,5.57,0,0,0,4,.76c4.51-.8,5.53,0,5.81,4.5.36,5.73,1.32,6.39,7,4.81a32.45,32.45,0,0,1,8.85-1.51c2.16,0,4.51-.31,6-1.78,3.72-3.59,8-3.06,12.34-2.17a25.56,25.56,0,0,0,12.32-.32,6.21,6.21,0,0,1,7.07,4c.37,1.4.92,2.34,2.39,2.4,5.47.25,10.78,2.57,16.38,1,1.45-.39,3.15-.43,4.15,1,2.31,3.33,5.23,2.76,8.37,1.6,4.46-1.65,8.86-3.6,13.83-2.73,1.33.23,2.92-.06,3.57,1.52.58,1.41-.43,2.31-1.34,3.22-.43.43-1.09,1.29-.94,1.52,2.08,3.39-1.19,6-1.18,9.12,0,1.8-.1,3.64,1.88,4.52s3.5.06,4.91-1.56c2-2.25,4.13-4.18,7.46-4.51,1.49-.15,3-1.3,4.27-2.24,2.79-2,5.76-2.11,8.28-.1,1.85,1.48,2.72.57,3.72-.53,2.16-2.37,4-5,6.5-7.07.9-.73,1.63-1.79,2.84-.82a2.08,2.08,0,0,1,.24,2.93l-.12.13c-2,2.58-2.18,4.92.37,7.28a2,2,0,0,1,.47,2.44c-2.12,3-2.17,6.63-3.33,9.91-1.93,5.48-7.37,5.92-11.28,8.55a1.51,1.51,0,0,1-1.39-.23c-5.36-4.69-11.17-4.54-17.31-1.77a9.39,9.39,0,0,1-4.43.44c-5-.23-10-.82-14.9.91-1.48.52-2.93.11-4.43-.22-5.07-1.1-10.11-1.69-14.38,2.31-3.39,3.17-7.67,1.51-11.53,2a63.75,63.75,0,0,0-9.2,1.63c-5.12,1.38-10.41-.08-15.62.57-1.42.17-2-1-1.69-2.6,1.51-9.06-.37-11.64-9.28-13.07-.62-.1-1.51-.07-1.78-.45-2.67-3.83-7.59-3.56-11-6.1-2.34-1.76-5.1-1-7.66-.73a8.59,8.59,0,0,1-5.43-.85c-2.33-1.33-4.9-.88-7.38-.83a25.41,25.41,0,0,1-7.73-1.58c-4-1.23-8.2-2.72-12.74-2.3-3.79.34-7.51,1.16-11.41,1-3.2-.1-4.39-2.15-6.36-3.76-2.39-2-1.79-3.72-1.56-6.42.63-7.3,3.22-14.28,3.13-21.65a4.67,4.67,0,0,1,.23-1.85c.5-1.15.34-3.14,2.28-2.87,1.63.22,1.35,1.89,1.43,3.09.14,2.11-.17,4.38,2.29,5.51.9.42,1.79,1.06,2.81.38a2.59,2.59,0,0,0,1-2.67c-.21-2.87-.36-5.74-.57-8.61-.15-2,.08-4.15,2.42-4.36s2.58,1.86,2.74,3.71c.12,1.37.44,2.72.63,4.08.62,4.71,4,7,8.69,5.59a2.57,2.57,0,0,1,2.6.51c2.45,1.54,4.7,1.51,6.27-1.38a20.06,20.06,0,0,0,1.49-2.15c.9-2.39,2.29-3.92,5-3.25a7.29,7.29,0,0,1,5.22,7c-.16,2.92-1.75,4.59-4.81,4.63C329.17,522.57,329,522.79,328.79,522.94Z" transform="translate(-0.04 -0.02)"/><path class="cls-1" d="M248.92,213.45c2,3.1,1.14,4.08-1.64,4.27-1.24.09-2.47.45-3.71.53-1,.06-2.5.71-2.9-.8-.32-1.23.82-2.07,1.79-2.61,4.13-2.28,8.85-3.37,12.64-6.38a6.64,6.64,0,0,0,2.12-1.93c1.58-2.82,3.33-5.38,7.31-4.32,1.31.35,2.31-.78,3.4-1.37,4-2.12,6.63,0,9.37,3.35,3,3.62,2.44,8.39,5,11.41,4,4.67,8.19,10.06,15.64,9.28a3.33,3.33,0,0,1,3.37,1.86c3.92,6,10.15,6.18,16.26,6.09,2.47,0,5-.58,7.44-.07s4.68,1.25,3.11,4.78c-1.17,2.65,1.13,4.16,2.91,5.46,2.56,1.87,4.27,3.52,2,7-1.43,2.24-.83,5.41-.06,7.72,1,2.9.92,6.2,3,8.75a4.52,4.52,0,0,1,.92,2c.45,2.63-.06,5.34,2.53,7.5,3.54,3,7.62,4,11.93,4.58,2.45.32,5.83-.76,7.18.51s.63,4.68.94,7.13a9.81,9.81,0,0,1-2.22,7.36c-2.38,3.19-4.29,3.14-6.49-.07-2-2.91-3.1-3-4.47,0-.82,1.78-1.73,1.57-2.86.63-1.57-1.33-2.9-3.13-2.88-5.09,0-3.09-1.56-4.5-4.16-4.79-4-.43-4-3.36-3.6-6a6.55,6.55,0,0,0-2.49-6.58,5.15,5.15,0,0,1-1.33-1.22c-.5-.86,1.26-3.48-1.83-2.23.37-3.73-1.83-5.49-5-6.56a10.76,10.76,0,0,0,.36-1.38c.2-3-1.43-4.48-4.33-3.86-6,1.27-11.78-.14-17.61-1.06a7.08,7.08,0,0,0-3.3-.15c-2.14.65-2.93-1-3.7-2.41s-2.05-2.26-.65-4.29c2.39-3.49.46-7.71-3.79-8.58-2.39-.49-3.92-1.4-4.44-3.83-.37-1.71-1.8-2.69-3-3.8C276,228.89,270.73,223,264.2,218.76,259.92,216,253.79,217,248.92,213.45Z" transform="translate(-0.04 -0.02)"/><path class="cls-1" d="M491.73,201.12c1.56,3.15.33,3.86-2.4,4.53-5,1.21-9.4.27-13.77-2a13.39,13.39,0,0,0-6.82-1.83,3.82,3.82,0,0,1-3.75-2c-1.32-2.13-4.73-4.48.93-5.66,1.58-.33,2.4-2.46,4.16-3.08,1.27-.45,2.76-1,2.91-2.58.09-1-.86-1.51-1.79-1.55-1.7-.08-3.59-.64-4.66,1.41a14.52,14.52,0,0,1-1.23,2.3c-3.52,4.58-8.34,5.15-13.24,1.62a29.68,29.68,0,0,0-2.45-1.7c-4-2.25-4.59-4-3.74-8.67.73-4,3.21-4.48,6.56-4.39,4.62.12,8.73-2,13-3.32a2.2,2.2,0,0,0,1.74-1.8c.32-4,3.1-4.18,6-3.8,2.49.32,5.12-1.12,7.47,1.88,1.84,2.34,4.22,3.57,1.69,6.82-.68.87.69,1.71,1.5,2.25,4.74,3.17,7.79,7.66,9.9,12.82.63,1.55,1.72,2.76,2.44,4.2s2.38,3.23,1.08,4.81S494,201.72,491.73,201.12Z" transform="translate(-0.04 -0.02)"/><path class="cls-1" d="M608.58,438.83c-.79,2.93-1,6-2.38,8.38-2.55,4.51-3,10-7.16,13.8a5.07,5.07,0,0,0-1.18,5.89c.7,1.7-.11,2.72-2.27,2.7a8.14,8.14,0,0,0-7.75,4.92,24.35,24.35,0,0,1-7.33,9.39c-1.32.95-2.6,2.29-4.32.92s-3-2.92-2.26-5.47a58.17,58.17,0,0,0,1.71-8.07,5.58,5.58,0,0,0-2-5.63c-1.8-1.52-3.43-4.05.38-5.83a4.6,4.6,0,0,0,2.33-2.35c3.46-10.22,12.71-13.75,21-18.51,3-1.73,6.47-1.35,9.57-3C608.82,435,607.64,438,608.58,438.83Z" transform="translate(-0.04 -0.02)"/><path class="cls-1" d="M467.15,246.15c-.08,5.82-1.14,11.07,0,16.3.55,2.45.44,4.4-1.33,6.19-.17.17-.48.38-.47.56.39,5.35-4.91,7-6.93,10.8-1.13,2.11-2.7,1.71-4,.6a52.1,52.1,0,0,1-6.53-6.16c-2.79-3.23-2.12-6.37,1.91-7.86,2.9-1.07,3.6-2.87,3.25-5.44-.52-3.72-1.13-7.49-5-9.45-2.6-1.32-3.59-3.87-4.37-6.32-.84-2.63,1.06-4.34,3.27-5.14a30.39,30.39,0,0,1,11-1.5,2.41,2.41,0,0,1,1.75.54c2.93,4.11,7.89,3.52,11.83,5.23,1.79.78,4,1,4.73,3.28a1.39,1.39,0,0,1-.67,1.84l-.11,0c-2.11.55-3.85-.69-5.63-1.5A18.92,18.92,0,0,1,467.15,246.15Z" transform="translate(-0.04 -0.02)"/><path class="cls-1" d="M78,278.65c-1.93,2.91-4,3-6.47,1.71s-2.65-3.05-2.23-5.62c.67-4.12,3.27-7.55,3.6-11.8.17-2.22,2.94-2.41,5-.49.69.66,1.08,2,2.28,1.6a3.32,3.32,0,0,0,2-3c.21-2.23.09-4.49.26-6.73.1-1.47.16-3.22,2.1-3.53s2.9,1.08,3.37,2.79c1,3.6,2.75,7,2.46,10.92a2.72,2.72,0,0,0,1.15,2.66c5.57,3.26,6.5,9.93,10.61,14.3,1.78,1.89,1.17,4.57-.06,6.75s-3.37,1-5.14,1c-2.1-.07-3.76-1.21-5.35-2.5-.93-.76-1.82-1.63-3.34-1.15-5.84,1.84-7.83.75-9.52-5A18.8,18.8,0,0,1,78,278.65Z" transform="translate(-0.04 -0.02)"/><path class="cls-1" d="M402.92,126.23a8.59,8.59,0,0,0-.14,1c0,1.49,2.7,3.55-.23,4.28-2.17.55-5.43,1.33-6.34-2.35-.47-1.91-1.66-1.12-2.62-.92-2.79.6-3.81-.45-3.18-3.18.74-3.14-.16-6.15-.74-9.18-.4-2.08.23-3.47,2.49-3.73a4.87,4.87,0,0,0,3.3-1.59c1.11-1.25,2.2-1.7,3.26.06.33.55.74,1.16,1.44,1,3.36-1,5.78-.19,7.37,3.12.44.92,1.41,0,1.86-.41a16.23,16.23,0,0,0,2.59-3.18,4.46,4.46,0,0,1,5.66-2.25c1.52.48,1.87,5.1.36,6.43-2.29,2-3.07,4.82-4.52,7.27a5,5,0,0,0-.4,5,3.47,3.47,0,0,1-1,4.81,3.29,3.29,0,0,1-.55.3c-1.9,1-3.61-.3-4.84-1.86S404.78,127.4,402.92,126.23Z" transform="translate(-0.04 -0.02)"/><path class="cls-1" d="M29.08,131.11c2.33-.09,4.71.26,6.69-1.64.72-.68,7,2.47,7.16,3.65.37,2.32-1,3.63-3,4.58-5,2.35-5.12,5.14-.59,8.31.83.57,1.9,1,1.51,2.26-.72,2.31.2,4.46.56,6.66.91,5.62,3.32,7.67,9.12,8,1.45.07,4.18,4.82,3.56,6.18-.35.78-1,.64-1.56.41-5.31-2-9.57-5.83-14.57-8.39-1.17-.59-1.34-2.34-1.4-3.74-.17-3.55-1.65-5.92-4.56-8.39a30.33,30.33,0,0,1-9.09-13.08c-.87-2.47.87-4.7,3.56-4.76C27.34,131.1,28.21,131.11,29.08,131.11Z" transform="translate(-0.04 -0.02)"/><path class="cls-1" d="M429.7,377.52c-2,3.11-1.3,7.77-3.67,11.1-1.61,2.27-4.6,3.67-7.48,4.54a1.84,1.84,0,0,1-1.93-.89c-3.43-4.26-4.69-9.51-6.25-14.54-.71-2.27,2.08-3.56,3.68-4.7a39.3,39.3,0,0,0,6.92-5.62c2-2.25,4.06-1.83,5.9.63C428.86,370.71,428.92,373.89,429.7,377.52Z" transform="translate(-0.04 -0.02)"/><path class="cls-1" d="M455.32,94.94c.11.61-.58,1.3.15,2,2.59,2.51,2.3,4-1.19,5-3.24.9-6.66,1.22-9.84,2.28a10.31,10.31,0,0,1-9.53-1c-2.59-1.64-3.47-3.81-1.18-5.79,3-2.57,5.84-5.5,10.24-5.81,1.55-.11,3-1.06,4.55-1.61C452.82,88.46,455.37,90.29,455.32,94.94Z" transform="translate(-0.04 -0.02)"/><path class="cls-1" d="M372.59,50.67a8.76,8.76,0,0,1-7.7,8.62,2.59,2.59,0,0,1-2.31-1,10.68,10.68,0,0,0-5.68-3.41c-1.92-.39-2.36-1.92-2-3.79a15,15,0,0,1,6.85-10.31c2.9-1.91,9.64.92,10.33,4.54C372.37,47.11,373.29,49,372.59,50.67Z" transform="translate(-0.04 -0.02)"/><path class="cls-1" d="M366.2,299.2c-.05-2.69,2.23-3.63,4.22-4.36,2.76-1,4.22,1.8,4.62,3.3,1,3.64,3.34,4.23,6.38,4.55,1.86.2,3.58.9,2.83,3.38-1,3.24,1.55,5.69,1.92,8.67.21,1.63-.52,6.25-2.11,6.89-1.35.54-1.79-.61-2.17-1.48-2.39-5.52-7.48-9-10.78-13.86C369.58,304,365.73,303.26,366.2,299.2Z" transform="translate(-0.04 -0.02)"/><path class="cls-1" d="M466.19,326.4c2.53,1.29,5.37-1,8.2-3.4,1.54-1.32,3.62-1.06,5.42-1.2,2.09-.17,1.58,1.65,1,2.67-2.86,5.2-6.56,9.58-12.8,10.59a9.39,9.39,0,0,0-5.68,2.52,4.68,4.68,0,0,1-1.49,1.12c-2.24.92-4.93,1.9-6.74.16-2-1.95-.17-4.31,1.18-6C457.77,329.77,459.23,325.12,466.19,326.4Z" transform="translate(-0.04 -0.02)"/><path class="cls-1" d="M84.93,241.09c-.69-8.21,1-14.54,4.82-20.35,1-1.56,2.29-2.79,4.32-2.12,1.85.61,1.75,2.39,2.24,3.95,1.42,4.48-1.39,8.72-.42,13.23.4,1.82-4.46,4.62-6.13,3.43C87.62,237.71,86.61,238.64,84.93,241.09Z" transform="translate(-0.04 -0.02)"/><path class="cls-1" d="M528.42,406.65c-3.39-.23-6.09.54-6,4.94,0,.81-.12,2-1,2.23-1.17.26-1.62-1-2.1-1.79-1.63-2.68-.81-5.17,2.22-6.21a6.72,6.72,0,0,0,3.53-2.6c3.89-5.62,9.55-8.21,16-9.55,2.53-.52,4.28,1.19,6.25,2.07,1.22.56.63,2.11-.42,2.77a13.78,13.78,0,0,1-3.45,1.39c-3.62,1.07-7.21,2.08-9.62,5.38C532.53,407,530.45,406.68,528.42,406.65Z" transform="translate(-0.04 -0.02)"/><path class="cls-1" d="M388.71,322.33c3.24-.38,5,3.48,8.3,2.94.91-.15,1.92.42,2.89.63,6,1.27,7.65,5.54,4.09,10.56-1.3,1.84-3.1,2-5,1.09-5.23-2.59-8.81-7.18-13-11a2.83,2.83,0,0,1-.66-3.46C386.12,321.56,387.63,323,388.71,322.33Z" transform="translate(-0.04 -0.02)"/><path class="cls-1" d="M245.15,455.47c1.3-2.58.36-5.56-.64-8.57-.51-1.57.33-2.93,1.24-4.17,1.1-1.51,2.54-1.64,3.11.15,1.17,3.65,4.06,5.56,6.75,7.8,1.93,1.6,3.72,3.33.12,5.39-1.7,1-1.46,3.09-1.16,4.84.33,1.95-.25,2.46-2.22,2C247.89,462,245.2,459.51,245.15,455.47Z" transform="translate(-0.04 -0.02)"/><path class="cls-1" d="M348.15,326.31c.05,2.49-5.34,10.65-7.73,11.64-1.28.53-2.46.54-3.17-.94-1.75-3.62.29-11.68,3.48-14.22a4.32,4.32,0,0,1,4.91-.38A4.41,4.41,0,0,1,348.15,326.31Z" transform="translate(-0.04 -0.02)"/><path class="cls-1" d="M563.54,60.88c-2.1-.38-4.58-.65-4.48-3.75.09-2.71.09-5.34,4.08-5.92,3.58-.52,6.87-.7,10.13,1,2.36,1.21,2.75,2.75.78,4.67C572.56,58.31,565.81,60.91,563.54,60.88Z" transform="translate(-0.04 -0.02)"/><path class="cls-1" d="M402.59,373.16c1.16.46,3.68-.25,3.58.85-.25,3,.82,6.31-1.37,8.92-1.57,1.86-3.13,4.21-6.08,3.48a5,5,0,0,1-4.13-4.28C394.08,378.44,399,372.83,402.59,373.16Z" transform="translate(-0.04 -0.02)"/><path class="cls-1" d="M426.53,65.36a20.49,20.49,0,0,1,3.38.79c2.32.89,4.81,1.76,5.1,4.81a3.5,3.5,0,0,1-2.51,3.73c-2.66,1.06-5.34,2.49-7.89-.26a16.57,16.57,0,0,0-1.45-1.18c-1.53-1.35-4.34-2.43-3.54-4.69C420.47,66.15,423.29,65.47,426.53,65.36Z" transform="translate(-0.04 -0.02)"/><path class="cls-1" d="M350.43,411.36c-.22-1.34-1.18-1.59-1.82-2.15a2,2,0,0,1-.78-2.31c.61-1.27,1.46-.23,2.23-.1a5.63,5.63,0,0,0,2.2.16c1.54-.4,3.27-2.17,3.84,1.09.49,2.73,1.72,5.76-2.25,6.72a100.5,100.5,0,0,1-10.36,1.62c-1.41.2-2.18-.45-2-1.94a22.51,22.51,0,0,1,.57-2.56c.39-1.35-.41-3.4,1.56-3.82,1.62-.35,2.16,1.35,2.95,2.46C347.53,411.81,348.82,412.05,350.43,411.36Z" transform="translate(-0.04 -0.02)"/><path class="cls-1" d="M459.37,393.43c-.18,1-1,1.07-1.68,1.3a14.52,14.52,0,0,0-7.81,6.18c-1.84,2.85-4.67,4.06-7.74,4.86-1.13.3-2.48.09-2.81-1.19s1-1.65,1.84-2c5.15-2.24,9-6.12,12.73-10.11a2.74,2.74,0,0,1,3.31-.94A3.48,3.48,0,0,1,459.37,393.43Z" transform="translate(-0.04 -0.02)"/><path class="cls-1" d="M92.38,249.39c.35,3.2,3.43,5.55,1.74,9-.27.53.26,1.45.91,1.34,3.63-.63,2.41,2.2,2.81,3.84.28,1.12.5,2.33-1,2.8s-2.38-.28-2.94-1.58c-1.13-2.63-2.19-5.29-3.41-7.88C89.18,254,88.94,251.48,92.38,249.39Z" transform="translate(-0.04 -0.02)"/><path class="cls-1" d="M287.93,298.57c.09,2.4-3.69,6.51-5.75,6.52a2.9,2.9,0,0,1-2.95-2.43c-.36-1.64.9-2,2.23-2.36,2.2-.56,2.17-.63.84-2.41-1.08-1.44.36-2,1.08-2.67,1.15-1.06,2.6-1.33,3.55.15A11.24,11.24,0,0,1,287.93,298.57Z" transform="translate(-0.04 -0.02)"/><path class="cls-1" d="M289.18,316c-.11,2.49-3.88,7.58-5,6.91-2.08-1.22-3.7-3.83-3.62-5.74.14-3.51,3.64-2.32,5.92-2.49C287.61,314.56,289.09,314.37,289.18,316Z" transform="translate(-0.04 -0.02)"/></g><g id="path"><path class="cls-2" d="M256.33,297.92s27.28-10.56,23.49-32.94" transform="translate(-0.04 -0.02)"/><path class="cls-2" d="M188,332.08s4.84-20.66,34.29-23.88" transform="translate(-0.04 -0.02)"/><path class="cls-2" d="M289.12,241.91s70.8-106.71,188-99.56" transform="translate(-0.04 -0.02)"/></g><g id="mykene"><ellipse class="cls-3" cx="239.58" cy="304.67" rx="17.86" ry="17.61"/><path d="M239.62,322.51a18.12,18.12,0,0,1-12.78-5.22,17.64,17.64,0,0,1,0-25.19,18.24,18.24,0,0,1,25.55,0,17.64,17.64,0,0,1,0,25.19A18.09,18.09,0,0,1,239.62,322.51Zm0-35.23a17.67,17.67,0,0,0-12.49,5.1,17.24,17.24,0,0,0,0,24.62,17.83,17.83,0,0,0,25,0,17.24,17.24,0,0,0,0-24.62A17.65,17.65,0,0,0,239.62,287.28Z" transform="translate(-0.04 -0.02)"/><path class="cls-3" d="M245.27,316.25H234c0-.5,1.61-.93,3.84-1.08h-.32a.51.51,0,1,1,0-1h.36c-3-1.92-5.22-8.28-5.22-12.47,0-3.55,1.59-4.57,3.91-4.87h-2.19a1.24,1.24,0,1,1,0-2.48h10.55a1.24,1.24,0,1,1,0,2.48h-2.18c2.31.3,3.91,1.32,3.91,4.87,0,4.19-2.22,10.56-5.23,12.47h.37a.51.51,0,1,1,0,1h-.32C243.67,315.32,245.27,315.75,245.27,316.25Z" transform="translate(-0.04 -0.02)"/><path d="M245.35,316.33H233.88v-.08c0-.59,1.58-.94,3.26-1.11a.59.59,0,0,1-.25-.48.58.58,0,0,1,.59-.58h.1a11.9,11.9,0,0,1-3.55-5.27,20.47,20.47,0,0,1-1.49-7.12,5.27,5.27,0,0,1,1.1-3.71,3.94,3.94,0,0,1,2-1.08h-1.3a1.32,1.32,0,1,1,0-2.64h10.55a1.32,1.32,0,1,1,0,2.64h-1.28c1.64.4,3.09,1.47,3.09,4.79a20.7,20.7,0,0,1-1.49,7.12,12,12,0,0,1-3.55,5.27h.1a.58.58,0,0,1,.59.58.59.59,0,0,1-.25.48c1.67.17,3.25.52,3.25,1.11Zm-11.29-.16h11.11c-.17-.36-1.45-.77-3.74-.92v-.16h.32a.43.43,0,1,0,0-.85h-.64l.23-.15c1.37-.87,2.69-2.77,3.71-5.34a20.59,20.59,0,0,0,1.48-7.06c0-3.05-1.12-4.44-3.85-4.79l0-.16h2.18a1.16,1.16,0,1,0,0-2.32H234.34a1.16,1.16,0,1,0,0,2.32h2.19v.16c-2.73.35-3.84,1.74-3.84,4.79a20.36,20.36,0,0,0,1.48,7.06c1,2.57,2.33,4.47,3.71,5.34l.23.15h-.64a.43.43,0,1,0,0,.85h.32v.16C235.51,315.4,234.23,315.81,234.06,316.17Z" transform="translate(-0.04 -0.02)"/><path d="M232.7,302.79l0,0a.09.09,0,0,1,0-.11l1.21-1.64a.07.07,0,0,1,.11,0,.08.08,0,0,1,0,.11l-1.2,1.64A.1.1,0,0,1,232.7,302.79Z" transform="translate(-0.04 -0.02)"/><path d="M235.1,302.79a.08.08,0,0,1-.06,0l-1.2-1.64A.08.08,0,1,1,234,301l1.2,1.64a.07.07,0,0,1,0,.11Z" transform="translate(-0.04 -0.02)"/><path d="M235.11,302.79l-.05,0a.07.07,0,0,1,0-.11l1.2-1.64a.08.08,0,0,1,.13.09l-1.2,1.64A.08.08,0,0,1,235.11,302.79Z" transform="translate(-0.04 -0.02)"/><path d="M237.51,302.79a.1.1,0,0,1-.07,0l-1.2-1.64a.08.08,0,0,1,0-.11.07.07,0,0,1,.11,0l1.21,1.64a.09.09,0,0,1,0,.11Z" transform="translate(-0.04 -0.02)"/><path d="M237.51,302.79l0,0a.08.08,0,0,1,0-.11l1.2-1.64a.07.07,0,0,1,.11,0,.07.07,0,0,1,0,.11l-1.2,1.64A.1.1,0,0,1,237.51,302.79Z" transform="translate(-0.04 -0.02)"/><path d="M239.92,302.79a.1.1,0,0,1-.07,0l-1.2-1.64a.08.08,0,0,1,.13-.09l1.2,1.64a.07.07,0,0,1,0,.11Z" transform="translate(-0.04 -0.02)"/><path d="M239.93,302.79l-.05,0a.08.08,0,0,1,0-.11l1.2-1.64a.08.08,0,0,1,.12,0,.08.08,0,0,1,0,.11l-1.2,1.64A.13.13,0,0,1,239.93,302.79Z" transform="translate(-0.04 -0.02)"/><path d="M242.33,302.79a.08.08,0,0,1-.06,0l-1.2-1.64a.08.08,0,0,1,0-.11.08.08,0,0,1,.12,0l1.2,1.64a.07.07,0,0,1,0,.11Z" transform="translate(-0.04 -0.02)"/><path d="M242.35,302.79l0,0a.08.08,0,0,1,0-.11l1.2-1.64a.08.08,0,0,1,.12,0,.08.08,0,0,1,0,.11l-1.2,1.64A.13.13,0,0,1,242.35,302.79Z" transform="translate(-0.04 -0.02)"/><path d="M244.75,302.79a.08.08,0,0,1-.06,0l-1.2-1.64a.08.08,0,0,1,0-.11.08.08,0,0,1,.12,0l1.2,1.64a.07.07,0,0,1,0,.11Z" transform="translate(-0.04 -0.02)"/><path d="M244.74,302.79l0,0a.07.07,0,0,1,0-.11l1.2-1.64a.08.08,0,1,1,.13.09l-1.2,1.64A.1.1,0,0,1,244.74,302.79Z" transform="translate(-0.04 -0.02)"/><path d="M246.61,302.05a.07.07,0,0,1-.06,0l-.67-.91a.07.07,0,0,1,0-.11.07.07,0,0,1,.11,0l.67.91a.08.08,0,0,1,0,.11Z" transform="translate(-0.04 -0.02)"/><path d="M246,301.15h-12a.09.09,0,0,1-.08-.09.09.09,0,0,1,.08-.08h12a.09.09,0,0,1,.08.08A.09.09,0,0,1,246,301.15Z" transform="translate(-0.04 -0.02)"/><path d="M246.58,302.79H232.7a.09.09,0,0,1-.08-.08.08.08,0,0,1,.08-.08h13.88a.07.07,0,0,1,.08.08A.08.08,0,0,1,246.58,302.79Z" transform="translate(-0.04 -0.02)"/><path d="M233.9,301.15h-1.2a.09.09,0,0,1-.08-.09.09.09,0,0,1,.08-.08h1.2a.08.08,0,0,1,.08.08A.08.08,0,0,1,233.9,301.15Z" transform="translate(-0.04 -0.02)"/><path d="M246.58,301.15H246a.09.09,0,0,1-.09-.09A.09.09,0,0,1,246,301h.63a.08.08,0,0,1,.08.08A.08.08,0,0,1,246.58,301.15Z" transform="translate(-0.04 -0.02)"/><path d="M233.34,306.59l0,0a.07.07,0,0,1,0-.11l.54-.74a.08.08,0,0,1,.11,0,.07.07,0,0,1,0,.11l-.54.74A.07.07,0,0,1,233.34,306.59Z" transform="translate(-0.04 -0.02)"/><path d="M235.09,307.49a.09.09,0,0,1-.07,0l-1.2-1.65a.07.07,0,0,1,0-.11s.09,0,.11,0l1.21,1.64a.09.09,0,0,1,0,.11Z" transform="translate(-0.04 -0.02)"/><path d="M235.09,307.49l-.05,0a.09.09,0,0,1,0-.11l1.21-1.64s.07,0,.11,0a.08.08,0,0,1,0,.11l-1.2,1.65A.09.09,0,0,1,235.09,307.49Z" transform="translate(-0.04 -0.02)"/><path d="M237.49,307.49a.07.07,0,0,1-.06,0l-1.2-1.65a.07.07,0,0,1,0-.11.08.08,0,0,1,.11,0l1.2,1.64a.07.07,0,0,1,0,.11Z" transform="translate(-0.04 -0.02)"/><path d="M237.5,307.49l-.05,0a.07.07,0,0,1,0-.11l1.2-1.64a.09.09,0,0,1,.12,0,.08.08,0,0,1,0,.11l-1.2,1.65A.07.07,0,0,1,237.5,307.49Z" transform="translate(-0.04 -0.02)"/><path d="M239.9,307.49a.11.11,0,0,1-.07,0l-1.2-1.65a.08.08,0,0,1,0-.11s.09,0,.11,0l1.21,1.64a.09.09,0,0,1,0,.11Z" transform="translate(-0.04 -0.02)"/><path d="M239.91,307.49l0,0a.07.07,0,0,1,0-.11l1.2-1.64a.08.08,0,0,1,.11,0,.07.07,0,0,1,0,.11l-1.2,1.65A.09.09,0,0,1,239.91,307.49Z" transform="translate(-0.04 -0.02)"/><path d="M242.32,307.49a.09.09,0,0,1-.07,0l-1.2-1.65a.07.07,0,0,1,0-.11s.09,0,.11,0l1.2,1.64a.08.08,0,0,1,0,.11Z" transform="translate(-0.04 -0.02)"/><path d="M242.33,307.49l0,0a.07.07,0,0,1,0-.11l1.2-1.64a.08.08,0,0,1,.11,0,.07.07,0,0,1,0,.11l-1.2,1.65A.09.09,0,0,1,242.33,307.49Z" transform="translate(-0.04 -0.02)"/><path d="M244.74,307.49a.09.09,0,0,1-.07,0l-1.2-1.65a.07.07,0,0,1,0-.11s.09,0,.11,0l1.2,1.64a.08.08,0,0,1,0,.11Z" transform="translate(-0.04 -0.02)"/><path d="M244.73,307.49l0,0s0-.07,0-.11l1.2-1.64a.09.09,0,0,1,.12,0,.09.09,0,0,1,0,.11l-1.21,1.65A.07.07,0,0,1,244.73,307.49Z" transform="translate(-0.04 -0.02)"/><path d="M245.93,305.85h-12a.09.09,0,0,1-.09-.08.08.08,0,0,1,.09-.08h12a.07.07,0,0,1,.08.08A.08.08,0,0,1,245.93,305.85Z" transform="translate(-0.04 -0.02)"/><path d="M233.61,307.57a.09.09,0,0,1-.08-.08.08.08,0,0,1,.08-.08l12,0h0a.07.07,0,0,1,.08.08.08.08,0,0,1-.08.08l-12,0Z" transform="translate(-0.04 -0.02)"/><path d="M233.89,305.85h-.74a.09.09,0,0,1-.08-.08.08.08,0,0,1,.08-.08h.74a.08.08,0,0,1,.08.08A.09.09,0,0,1,233.89,305.85Z" transform="translate(-0.04 -0.02)"/><path d="M210.7,335.44h-.2l-3.36-7.34v5.38a6,6,0,0,0,.05.83,1.21,1.21,0,0,0,.19.51.77.77,0,0,0,.39.27,2.56,2.56,0,0,0,.63.11v.24h-3.14v-.24a4,4,0,0,0,.67-.11.7.7,0,0,0,.38-.27,1.09,1.09,0,0,0,.18-.51,4.77,4.77,0,0,0,0-.83v-5.43a3.2,3.2,0,0,0,0-.59.69.69,0,0,0-.18-.35.84.84,0,0,0-.38-.18,6,6,0,0,0-.65-.08v-.27h2.65l3.08,6.77,3-6.77h2.65v.27a3.5,3.5,0,0,0-.6.09.89.89,0,0,0-.35.18.76.76,0,0,0-.17.36,4.1,4.1,0,0,0,0,.57V334a3,3,0,0,0,.05.58.72.72,0,0,0,.17.35.78.78,0,0,0,.35.19,3.67,3.67,0,0,0,.59.08v.24h-3.75v-.24a4.08,4.08,0,0,0,.64-.08.71.71,0,0,0,.37-.21.77.77,0,0,0,.17-.4,4.06,4.06,0,0,0,0-.67v-6.06Z" transform="translate(-0.04 -0.02)"/><path d="M226.42,326.85a1.71,1.71,0,0,0-.48.09,1.1,1.1,0,0,0-.41.24,2.68,2.68,0,0,0-.43.45c-.15.2-.33.44-.54.74l-2,3V334a3.32,3.32,0,0,0,0,.61.63.63,0,0,0,.19.35.81.81,0,0,0,.42.18,5.74,5.74,0,0,0,.72.06v.24h-4.09v-.24a5.21,5.21,0,0,0,.72-.08.75.75,0,0,0,.41-.19.77.77,0,0,0,.17-.4,4.25,4.25,0,0,0,0-.69v-2.32L219.47,329l-.82-1.13a4.3,4.3,0,0,0-.53-.63,1.11,1.11,0,0,0-.41-.27,1.25,1.25,0,0,0-.41-.07v-.27H221v.27h-.33c-.42,0-.62.15-.62.38a1.16,1.16,0,0,0,.23.61l2,3,1.91-3a.85.85,0,0,0,.19-.49.36.36,0,0,0-.2-.34,1.92,1.92,0,0,0-.73-.1v-.27h2.95Z" transform="translate(-0.04 -0.02)"/><path d="M234.65,329.42q-.09-.33-.18-.57c-.07-.16-.13-.3-.2-.43a1.74,1.74,0,0,0-.22-.35,4,4,0,0,0-.29-.31,2.51,2.51,0,0,0-.9-.62,2.85,2.85,0,0,0-1.09-.2,3,3,0,0,0-1.32.28,2.77,2.77,0,0,0-1,.8,3.74,3.74,0,0,0-.64,1.26,5.6,5.6,0,0,0-.23,1.64,6,6,0,0,0,.32,2.05,3.1,3.1,0,0,0,.9,1.37,3.27,3.27,0,0,0,2.1.71,3.72,3.72,0,0,0,1.54-.32,5.59,5.59,0,0,0,1.45-1l.23.23a4.08,4.08,0,0,1-1.55,1.26,5,5,0,0,1-2.09.44,4.83,4.83,0,0,1-1.82-.33,4,4,0,0,1-2.31-2.34,5,5,0,0,1-.32-1.85,5.33,5.33,0,0,1,.39-2.09,4.08,4.08,0,0,1,1.18-1.57,4.71,4.71,0,0,1,1.37-.77,4.57,4.57,0,0,1,1.53-.27,6.08,6.08,0,0,1,2,.33,1.6,1.6,0,0,0,.53.11.5.5,0,0,0,.34-.11.63.63,0,0,0,.21-.33h.28l.13,3Z" transform="translate(-0.04 -0.02)"/><path d="M243,335.44h-7.22v-.24a3.81,3.81,0,0,0,.6-.08.78.78,0,0,0,.35-.19.72.72,0,0,0,.17-.35,3.09,3.09,0,0,0,0-.58v-5.95a3,3,0,0,0,0-.57.61.61,0,0,0-.17-.36.77.77,0,0,0-.35-.18,3.67,3.67,0,0,0-.6-.09v-.27h7.11l0,1.93h-.32a3.76,3.76,0,0,0-.21-.74,1,1,0,0,0-.33-.42,1.32,1.32,0,0,0-.58-.2,7.33,7.33,0,0,0-.92,0h-1.8a.59.59,0,0,0-.36.08.55.55,0,0,0-.09.38v3h2.05a4.06,4.06,0,0,0,.67,0,1,1,0,0,0,.42-.19.89.89,0,0,0,.24-.38,5.91,5.91,0,0,0,.15-.65h.32v3.1h-.32a6.45,6.45,0,0,0-.15-.67.84.84,0,0,0-.24-.39.78.78,0,0,0-.41-.18,3.94,3.94,0,0,0-.68-.05h-2.05v3.31a1,1,0,0,0,0,.29.22.22,0,0,0,.08.14,1.35,1.35,0,0,0,.45.1,7,7,0,0,0,.85,0h.38a8.24,8.24,0,0,0,1.2-.07,2.25,2.25,0,0,0,.83-.27,1.92,1.92,0,0,0,.6-.54,4.67,4.67,0,0,0,.51-.89h.38Z" transform="translate(-0.04 -0.02)"/><path d="M251.71,335.6l-5.92-7.36v5.24a6,6,0,0,0,.05.83,1.21,1.21,0,0,0,.19.51.77.77,0,0,0,.39.27,2.47,2.47,0,0,0,.63.11v.24h-3.14v-.24a3.73,3.73,0,0,0,.66-.11.69.69,0,0,0,.39-.27,1.09,1.09,0,0,0,.18-.51,6,6,0,0,0,.05-.83v-5.89l-.34-.38a1.08,1.08,0,0,0-.28-.22,1,1,0,0,0-.29-.11,2.05,2.05,0,0,0-.37,0v-.27h2.29l5.14,6.49v-4.52c0-.81-.13-1.31-.38-1.5a1.4,1.4,0,0,0-.34-.13,4,4,0,0,0-.56-.07v-.27h3.13v.27a2.48,2.48,0,0,0-.55.09,1.12,1.12,0,0,0-.31.15c-.27.17-.4.66-.4,1.46v7.05Z" transform="translate(-0.04 -0.02)"/><path d="M262.87,335.44h-3.41v-.24h.3l.19,0a.4.4,0,0,0,.13,0l.12-.05a.54.54,0,0,0,.15-.15.35.35,0,0,0,0-.18,2.51,2.51,0,0,0-.26-.91l-.56-1.28h-3.49l-.62,1.56a2.58,2.58,0,0,0-.08.26,1.24,1.24,0,0,0,0,.27.47.47,0,0,0,.21.41,1.38,1.38,0,0,0,.71.14v.24h-2.66v-.24a1.65,1.65,0,0,0,.42-.08,1,1,0,0,0,.35-.3,3.63,3.63,0,0,0,.38-.66c.14-.28.31-.67.52-1.16l2.78-6.57h.26l3.34,7.6c.11.25.2.45.28.59a1.51,1.51,0,0,0,.26.35.68.68,0,0,0,.28.17,2,2,0,0,0,.38.06ZM259.4,332l-1.54-3.69L256.31,332Z" transform="translate(-0.04 -0.02)"/><path d="M270.35,335.44h-7.22v-.24a3.67,3.67,0,0,0,.59-.08.73.73,0,0,0,.35-.19.64.64,0,0,0,.17-.35,2.35,2.35,0,0,0,.05-.58v-5.95a3,3,0,0,0,0-.57.67.67,0,0,0-.17-.36.81.81,0,0,0-.36-.18,3.53,3.53,0,0,0-.59-.09v-.27h7.1l0,1.93h-.32a3.76,3.76,0,0,0-.21-.74,1,1,0,0,0-.33-.42,1.32,1.32,0,0,0-.58-.2,7.45,7.45,0,0,0-.92,0h-1.8a.59.59,0,0,0-.36.08.55.55,0,0,0-.09.38v3h2.05a4.06,4.06,0,0,0,.67,0,1,1,0,0,0,.42-.19.89.89,0,0,0,.24-.38,5.91,5.91,0,0,0,.15-.65h.31v3.1h-.31a6.45,6.45,0,0,0-.15-.67.93.93,0,0,0-.24-.39.82.82,0,0,0-.41-.18,4,4,0,0,0-.68-.05h-2.05v3.31a1.85,1.85,0,0,0,0,.29.28.28,0,0,0,.09.14,1.35,1.35,0,0,0,.45.1,7,7,0,0,0,.85,0h.37a8.06,8.06,0,0,0,1.2-.07,2.31,2.31,0,0,0,.84-.27,1.92,1.92,0,0,0,.6-.54,4.21,4.21,0,0,0,.5-.89H271Z" transform="translate(-0.04 -0.02)"/></g><g id="sparta"><path d="M167.52,373.31h-.33c-.05-.2-.11-.37-.16-.52a3.7,3.7,0,0,0-.17-.4,2.7,2.7,0,0,0-.22-.33l-.27-.31a2.22,2.22,0,0,0-1.64-.74,1.47,1.47,0,0,0-1,.33,1.1,1.1,0,0,0-.38.89,1.48,1.48,0,0,0,.45,1,6.83,6.83,0,0,0,1.5,1.06,6.59,6.59,0,0,1,1.93,1.42,2.25,2.25,0,0,1,.38,2.47,2.53,2.53,0,0,1-.57.77,2.69,2.69,0,0,1-.87.52,3.18,3.18,0,0,1-1.08.18,4.43,4.43,0,0,1-.81-.07,3.09,3.09,0,0,1-.77-.23,3.55,3.55,0,0,0-.36-.11,1,1,0,0,0-.27,0,.32.32,0,0,0-.26.13.54.54,0,0,0-.12.31h-.29l-.4-2.83h.31a4.73,4.73,0,0,0,1.14,1.8,2.31,2.31,0,0,0,1.56.56,1.66,1.66,0,0,0,1.19-.41,1.37,1.37,0,0,0,.45-1.07,1.58,1.58,0,0,0-.05-.46.88.88,0,0,0-.15-.34,2.92,2.92,0,0,0-.74-.77,8.9,8.9,0,0,0-1.22-.8,7.5,7.5,0,0,1-1-.59,3.48,3.48,0,0,1-.65-.61,2.21,2.21,0,0,1-.36-.65,2.25,2.25,0,0,1-.12-.74A2.13,2.13,0,0,1,163,371a2.5,2.5,0,0,1,.73-.41,2.2,2.2,0,0,1,.78-.15,3.43,3.43,0,0,1,.71.08,5.4,5.4,0,0,1,.73.21,1.56,1.56,0,0,0,.34.12,1,1,0,0,0,.26,0q.33,0,.42-.45h.29Z" transform="translate(-0.04 -0.02)"/><path d="M171.4,378.06a3.2,3.2,0,0,0,0,.59.69.69,0,0,0,.19.35.76.76,0,0,0,.38.19,4.65,4.65,0,0,0,.64.06v.25H168.9v-.25a3.21,3.21,0,0,0,.6-.09.67.67,0,0,0,.34-.2.76.76,0,0,0,.15-.39c0-.17,0-.4,0-.68V372.1a4.51,4.51,0,0,0,0-.58.59.59,0,0,0-.15-.34.73.73,0,0,0-.34-.18,3.53,3.53,0,0,0-.59-.09v-.27h3.53a5.4,5.4,0,0,1,1.8.28,2.84,2.84,0,0,1,1.21.74,2.07,2.07,0,0,1,.5,1.4,2.34,2.34,0,0,1-.34,1.24,2.54,2.54,0,0,1-.94.9,3.61,3.61,0,0,1-1,.34,7.64,7.64,0,0,1-1.36.1h-.45l-.46,0Zm0-3,.39,0h.36c1.55,0,2.33-.65,2.33-2a1.78,1.78,0,0,0-.64-1.53,3.34,3.34,0,0,0-2-.48.47.47,0,0,0-.35.09.54.54,0,0,0-.08.37Z" transform="translate(-0.04 -0.02)"/><path d="M185.6,379.5h-3.41v-.25h.29l.2,0,.13,0a.67.67,0,0,0,.12-.06.5.5,0,0,0,.15-.14.41.41,0,0,0,0-.18,2.55,2.55,0,0,0-.26-.92l-.56-1.28h-3.49l-.63,1.56a2.68,2.68,0,0,0-.07.27,1.15,1.15,0,0,0,0,.26.46.46,0,0,0,.21.41,1.34,1.34,0,0,0,.7.14v.25h-2.66v-.25a1.21,1.21,0,0,0,.42-.08,1,1,0,0,0,.36-.3,4.34,4.34,0,0,0,.38-.66c.13-.28.31-.67.52-1.16l2.78-6.56h.25l3.34,7.59c.11.25.21.45.29.6a1.43,1.43,0,0,0,.25.34.72.72,0,0,0,.29.17,1.89,1.89,0,0,0,.38.06Zm-3.47-3.42-1.55-3.7-1.54,3.7Z" transform="translate(-0.04 -0.02)"/><path d="M194.51,379.5h-2.16l-3.19-4.13-.74,0v2.65a2.94,2.94,0,0,0,.05.57.61.61,0,0,0,.17.36.62.62,0,0,0,.36.18,3,3,0,0,0,.62.08v.25h-3.7v-.25a3.5,3.5,0,0,0,.6-.09.7.7,0,0,0,.35-.2.86.86,0,0,0,.15-.39,6.13,6.13,0,0,0,0-.68V372.1a4.45,4.45,0,0,0,0-.57.67.67,0,0,0-.15-.34.69.69,0,0,0-.35-.19,3.5,3.5,0,0,0-.6-.09v-.27h3.69a5.66,5.66,0,0,1,1.76.26,2.56,2.56,0,0,1,1.16.71,1.79,1.79,0,0,1,.36.63,2.37,2.37,0,0,1,.12.76,1.9,1.9,0,0,1-.57,1.45,3.85,3.85,0,0,1-1.85.78l2.76,3.4a1.79,1.79,0,0,0,.53.46,1.81,1.81,0,0,0,.63.16Zm-6.09-4.58.82,0a4.78,4.78,0,0,0,.61-.08,3,3,0,0,0,.48-.13,4.69,4.69,0,0,0,.46-.21,1.33,1.33,0,0,0,.56-.59,1.89,1.89,0,0,0,.2-.9,1.6,1.6,0,0,0-.59-1.39,3.19,3.19,0,0,0-1.88-.44.94.94,0,0,0-.53.1.48.48,0,0,0-.13.38Z" transform="translate(-0.04 -0.02)"/><path d="M197.28,371.2a5.8,5.8,0,0,0-.92.06,1.27,1.27,0,0,0-.58.24,1.22,1.22,0,0,0-.36.53,5.33,5.33,0,0,0-.26.88h-.33l.09-2.27h7.54l.09,2.27h-.33A5.45,5.45,0,0,0,202,372a1.31,1.31,0,0,0-.36-.53,1.27,1.27,0,0,0-.59-.24,5.91,5.91,0,0,0-.94-.06h-.71v6.86a3,3,0,0,0,0,.58.62.62,0,0,0,.18.35.71.71,0,0,0,.39.18,3.28,3.28,0,0,0,.66.08v.25h-3.89v-.25a3.27,3.27,0,0,0,.65-.08.69.69,0,0,0,.38-.19.82.82,0,0,0,.18-.41,4.2,4.2,0,0,0,0-.68V371.2Z" transform="translate(-0.04 -0.02)"/><path d="M212.25,379.5h-3.41v-.25h.29l.2,0,.13,0a.67.67,0,0,0,.12-.06.38.38,0,0,0,.14-.14.32.32,0,0,0,.06-.18,2.55,2.55,0,0,0-.26-.92l-.56-1.28h-3.5l-.62,1.56a2.68,2.68,0,0,0-.07.27,1.15,1.15,0,0,0,0,.26.46.46,0,0,0,.21.41,1.34,1.34,0,0,0,.7.14v.25H203v-.25a1.21,1.21,0,0,0,.42-.08.87.87,0,0,0,.35-.3,3.58,3.58,0,0,0,.39-.66c.13-.28.31-.67.52-1.16l2.77-6.56h.26l3.34,7.59c.11.25.21.45.29.6a1.43,1.43,0,0,0,.25.34.72.72,0,0,0,.29.17,1.78,1.78,0,0,0,.38.06Zm-3.47-3.42-1.55-3.7-1.54,3.7Z" transform="translate(-0.04 -0.02)"/><ellipse class="cls-3" cx="187.99" cy="349.21" rx="17.6" ry="17.36"/><path d="M188,366.79a17.82,17.82,0,0,1-12.59-5.14,17.4,17.4,0,0,1,0-24.83,18,18,0,0,1,25.18,0,17.4,17.4,0,0,1,0,24.83A17.78,17.78,0,0,1,188,366.79Zm0-34.71a17.38,17.38,0,0,0-12.3,5,17,17,0,0,0,0,24.27,17.55,17.55,0,0,0,24.6,0,17,17,0,0,0,0-24.27A17.38,17.38,0,0,0,188,332.08Z" transform="translate(-0.04 -0.02)"/><path d="M178.82,359.87l4.1-5.15a.66.66,0,0,1,.5-.25l2.3-.05a.32.32,0,0,0,.31-.31v-.4a1.13,1.13,0,0,0-1.13-1.12h-2.53a1.08,1.08,0,0,0-.88.45l-2.43,3.47v-6.6a1.67,1.67,0,0,1,.5-1.19l3.29-3.24a1.81,1.81,0,0,1,1.28-.53H189a1.6,1.6,0,0,1,1.15.48l2.74,2.69a2.1,2.1,0,0,1,.62,1.49v6.22l1.8,4-.35-.05c-1-.12-1.89-.22-2.82-.29a67.73,67.73,0,0,0-9.59,0c-.72.05-1.85.12-3.27.26Zm3.55-7.68h2.53a1.53,1.53,0,0,1,1.53,1.52v.4a.71.71,0,0,1-.7.7l-2.3.06a.23.23,0,0,0-.19.09l-3.53,4.43c.92-.08,1.84-.15,2.81-.21a65.64,65.64,0,0,1,9.65,0c.83.06,1.64.14,2.49.24l-1.55-3.46v-6.31a1.67,1.67,0,0,0-.51-1.21l-2.73-2.69a1.23,1.23,0,0,0-.87-.36h-4.87a1.39,1.39,0,0,0-1,.41L179.85,349a1.25,1.25,0,0,0-.39.91v5.33l1.7-2.42A1.48,1.48,0,0,1,182.37,352.19Z" transform="translate(-0.04 -0.02)"/><polygon points="195.15 356.12 193.27 356.12 193.27 355.72 194.75 355.72 194.75 347.88 189.88 343.85 184.29 343.85 184.29 345.13 183.89 345.13 183.89 343.45 190.02 343.45 195.15 347.7 195.15 356.12"/><path d="M197.78,357.89l-2.91-1.78.22-.34,2.29,1.41V345.57l-6.53-5.36-1.08,2.7v-3h-5.62l-2,.26.43,2.87-1.36-2.42-1.71.78,1.65,2.74c.12-.07.25-.12.37-.18a6.45,6.45,0,0,1,2.56-.5v.39a5.82,5.82,0,0,0-2.4.48,4.59,4.59,0,0,0-.5.24l-.17.1L179,341.25l2.45-1.12.47.84-.16-1.12,2.39-.31h6v1.3l.52-1.28,7.09,5.83Z" transform="translate(-0.04 -0.02)"/></g><g id="aulis"><path d="M264.62,226.37h-3.41v-.24h.3l.19,0,.13,0L262,226a.54.54,0,0,0,.15-.15.41.41,0,0,0,0-.18,2.51,2.51,0,0,0-.26-.91l-.56-1.28h-3.49l-.62,1.56a2,2,0,0,0-.08.26,1.24,1.24,0,0,0,0,.27.47.47,0,0,0,.21.41,1.38,1.38,0,0,0,.71.14v.24h-2.66v-.24a1.3,1.3,0,0,0,.42-.09.88.88,0,0,0,.35-.29,4.5,4.5,0,0,0,.38-.66c.14-.29.31-.67.52-1.17l2.78-6.56h.26l3.34,7.59c.11.25.2.45.28.6a1.51,1.51,0,0,0,.26.35.68.68,0,0,0,.28.17,1.89,1.89,0,0,0,.38.06ZM261.15,223l-1.54-3.69L258.06,223Z" transform="translate(-0.04 -0.02)"/><path d="M272.88,223a7.63,7.63,0,0,1-.09,1.29,3.13,3.13,0,0,1-.34.93,3.17,3.17,0,0,1-3,1.37,3.44,3.44,0,0,1-2.53-.83,3.55,3.55,0,0,1-.82-2.58V219a3.2,3.2,0,0,0,0-.59.64.64,0,0,0-.17-.35.62.62,0,0,0-.35-.18,4.08,4.08,0,0,0-.64-.08v-.27h3.79v.27l-.65.09a.85.85,0,0,0-.37.18.64.64,0,0,0-.17.35,3,3,0,0,0,0,.58v4.28a5.94,5.94,0,0,0,.08,1,2.55,2.55,0,0,0,.26.72,2.07,2.07,0,0,0,2,.95,3.12,3.12,0,0,0,1.36-.28,1.8,1.8,0,0,0,.86-.76,2.24,2.24,0,0,0,.23-.73,6.65,6.65,0,0,0,.07-1.11v-3.61a6,6,0,0,0-.05-.82,1.09,1.09,0,0,0-.18-.5.7.7,0,0,0-.38-.27,2.39,2.39,0,0,0-.62-.11v-.27h3.09v.27a3.84,3.84,0,0,0-.66.13.79.79,0,0,0-.39.26,1,1,0,0,0-.17.49,6,6,0,0,0-.05.82Z" transform="translate(-0.04 -0.02)"/><path d="M282.38,224.05l-.66,2.32h-7.18v-.24a3.53,3.53,0,0,0,.59-.09.69.69,0,0,0,.35-.18.77.77,0,0,0,.17-.35,3,3,0,0,0,.05-.58v-6a4.26,4.26,0,0,0,0-.58.77.77,0,0,0-.17-.35.88.88,0,0,0-.36-.19,5.31,5.31,0,0,0-.59-.08v-.27h3.76v.27a4.41,4.41,0,0,0-.65.08.66.66,0,0,0-.55.54,3.09,3.09,0,0,0,0,.58v6.33a.75.75,0,0,0,0,.28.26.26,0,0,0,.17.17,1,1,0,0,0,.35.08l.6,0h.89a4.41,4.41,0,0,0,1.42-.2,2.08,2.08,0,0,0,1.21-1c.09-.17.19-.36.3-.59Z" transform="translate(-0.04 -0.02)"/><path d="M284.08,219a4.47,4.47,0,0,0,0-.6.57.57,0,0,0-.19-.35.71.71,0,0,0-.39-.18c-.18,0-.4,0-.68-.07v-.27h4v.27a3.75,3.75,0,0,0-.68.07.74.74,0,0,0-.4.18.62.62,0,0,0-.19.36,3.2,3.2,0,0,0,0,.59v6a2.44,2.44,0,0,0,.05.59.66.66,0,0,0,.19.36.78.78,0,0,0,.4.18,3.62,3.62,0,0,0,.67.07v.24h-4v-.24a3.85,3.85,0,0,0,.68-.07.71.71,0,0,0,.39-.18.65.65,0,0,0,.18-.35,3.12,3.12,0,0,0,.05-.6Z" transform="translate(-0.04 -0.02)"/><path d="M293.28,220.19H293c-.06-.2-.11-.37-.16-.52a2.1,2.1,0,0,0-.18-.4,1.71,1.71,0,0,0-.21-.33l-.27-.31a2.18,2.18,0,0,0-1.64-.74,1.5,1.5,0,0,0-1,.33,1.12,1.12,0,0,0-.38.89,1.51,1.51,0,0,0,.46,1,6.52,6.52,0,0,0,1.5,1.05,7.12,7.12,0,0,1,1.93,1.42,2.3,2.3,0,0,1,.59,1.51,2.18,2.18,0,0,1-.21,1,2.34,2.34,0,0,1-.58.78,2.55,2.55,0,0,1-.86.51,3,3,0,0,1-1.08.19,4.43,4.43,0,0,1-.81-.07,4.25,4.25,0,0,1-.77-.23l-.37-.12a1.6,1.6,0,0,0-.27,0,.33.33,0,0,0-.25.13.57.57,0,0,0-.12.32H288l-.4-2.84h.3a4.86,4.86,0,0,0,1.15,1.8,2.27,2.27,0,0,0,1.56.57,1.72,1.72,0,0,0,1.19-.41,1.38,1.38,0,0,0,.45-1.08,2.16,2.16,0,0,0-.05-.46,1.52,1.52,0,0,0-.15-.34,3.08,3.08,0,0,0-.74-.77,10.53,10.53,0,0,0-1.23-.8,8.09,8.09,0,0,1-1-.58,3.85,3.85,0,0,1-.65-.61,2.08,2.08,0,0,1-.48-1.4,2.07,2.07,0,0,1,.77-1.73,2.53,2.53,0,0,1,.73-.42,2.38,2.38,0,0,1,.78-.14,3.49,3.49,0,0,1,.71.07,5.48,5.48,0,0,1,.73.22,2.36,2.36,0,0,0,.34.12l.26,0c.22,0,.36-.15.42-.44H293Z" transform="translate(-0.04 -0.02)"/><ellipse class="cls-3" cx="274.08" cy="248.93" rx="17.77" ry="17.53"/><path d="M274.12,266.68a18,18,0,0,1-12.71-5.19,17.54,17.54,0,0,1,0-25.07,18.16,18.16,0,0,1,25.42,0,17.57,17.57,0,0,1,0,25.07A18,18,0,0,1,274.12,266.68Zm0-35.05a17.59,17.59,0,0,0-12.43,5.07,17.18,17.18,0,0,0,0,24.51,17.76,17.76,0,0,0,24.85,0,17.16,17.16,0,0,0,0-24.51A17.59,17.59,0,0,0,274.12,231.63Z" transform="translate(-0.04 -0.02)"/><path d="M276.24,249.35a5.42,5.42,0,0,1,2.2,3.77,5.19,5.19,0,0,1-.94,3.58,4.54,4.54,0,0,1-.33.41,10.74,10.74,0,0,1-1.52,1.36,18.1,18.1,0,0,0-1.5,1.22,5.89,5.89,0,0,0-1.17,1.5,6.25,6.25,0,0,0-.63,1.82,6.11,6.11,0,0,1,1.5-3.6,18.61,18.61,0,0,1,1.41-1.4,10.24,10.24,0,0,0,1.27-1.39,4.23,4.23,0,0,0,.71-3.32,4,4,0,0,0-1.91-2.62Z" transform="translate(-0.04 -0.02)"/><path d="M275.28,247.27a4.09,4.09,0,0,0,1.83-2.68,4.26,4.26,0,0,0-.81-3.3,9.31,9.31,0,0,0-1.32-1.35,18.3,18.3,0,0,1-1.44-1.36,6.11,6.11,0,0,1-1.61-3.56,5.94,5.94,0,0,0,1.9,3.28,15.27,15.27,0,0,0,1.54,1.18,10,10,0,0,1,1.55,1.31,3.34,3.34,0,0,1,.35.4,4.27,4.27,0,0,1,.3.44,5.06,5.06,0,0,1,.46,1,5.25,5.25,0,0,1-1.81,6Z" transform="translate(-0.04 -0.02)"/><polygon points="275.3 250.66 275.24 247.25 276.19 247.81 276.22 250.29 275.3 250.66"/><rect x="272.92" y="237.33" width="0.08" height="23.31" transform="translate(-3.73 4.08) rotate(-0.86)"/><rect x="270.6" y="248.81" width="9.2" height="0.24"/><polygon points="270 249.78 270.04 249.73 270.75 249.05 268.64 249.05 267.88 249.78 270 249.78"/><path d="M267.92,248.13l.75.7h2.11a4.94,4.94,0,0,1-.75-.7Z" transform="translate(-0.04 -0.02)"/><path d="M279.4,249l-.53-.87,0,0,1.43.56,1.49.32-1.49.33-1.43.56,0,0Z" transform="translate(-0.04 -0.02)"/></g><g id="troy"><g id="Layer_8" data-name="Layer 8"><ellipse class="cls-3" cx="489.85" cy="129.68" rx="18.34" ry="18.09"/><path d="M489.89,148a18.58,18.58,0,0,1-13.12-5.36,18.12,18.12,0,0,1,0-25.87,18.73,18.73,0,0,1,26.23,0,18.1,18.1,0,0,1,0,25.87A18.57,18.57,0,0,1,489.89,148Zm0-36.17a18.14,18.14,0,0,0-12.82,5.23,17.71,17.71,0,0,0,0,25.29,18.33,18.33,0,0,0,25.64,0,17.71,17.71,0,0,0,0-25.29A18.18,18.18,0,0,0,489.89,111.83Z" transform="translate(-0.04 -0.02)"/></g><g id="Layer_5" data-name="Layer 5"><path d="M496,141.69H484v-1.26h12Zm-11.8-.16h11.63v-.94H484.15Z" transform="translate(-0.04 -0.02)"/><path d="M495.36,140.59H484.61a.19.19,0,0,1-.2-.19,1.07,1.07,0,0,1,1.08-1.07h9a1.07,1.07,0,0,1,1.08,1.07A.19.19,0,0,1,495.36,140.59Zm-9.87-1.09a.91.91,0,0,0-.92.9s0,0,0,0h10.75a0,0,0,0,0,0,0,.9.9,0,0,0-.91-.9Z" transform="translate(-0.04 -0.02)"/><path d="M494.66,139.5h-9.48V121.68h9.48Zm-9.32-.17h9.15V121.84h-9.15Z" transform="translate(-0.04 -0.02)"/><path d="M487.09,137.84a.17.17,0,0,1-.17-.17V123.88a.17.17,0,0,1,.17-.17.17.17,0,0,1,.16.17v13.79A.17.17,0,0,1,487.09,137.84Z" transform="translate(-0.04 -0.02)"/><path d="M489.15,137.84a.17.17,0,0,1-.16-.17V123.88a.17.17,0,0,1,.16-.17.17.17,0,0,1,.17.17v13.79A.17.17,0,0,1,489.15,137.84Z" transform="translate(-0.04 -0.02)"/><path d="M491.16,137.84a.18.18,0,0,1-.17-.17V123.88a.17.17,0,1,1,.34,0v13.79A.18.18,0,0,1,491.16,137.84Z" transform="translate(-0.04 -0.02)"/><path d="M493.19,137.84a.18.18,0,0,1-.17-.17V123.88a.17.17,0,1,1,.34,0v13.79A.18.18,0,0,1,493.19,137.84Z" transform="translate(-0.04 -0.02)"/><path d="M497.39,121.84H482.16V119a.36.36,0,0,1,.12-.27.36.36,0,0,1,.28-.12H497a.4.4,0,0,1,.4.4Zm-15.06-.16h14.89V119a.23.23,0,0,0-.23-.23H482.56a.23.23,0,0,0-.16.06.21.21,0,0,0-.07.16Z" transform="translate(-0.04 -0.02)"/><ellipse class="cls-3" cx="484.18" cy="121.79" rx="1.94" ry="1.92"/><path d="M484.22,123.81a2,2,0,1,1,2-2A2,2,0,0,1,484.22,123.81Zm0-3.83a1.84,1.84,0,1,0,1.85,1.83A1.84,1.84,0,0,0,484.22,120Z" transform="translate(-0.04 -0.02)"/><path d="M484.21,123.83a2.24,2.24,0,0,1-.63-.1,1.62,1.62,0,0,1-1.06-2,1.33,1.33,0,0,1,1.68-.85,1.07,1.07,0,0,1,.7,1.35.88.88,0,0,1-.44.51.92.92,0,0,1-.67,0,.71.71,0,0,1-.47-.9.6.6,0,0,1,.75-.38.49.49,0,0,1,.32.61.39.39,0,0,1-.21.24.42.42,0,0,1-.31,0,.34.34,0,0,1-.2-.17.36.36,0,0,1,0-.27l.08,0,.08,0a.17.17,0,0,0,0,.14.22.22,0,0,0,.1.09.25.25,0,0,0,.19,0,.24.24,0,0,0,.12-.14.31.31,0,0,0-.21-.4.42.42,0,0,0-.54.27.54.54,0,0,0,.36.69.71.71,0,0,0,.9-.45.91.91,0,0,0-.59-1.15,1.18,1.18,0,0,0-1.47.75,1.46,1.46,0,0,0,.95,1.84,1.89,1.89,0,0,0,2.36-1.19.09.09,0,1,1,.16.06A2.05,2.05,0,0,1,484.21,123.83Z" transform="translate(-0.04 -0.02)"/><ellipse class="cls-3" cx="495.33" cy="121.7" rx="1.94" ry="1.92"/><path d="M495.37,123.72a2,2,0,1,1,2-2A2,2,0,0,1,495.37,123.72Zm0-3.83a1.84,1.84,0,1,0,1.85,1.83A1.84,1.84,0,0,0,495.37,119.89Z" transform="translate(-0.04 -0.02)"/><path d="M495.38,123.74a2,2,0,0,1-1.95-1.39.09.09,0,0,1,.05-.11.09.09,0,0,1,.11.06,1.89,1.89,0,0,0,2.36,1.19,1.46,1.46,0,0,0,.95-1.85,1.16,1.16,0,0,0-1.47-.74.91.91,0,0,0-.59,1.14.73.73,0,0,0,.91.46.57.57,0,0,0,.36-.7.44.44,0,0,0-.54-.27.33.33,0,0,0-.22.41.25.25,0,0,0,.31.15.14.14,0,0,0,.11-.09.2.2,0,0,0,0-.13.09.09,0,0,1,.05-.11.08.08,0,0,1,.1,0h0a.33.33,0,0,1,0,.26.39.39,0,0,1-.21.17.41.41,0,0,1-.51-.26.48.48,0,0,1,.31-.62.61.61,0,0,1,.76.38.72.72,0,0,1-.47.9.89.89,0,0,1-1.12-.56,1.07,1.07,0,0,1,.7-1.35,1.34,1.34,0,0,1,1.68.85,1.63,1.63,0,0,1-1.05,2A2,2,0,0,1,495.38,123.74Z" transform="translate(-0.04 -0.02)"/></g><path d="M475,157.12a5.27,5.27,0,0,0-.88.06,1.09,1.09,0,0,0-.56.23,1.35,1.35,0,0,0-.35.5,6.75,6.75,0,0,0-.24.85h-.31l.08-2.18H480l.08,2.18h-.31a6.75,6.75,0,0,0-.24-.85,1.34,1.34,0,0,0-.34-.5,1.09,1.09,0,0,0-.56-.23,5.53,5.53,0,0,0-.9-.06H477v6.56a2.92,2.92,0,0,0,0,.56.65.65,0,0,0,.17.33.76.76,0,0,0,.37.18c.16,0,.38.05.64.07v.23h-3.72v-.23a5.73,5.73,0,0,0,.62-.07.76.76,0,0,0,.37-.19.87.87,0,0,0,.17-.39,5.35,5.35,0,0,0,0-.65v-6.4Z" transform="translate(-0.04 -0.02)"/><path d="M488.71,165.05h-2.06l-3-3.94-.7,0v2.54a2.88,2.88,0,0,0,0,.55.64.64,0,0,0,.16.34.77.77,0,0,0,.35.18,5.34,5.34,0,0,0,.59.07v.23H480.5v-.23a3.39,3.39,0,0,0,.58-.09.67.67,0,0,0,.33-.19.78.78,0,0,0,.14-.38,3.67,3.67,0,0,0,0-.64V158a2.7,2.7,0,0,0,0-.54.63.63,0,0,0-.14-.33.75.75,0,0,0-.33-.18,3.39,3.39,0,0,0-.58-.09v-.26H484a5.51,5.51,0,0,1,1.69.25,2.5,2.5,0,0,1,1.1.68,1.64,1.64,0,0,1,.35.6,2.5,2.5,0,0,1,.11.74,1.77,1.77,0,0,1-.54,1.37A3.7,3.7,0,0,1,485,161l2.64,3.25a1.62,1.62,0,0,0,.51.43,1.64,1.64,0,0,0,.59.16Zm-5.81-4.38c.3,0,.56,0,.78,0l.58-.07a4.28,4.28,0,0,0,.46-.13,2.86,2.86,0,0,0,.44-.2,1.35,1.35,0,0,0,.54-.57,1.84,1.84,0,0,0,.19-.86,1.55,1.55,0,0,0-.57-1.33,3,3,0,0,0-1.79-.42.93.93,0,0,0-.51.1.43.43,0,0,0-.12.36Z" transform="translate(-0.04 -0.02)"/><path d="M493.5,156.41a4,4,0,0,1,1.73.39,4,4,0,0,1,1.4,1,4.15,4.15,0,0,1,.72,1.33,5.31,5.31,0,0,1-.05,3.43,4,4,0,0,1-.86,1.39,4,4,0,0,1-1.32.91,4.24,4.24,0,0,1-1.69.32,4.29,4.29,0,0,1-1.7-.32,3.76,3.76,0,0,1-1.32-.91,4.38,4.38,0,0,1-.86-1.41,5.23,5.23,0,0,1-.3-1.8,4.86,4.86,0,0,1,.32-1.78,4.26,4.26,0,0,1,.87-1.38,4.05,4.05,0,0,1,1.34-.9A4.54,4.54,0,0,1,493.5,156.41Zm-.11.45a2.24,2.24,0,0,0-1,.24,2.7,2.7,0,0,0-.84.67,2.31,2.31,0,0,0-.34.56,6.19,6.19,0,0,0-.27.73,5.57,5.57,0,0,0-.16.85,6.8,6.8,0,0,0-.06.9,6.46,6.46,0,0,0,.3,2.05,2.86,2.86,0,0,0,.84,1.34,2.39,2.39,0,0,0,1.59.57,2.59,2.59,0,0,0,.92-.17,2.27,2.27,0,0,0,.75-.51,4.5,4.5,0,0,0,1.05-3.34,5.94,5.94,0,0,0-.31-2,3,3,0,0,0-.86-1.33A2.44,2.44,0,0,0,493.39,156.86Z" transform="translate(-0.04 -0.02)"/><path d="M507.05,156.84a1.64,1.64,0,0,0-.46.08,1.14,1.14,0,0,0-.39.23,2.55,2.55,0,0,0-.41.44,7.64,7.64,0,0,0-.51.7l-1.9,2.89v2.5a2.79,2.79,0,0,0,.05.57.65.65,0,0,0,.18.35.86.86,0,0,0,.4.16,5.19,5.19,0,0,0,.69.06v.23h-3.92v-.23c.3,0,.53,0,.7-.07a.79.79,0,0,0,.39-.19.67.67,0,0,0,.16-.38,3.85,3.85,0,0,0,0-.66V161.3l-1.67-2.45c-.32-.46-.58-.82-.78-1.09a3.66,3.66,0,0,0-.51-.59,1.12,1.12,0,0,0-.38-.27,1.25,1.25,0,0,0-.4-.06v-.26h3.58v.26h-.32c-.39,0-.59.14-.59.36a1.06,1.06,0,0,0,.22.58l1.9,2.84,1.82-2.89a.87.87,0,0,0,.18-.48.32.32,0,0,0-.19-.31,1.61,1.61,0,0,0-.69-.1v-.26h2.81Z" transform="translate(-0.04 -0.02)"/></g></svg>