<svg id="Layer_1" data-name="Layer 1" xmlns="http://www.w3.org/2000/svg" width="169.44mm" height="60.59mm" viewBox="0 0 480.31 171.76">
  <defs>
    <style>
      .cls-1 {
        fill: #68371f;
      }

      .cls-2 {
        fill: #9e7456;
      }

      .cls-3 {
        fill: #744224;
      }

      .cls-4, .cls-5 {
        fill: none;
        stroke: #68371f;
        stroke-miterlimit: 10;
      }

      .cls-4 {
        stroke-width: 3px;
      }

      .cls-5 {
        stroke-width: 2px;
      }
    </style>
  </defs>
  <title>single_boat</title>
  <g>
    <path class="cls-1" d="M479,35.56c5.73,5.34-8.57,56.73-30,89-9.2,13.92-16.34,24.46-29.94,33.1-22.19,14.09-46,13.22-58.32,12.61C263.67,165.49,185,154.09,127,145.61c-27.46-4-72-13-90.82-20.22-1.26-.48-5.82-1.12-11-3.94C2,108.94-3.88,61.47,2.27,61.56c10,.15,25.43,1.78,42.34-.49,25.52-3.43,25.52-3.43,50.65-8.18C190.08,35,272.05,25.38,337.93,10.33,343.46,9.07,365,2.79,394,.16c7.45-.67,21.45.85,33,3.09C432.42,4.29,462.2,19.85,479,35.56Z"/>
    <path class="cls-2" d="M478,43.47c5.68,5.08-8.49,53.9-29.69,84.6-9.12,13.22-16.19,23.23-29.68,31.44-22,13.39-45.55,12.56-57.79,12-96.3-4.58-174.26-15.41-231.78-23.47-27.22-3.81-71.34-12.33-90-19.2-1.25-.46-5.77-1.07-10.94-3.75C5.21,113.18.55,76,0,68.07c0,0,30.65,1.8,47.42-.36,25.28-3.26,25.28-3.26,50.2-7.77,94-17,175.22-26.14,240.52-40.43a353,353,0,0,1,55.57-9.66c7.39-.65,21.26.8,32.73,2.93C431.8,13.77,461.32,28.55,478,43.47Z"/>
    <path class="cls-1" d="M350.93,171l9.92.5L388,130.27a53.94,53.94,0,0,0,3.23-5.61l22-44.34a48.09,48.09,0,0,0,3.13-8l18.95-65-8.3-4L406.17,68.54a35.14,35.14,0,0,1-2.09,5.13L385.9,113.8A61.93,61.93,0,0,1,382,121Z"/>
    <path class="cls-3" d="M479.24,49.74c0-1,3.33-4.5-11.48-14.38C451.08,24.23,446,21.8,439.14,18.19c-.41-.22-5.87-3.91-6.13-2.94-.72,2.71-3.19,11.21-3.59,12.34-4.95,13.89-11,38.48-12.65,43.39-2.55,7.65-.84,3.23-9.64,21.67C398,111.75,397.06,114,392,123.08c-15.2,27.16-29.12,42.68-32.84,48.32,0,0,20.21.52,28-.81,16-2.74,30.68-10.42,34.2-12.79,4.08-2.76,15.1-10.26,33.76-40.53C468.14,96.12,479.46,63.79,479.24,49.74Z"/>
    <path class="cls-3" d="M5,93c.81,3.29,1.32,3.57,2.64,7.15,11.84,2.11,23.12,4.9,34.7,5.8,7-.17,14.71-1.63,21.72-2.4,6-.65,11.11-1.72,17-2.56,7.14-1,12.76-1.8,19.87-3,9.94-1.66,20.44-2.56,30.31-4.58,6.8-1.39,71.83-9.89,78.47-12a109.65,109.65,0,0,1-1.36-12c0-3.43-1-6.27-.52-8.17-4.67.54-45.33,6.47-49.85,7.65-14.13,3.69-18.71,2.38-32.95,5.65-9.68.81-22.57,2.37-32.88,4.3-8.94,1.68-18.25,3-27.28,4.1-11.25,1.39-20.61,2.5-31.95,2.35-7.63-.11-12-1.36-21.94-2.35-.63-.15-8.23-.73-8.88-.81C2.1,85.11,5,92.65,5,93Z"/>
    <path class="cls-3" d="M2.1,82.14c11.83,2.12,28.63,2.07,40.21,3,7-.17,14.71-1.63,21.73-2.4,5.94-.65,11.11-1.71,17-2.56,7.14-1,12.76-1.8,19.87-3,9.93-1.65,20.44-2.56,30.31-4.58,6.8-1.38,71.82-9.88,78.47-12a111.4,111.4,0,0,1-1.37-12c0-3.43-1.1-4.79-.63-6.68-4.67.54-45.26,6-49.78,7.14-2.85.7-18.6,2.75-32.9,4.67-10.25,1.25-23.59,4.69-33.9,6.62C82.2,62,72.29,64.52,63.26,65.64,52,67,45.13,68.14,33.79,68c-7.63-.11-12.82.73-23.3.54C9.86,68.36.66,68.14,0,68.07"/>
    <path class="cls-3" d="M17.93,117.06C26,130.28,76.27,138.6,81.06,139.61c6.66.8,18.18-4.9,24.85-4.22,3.59.36,9.24-1.37,12.83-1.31,12.27.24,14.21-3.46,26.48-3.71,10.25-.21,19.64-3.4,29.87-4,8.25-.51,16.35-3.61,24.59-4.38,9.61-.91,19.2-2,28.8-3,.21,0,.4-.26.6-.39-4.7-2.53-9.7-4.51-14-7.75-3.55-2.65-6.95-5.38-8.76-9.59-6.88,1-13.75,2.16-20.64,3.14s-14,1.74-20.92,2.86c-6.64,1.07-13.35,1.37-20,2.32-4.05.57-8.16.8-12.24,1.08-16.26,1.1-30.3,3.48-48.91,6.1C78.67,116.6,22.87,116.9,17.93,117.06Z"/>
    <path class="cls-3" d="M84,140.22c22.25,4.59,31.74,5.54,36.54,6.54,6.65.81,12.24,2.05,18.91,2.72,3.59.36,11.72,2.05,15.31,2.12,12.27.23.8-1.75,13.07-2,10.25-.21,19.74-.83,30-1.45,8.25-.51,16.71-1.58,24.94-2.35,9.61-.9,19.35-1.84,28.95-2.87.21,0,12-1,12.23-1.16-4.7-2.53-21.93-8.49-26.25-11.72-3.55-2.65-7.43-6.88-9.23-11.1-6.88,1-14.21,2.09-21.1,3.08s-13.51,1.21-20.45,2.33c-6.64,1.07-13.15,2-19.8,2.92a73.42,73.42,0,0,0-12,2.57c-16.25,1.11-30.3,3.48-48.9,6.1C101.32,135.83,89,140.05,84,140.22Z"/>
    <path class="cls-3" d="M214.19,159.21c11.1,1.28,20.79,2,33.06,3.65a160,160,0,0,1,18.05,1.79c11.26,1,11.66.79,22.14,2.28.21,0,14,1,14.22.86-4.7-2.53-23.92-10.51-28.24-13.74-3.55-2.65-7.43-6.88-9.23-11.1-8.78-1-17.66-2-24.55-1s-13.16-2-20.11-.84c-6.64,1.07-10.82,4.82-17.47,5.76-4.05.58-40.1,3.14-45.73,4.74"/>
    <path class="cls-3" d="M7.61,100.13c2.34,5,5.62,12.21,10.32,16.93,19.14,1.8,39.91,2.38,59.09,2.21,11.72-.1,26.23-5.13,37.93-6.11,8-.67,16.36-2.27,24.34-2.86,5.9-.43,14.24-2,20.12-2.58,7.72-.75,13.78-2.56,21.49-3.4s3.8-.57,11.47-1.6c1.58-.21,10.35.19,11.75-.71-2.3-.4.49.24,0-1.2-1.66-5.36-5.93-12.61-3.38-17.67-6.47.43-13.5,2.14-19.86,3-17.9,2.51-31.67,5.21-49.68,7.23C117.14,95,102.11,98.8,88,100c-9.16.77-17.1,3.52-26.34,3.82-4.72.16-8.83,1.7-13.57,1.74C35.92,105.67,19.51,102.22,7.61,100.13Z"/>
    <path class="cls-4" d="M417.32,33.63c-7.5-1.57-26.88-.14-38,.19C329.55,35.33,285,49.19,261,53,205.48,61.7,148.46,70.44,56.24,84.24,38.62,86.88,11.81,82.7,2.1,82.14"/>
    <path class="cls-4" d="M412.8,54.76c-7.5-1.57-26.88-.14-38,.2C332,56.26,287.29,69.24,256.5,74.09,208.76,81.6,151.76,90.4,51.72,105.37c-17.62,2.64-34.4-4.68-44.11-5.24"/>
    <path class="cls-5" d="M402,80.86c-7.5-1.57-26.89-.14-38,.2C314.25,82.57,264.11,93,240.15,96.73c-55.54,8.74-70.91,8.74-163.13,22.54-17.62,2.64-49.38-1.65-59.09-2.21"/>
    <path class="cls-5" d="M387.83,110c-7.5-1.57-26.88-.14-38,.19-49.77,1.51-78,2.08-101.93,5.85-55.55,8.74-74.62,9.75-166.84,23.56"/>
    <path class="cls-5" d="M374.91,136.11c-7.5-1.57-26.89-.14-38,.19-49.77,1.52-146,14.18-176.14,14.18"/>
  </g>
</svg>
