<svg id="Layer_1" data-name="Layer 1" xmlns="http://www.w3.org/2000/svg" width="121.73mm" height="401.61mm" viewBox="0 0 345.07 1138.42">
  <defs>
    <style>
      .cls-1, .cls-2 {
        fill: #2d3445;
      }

      .cls-2 {
        stroke: #f8f7f7;
      }

      .cls-2, .cls-5, .cls-6 {
        stroke-miterlimit: 10;
      }

      .cls-2, .cls-5 {
        stroke-width: 4px;
      }

      .cls-3 {
        fill: #fff;
      }

      .cls-4, .cls-5 {
        fill: #703529;
      }

      .cls-5 {
        stroke: #fff;
      }

      .cls-6 {
        fill: none;
        stroke: #000;
        stroke-width: 2px;
      }
    </style>
  </defs>
  <title>timeline</title>
  <g id="day50">
    <g>
      <circle class="cls-1" cx="20.82" cy="95.16" r="16.87"/>
      <circle class="cls-2" cx="20.57" cy="95.13" r="11.05"/>
    </g>
    <g>
      <rect class="cls-1" x="68.93" width="276.14" height="192.06" rx="15.41"/>
      <path class="cls-1" d="M56.76,81.61H83.28a0,0,0,0,1,0,0v28.84a0,0,0,0,1,0,0H54.44a0,0,0,0,1,0,0V83.93A2.31,2.31,0,0,1,56.76,81.61Z" transform="translate(-47.73 76.82) rotate(-45)"/>
      <circle class="cls-3" cx="135.49" cy="146.79" r="21.96"/>
      <circle class="cls-3" cx="206.36" cy="147.57" r="21.96"/>
      <circle class="cls-3" cx="277.9" cy="145.97" r="21.96"/>
    </g>
  </g>
  <g id="day47">
    <g>
      <circle class="cls-4" cx="20.4" cy="199.97" r="16.87"/>
      <circle class="cls-5" cx="20.15" cy="199.94" r="11.05"/>
    </g>
    <g>
      <rect class="cls-4" x="68.51" y="104.81" width="276.14" height="192.06" rx="15.41"/>
      <path class="cls-4" d="M56.34,186.42H82.86a0,0,0,0,1,0,0v28.84a0,0,0,0,1,0,0H54a0,0,0,0,1,0,0V188.74a2.31,2.31,0,0,1,2.31-2.31Z" transform="translate(-121.97 107.22) rotate(-45)"/>
      <circle class="cls-3" cx="135.08" cy="251.6" r="21.96"/>
      <circle class="cls-3" cx="205.94" cy="252.38" r="21.96"/>
      <circle class="cls-3" cx="277.48" cy="250.78" r="21.96"/>
    </g>
  </g>
  <g id="day45">
    <g>
      <circle class="cls-1" cx="21.61" cy="304.64" r="16.87"/>
      <circle class="cls-2" cx="21.36" cy="304.6" r="11.05"/>
    </g>
    <g>
      <rect class="cls-1" x="69.72" y="209.48" width="276.14" height="192.06" rx="15.41"/>
      <path class="cls-1" d="M57.55,291.09H84.07a0,0,0,0,1,0,0v28.84a0,0,0,0,1,0,0H55.23a0,0,0,0,1,0,0V293.4A2.31,2.31,0,0,1,57.55,291.09Z" transform="translate(-195.63 138.73) rotate(-45)"/>
      <circle class="cls-3" cx="136.28" cy="356.27" r="21.96"/>
      <circle class="cls-3" cx="207.15" cy="357.05" r="21.96"/>
      <circle class="cls-3" cx="278.69" cy="355.44" r="21.96"/>
    </g>
  </g>
  <g id="day40">
    <g>
      <circle class="cls-4" cx="21.19" cy="409.45" r="16.87"/>
      <circle class="cls-5" cx="20.94" cy="409.41" r="11.05"/>
    </g>
    <g>
      <rect class="cls-4" x="69.3" y="314.29" width="276.14" height="192.06" rx="15.41"/>
      <path class="cls-4" d="M57.13,395.9H83.65a0,0,0,0,1,0,0v28.84a0,0,0,0,1,0,0H54.82a0,0,0,0,1,0,0V398.21A2.31,2.31,0,0,1,57.13,395.9Z" transform="translate(-269.86 169.13) rotate(-45)"/>
      <circle class="cls-3" cx="135.87" cy="461.08" r="21.96"/>
      <circle class="cls-3" cx="206.73" cy="461.86" r="21.96"/>
      <circle class="cls-3" cx="278.27" cy="460.25" r="21.96"/>
    </g>
  </g>
  <g id="day38">
    <g>
      <circle class="cls-1" cx="20.71" cy="514.63" r="16.87"/>
      <circle class="cls-2" cx="20.46" cy="514.59" r="11.05"/>
    </g>
    <g>
      <rect class="cls-1" x="68.82" y="419.47" width="276.14" height="192.06" rx="15.41"/>
      <path class="cls-1" d="M56.65,501.08H83.17a0,0,0,0,1,0,0v28.84a0,0,0,0,1,0,0H54.33a0,0,0,0,1,0,0V503.39A2.31,2.31,0,0,1,56.65,501.08Z" transform="translate(-344.37 199.6) rotate(-45)"/>
      <circle class="cls-3" cx="135.38" cy="566.26" r="21.96"/>
      <circle class="cls-3" cx="206.25" cy="567.04" r="21.96"/>
      <circle class="cls-3" cx="277.79" cy="565.43" r="21.96"/>
    </g>
  </g>
  <g id="day27">
    <g>
      <circle class="cls-4" cx="21.29" cy="619.44" r="16.87"/>
      <circle class="cls-5" cx="21.04" cy="619.4" r="11.05"/>
    </g>
    <g>
      <rect class="cls-4" x="69.4" y="524.28" width="276.14" height="192.06" rx="15.41"/>
      <path class="cls-4" d="M57.23,605.89H83.75a0,0,0,0,1,0,0v28.84a0,0,0,0,1,0,0H54.92a0,0,0,0,1,0,0V608.2A2.31,2.31,0,0,1,57.23,605.89Z" transform="translate(-418.32 230.71) rotate(-45)"/>
      <circle class="cls-3" cx="135.97" cy="671.07" r="21.96"/>
      <circle class="cls-3" cx="206.83" cy="671.85" r="21.96"/>
      <circle class="cls-3" cx="278.37" cy="670.24" r="21.96"/>
    </g>
  </g>
  <g id="day21">
    <g>
      <circle class="cls-1" cx="20.71" cy="724.47" r="16.87"/>
      <circle class="cls-2" cx="20.46" cy="724.43" r="11.05"/>
    </g>
    <g>
      <rect class="cls-1" x="68.82" y="629.31" width="276.14" height="192.06" rx="15.41"/>
      <path class="cls-1" d="M56.65,710.92H83.17a0,0,0,0,1,0,0v28.84a0,0,0,0,1,0,0H54.33a0,0,0,0,1,0,0V713.23A2.31,2.31,0,0,1,56.65,710.92Z" transform="translate(-492.75 261.06) rotate(-45)"/>
      <circle class="cls-3" cx="135.38" cy="776.1" r="21.96"/>
      <circle class="cls-3" cx="206.25" cy="776.88" r="21.96"/>
      <circle class="cls-3" cx="277.79" cy="775.27" r="21.96"/>
    </g>
  </g>
  <g id="day9">
    <g>
      <circle class="cls-4" cx="20.29" cy="829.28" r="16.87"/>
      <circle class="cls-5" cx="20.04" cy="829.24" r="11.05"/>
    </g>
    <g>
      <rect class="cls-4" x="68.4" y="734.12" width="276.14" height="192.06" rx="15.41"/>
      <path class="cls-4" d="M56.23,815.73H82.75a0,0,0,0,1,0,0v28.84a0,0,0,0,1,0,0H53.92a0,0,0,0,1,0,0V818A2.31,2.31,0,0,1,56.23,815.73Z" transform="translate(-566.99 291.46) rotate(-45)"/>
      <circle class="cls-3" cx="134.97" cy="880.91" r="21.96"/>
      <circle class="cls-3" cx="205.83" cy="881.69" r="21.96"/>
      <circle class="cls-3" cx="277.37" cy="880.08" r="21.96"/>
    </g>
  </g>
  <g id="day7">
    <g>
      <circle class="cls-1" cx="20.29" cy="934.46" r="16.87"/>
      <circle class="cls-2" cx="20.04" cy="934.42" r="11.05"/>
    </g>
    <g>
      <rect class="cls-1" x="68.4" y="839.3" width="276.14" height="192.06" rx="15.41"/>
      <path class="cls-1" d="M56.23,920.91H82.75a0,0,0,0,1,0,0v28.84a0,0,0,0,1,0,0H53.92a0,0,0,0,1,0,0V923.22A2.31,2.31,0,0,1,56.23,920.91Z" transform="translate(-641.36 322.27) rotate(-45)"/>
      <circle class="cls-3" cx="134.97" cy="986.09" r="21.96"/>
      <circle class="cls-3" cx="205.83" cy="986.87" r="21.96"/>
      <circle class="cls-3" cx="277.37" cy="985.26" r="21.96"/>
    </g>
  </g>
  <g id="day1">
    <g>
      <circle class="cls-4" cx="19.87" cy="1039.27" r="16.87"/>
      <circle class="cls-5" cx="19.62" cy="1039.23" r="11.05"/>
    </g>
    <g>
      <rect class="cls-4" x="67.98" y="944.11" width="276.14" height="192.06" rx="15.41"/>
      <path class="cls-4" d="M55.81,1025.72H82.33a0,0,0,0,1,0,0v28.84a0,0,0,0,1,0,0H53.5a0,0,0,0,1,0,0V1028A2.31,2.31,0,0,1,55.81,1025.72Z" transform="translate(-715.6 352.67) rotate(-45)"/>
      <circle class="cls-3" cx="134.55" cy="1090.9" r="21.96"/>
      <circle class="cls-3" cx="205.41" cy="1091.68" r="21.96"/>
      <circle class="cls-3" cx="276.95" cy="1090.07" r="21.96"/>
    </g>
  </g>
  <g id="dotted-lines">
    <line class="cls-6" x1="19.82" y1="177.48" x2="19.82" y2="183.24"/>
    <line class="cls-6" x1="19.82" y1="144.48" x2="19.82" y2="150.24"/>
    <line class="cls-6" x1="19.82" y1="112.2" x2="19.82" y2="117.96"/>
    <line class="cls-6" x1="19.82" y1="120.31" x2="19.82" y2="126.07"/>
    <line class="cls-6" x1="19.82" y1="128.21" x2="19.82" y2="133.97"/>
    <line class="cls-6" x1="19.82" y1="136.51" x2="19.82" y2="142.27"/>
    <line class="cls-6" x1="19.82" y1="153.17" x2="19.82" y2="158.92"/>
    <line class="cls-6" x1="19.82" y1="161.28" x2="19.82" y2="167.04"/>
    <line class="cls-6" x1="19.82" y1="169.18" x2="19.82" y2="174.93"/>
    <line class="cls-6" x1="19.82" y1="282.14" x2="19.82" y2="287.9"/>
    <line class="cls-6" x1="19.82" y1="249.15" x2="19.82" y2="254.9"/>
    <line class="cls-6" x1="19.82" y1="216.86" x2="19.82" y2="222.62"/>
    <line class="cls-6" x1="19.82" y1="224.98" x2="19.82" y2="230.73"/>
    <line class="cls-6" x1="19.82" y1="232.88" x2="19.82" y2="238.63"/>
    <line class="cls-6" x1="19.82" y1="241.18" x2="19.82" y2="246.93"/>
    <line class="cls-6" x1="19.82" y1="257.83" x2="19.82" y2="263.59"/>
    <line class="cls-6" x1="19.82" y1="265.95" x2="19.82" y2="271.7"/>
    <line class="cls-6" x1="19.82" y1="273.84" x2="19.82" y2="279.6"/>
    <line class="cls-6" x1="18.61" y1="386.96" x2="18.61" y2="392.71"/>
    <line class="cls-6" x1="18.61" y1="353.96" x2="18.61" y2="359.71"/>
    <line class="cls-6" x1="18.61" y1="321.68" x2="18.61" y2="327.43"/>
    <line class="cls-6" x1="18.61" y1="329.79" x2="18.61" y2="335.55"/>
    <line class="cls-6" x1="18.61" y1="337.69" x2="18.61" y2="343.44"/>
    <line class="cls-6" x1="18.61" y1="345.99" x2="18.61" y2="351.74"/>
    <line class="cls-6" x1="18.61" y1="362.64" x2="18.61" y2="368.4"/>
    <line class="cls-6" x1="18.61" y1="370.76" x2="18.61" y2="376.51"/>
    <line class="cls-6" x1="18.61" y1="378.66" x2="18.61" y2="384.41"/>
    <line class="cls-6" x1="18.61" y1="491.62" x2="18.61" y2="497.38"/>
    <line class="cls-6" x1="18.61" y1="458.62" x2="18.61" y2="464.38"/>
    <line class="cls-6" x1="18.61" y1="426.34" x2="18.61" y2="432.1"/>
    <line class="cls-6" x1="18.61" y1="434.45" x2="18.61" y2="440.21"/>
    <line class="cls-6" x1="18.61" y1="442.35" x2="18.61" y2="448.11"/>
    <line class="cls-6" x1="18.61" y1="450.65" x2="18.61" y2="456.41"/>
    <line class="cls-6" x1="18.61" y1="467.31" x2="18.61" y2="473.06"/>
    <line class="cls-6" x1="18.61" y1="475.42" x2="18.61" y2="481.18"/>
    <line class="cls-6" x1="18.61" y1="483.32" x2="18.61" y2="489.08"/>
    <line class="cls-6" x1="17.71" y1="596.95" x2="17.71" y2="602.7"/>
    <line class="cls-6" x1="17.71" y1="563.95" x2="17.71" y2="569.7"/>
    <line class="cls-6" x1="17.71" y1="531.67" x2="17.71" y2="537.42"/>
    <line class="cls-6" x1="17.71" y1="539.78" x2="17.71" y2="545.54"/>
    <line class="cls-6" x1="17.71" y1="547.68" x2="17.71" y2="553.43"/>
    <line class="cls-6" x1="17.71" y1="555.98" x2="17.71" y2="561.73"/>
    <line class="cls-6" x1="17.71" y1="572.63" x2="17.71" y2="578.39"/>
    <line class="cls-6" x1="17.71" y1="580.75" x2="17.71" y2="586.5"/>
    <line class="cls-6" x1="17.71" y1="588.64" x2="17.71" y2="594.4"/>
    <line class="cls-6" x1="17.71" y1="701.61" x2="17.71" y2="707.37"/>
    <line class="cls-6" x1="17.71" y1="668.61" x2="17.71" y2="674.37"/>
    <line class="cls-6" x1="17.71" y1="636.33" x2="17.71" y2="642.09"/>
    <line class="cls-6" x1="17.71" y1="644.44" x2="17.71" y2="650.2"/>
    <line class="cls-6" x1="17.71" y1="652.34" x2="17.71" y2="658.1"/>
    <line class="cls-6" x1="17.71" y1="660.64" x2="17.71" y2="666.4"/>
    <line class="cls-6" x1="17.71" y1="677.3" x2="17.71" y2="683.05"/>
    <line class="cls-6" x1="17.71" y1="685.41" x2="17.71" y2="691.17"/>
    <line class="cls-6" x1="17.71" y1="693.31" x2="17.71" y2="699.07"/>
    <line class="cls-6" x1="16.71" y1="806.79" x2="16.71" y2="812.54"/>
    <line class="cls-6" x1="16.71" y1="773.79" x2="16.71" y2="779.54"/>
    <line class="cls-6" x1="16.71" y1="741.51" x2="16.71" y2="747.26"/>
    <line class="cls-6" x1="16.71" y1="749.62" x2="16.71" y2="755.38"/>
    <line class="cls-6" x1="16.71" y1="757.52" x2="16.71" y2="763.27"/>
    <line class="cls-6" x1="16.71" y1="765.82" x2="16.71" y2="771.57"/>
    <line class="cls-6" x1="16.71" y1="782.47" x2="16.71" y2="788.23"/>
    <line class="cls-6" x1="16.71" y1="790.59" x2="16.71" y2="796.34"/>
    <line class="cls-6" x1="16.71" y1="798.49" x2="16.71" y2="804.24"/>
    <line class="cls-6" x1="16.71" y1="911.45" x2="16.71" y2="917.21"/>
    <line class="cls-6" x1="16.71" y1="878.45" x2="16.71" y2="884.21"/>
    <line class="cls-6" x1="16.71" y1="846.17" x2="16.71" y2="851.93"/>
    <line class="cls-6" x1="16.71" y1="854.28" x2="16.71" y2="860.04"/>
    <line class="cls-6" x1="16.71" y1="862.18" x2="16.71" y2="867.94"/>
    <line class="cls-6" x1="16.71" y1="870.48" x2="16.71" y2="876.24"/>
    <line class="cls-6" x1="16.71" y1="887.14" x2="16.71" y2="892.89"/>
    <line class="cls-6" x1="16.71" y1="895.25" x2="16.71" y2="901.01"/>
    <line class="cls-6" x1="16.71" y1="903.15" x2="16.71" y2="908.91"/>
    <line class="cls-6" x1="16.29" y1="1016.78" x2="16.29" y2="1022.53"/>
    <line class="cls-6" x1="16.29" y1="983.78" x2="16.29" y2="989.53"/>
    <line class="cls-6" x1="16.29" y1="951.5" x2="16.29" y2="957.25"/>
    <line class="cls-6" x1="16.29" y1="959.61" x2="16.29" y2="965.37"/>
    <line class="cls-6" x1="16.29" y1="967.51" x2="16.29" y2="973.26"/>
    <line class="cls-6" x1="16.29" y1="975.81" x2="16.29" y2="981.56"/>
    <line class="cls-6" x1="16.29" y1="992.46" x2="16.29" y2="998.22"/>
    <line class="cls-6" x1="16.29" y1="1000.58" x2="16.29" y2="1006.33"/>
    <line class="cls-6" x1="16.29" y1="1008.47" x2="16.29" y2="1014.23"/>
  </g>
</svg>
