<svg id="Layer_1" data-name="Layer 1" xmlns="http://www.w3.org/2000/svg" width="32mm" height="32.21mm" viewBox="0 0 90.7 91.3">
  <defs>
    <style>
      .cls-1 {
        fill: #1d1d1b;
      }

      .cls-2 {
        fill: none;
        stroke: #1d1d1b;
        stroke-miterlimit: 10;
      }
    </style>
  </defs>
  <title>Achilleus</title>
  <g>
    <path class="cls-1" d="M53.15,51.76a2.93,2.93,0,0,0,2.08.48c1.38-.34,1.69-.55,2-1.21a2,2,0,0,0-.13-2.18c-1-2-1.62-2.25-3.74-5.31A15.76,15.76,0,0,0,51.23,40a3.37,3.37,0,0,0-1.15-1c-.67-.36-1.18-.34-3,.41a11.12,11.12,0,0,0-6.31,6.13c-.28.76-.12,1.56-.75,1.6a38.59,38.59,0,0,1-4.6,0c-6.54-.17-12.58-.21-12.46-.72a28.26,28.26,0,0,1,4.57-8.33c1.91-2,7-7.32,15.3-8.33a19.45,19.45,0,0,1,9.14.81A15.31,15.31,0,0,1,60.31,38a20.8,20.8,0,0,1,1.84,6,38.8,38.8,0,0,1,.31,6.15c0,.87,0,1.46,0,1.64C62.25,57.44,69,68,68.33,68.17a41.1,41.1,0,0,1-8.77,1.23c-1,0-3.25-3.32-3.7-4.59a32,32,0,0,0-1.65-4.45,13.63,13.63,0,0,0-5.55-5.89A13.6,13.6,0,0,0,42.05,53c-1,0-3.62,0-11.12,2a25.59,25.59,0,0,1-8.65,1.14,29.56,29.56,0,0,1,.07-4.09s.83,0,1.88,0c.48,0,.61,0,6.7-.25,2.63-.11,4-.17,6.13-.2,8.72-.15,13.07-.23,13.51-.11s1.68.51,2.39-.1a2.48,2.48,0,0,0,.52-2,3.39,3.39,0,0,0-1-2.59,3.33,3.33,0,0,0-3.95.31"/>
    <path class="cls-1" d="M73.68,67.64a37.68,37.68,0,0,1-2.21-8.33,22.83,22.83,0,0,1,0-5.66,120,120,0,0,1,2.11-16.33c-.25-9.29-4.36-13.4-6.32-16a30.05,30.05,0,0,0-11.84-9.3,26.31,26.31,0,0,0-3.33-1.15A67.4,67.4,0,0,0,48,18.39V10a33,33,0,0,0-4-.31,27.08,27.08,0,0,0-9.41,1.33c-4.21,1.44-6.86,3.63-11.29,7.31l-2,1.69c1,2.39,2.38,4.64,3.73,7.33-3.51-.88-5.57-2.59-7.53-3.89-1.58,1.42-6,5.48-6.19,5.68,0,0,5.2,4.27,5.34,4.41l4.53,4c.55-.57,3.14-2.49,5.83-5.25A25.65,25.65,0,0,1,37.66,26a22.17,22.17,0,0,1,11.46-1.24,21.32,21.32,0,0,1,7.44,2.94c2.19,1.3,9.8,5.31,10.38,12.4.11,1.29,0,1.57-.15,6.2a40.17,40.17,0,0,0,1.08,12.39c1.31,5,2.18,4.86,5.42,10,.35.55.8,1,1.3,1.94.07.11.61.71.61.71A27.13,27.13,0,0,0,73.68,67.64Z"/>
    <path class="cls-1" d="M34.72,58c0-.19.93-.07,2.68-.25A13.4,13.4,0,0,0,41.57,57c.25-.13.66-.37.86-.21s0,1-.08,1.28c-.87,2.66-.23,7.38.13,10a6.92,6.92,0,0,0,1.11,3.5A4.68,4.68,0,0,0,46,73.46c2,.61,3.9-.57,4.92-1.19A8.54,8.54,0,0,0,53,70.66c.44-.5.74-1,1-.91s.18.59.17,1.24c-.06,2.48.1,2.41,0,3-.2,1-.83,1.69-2.36,3.05C46.65,81.58,46,81,43.26,83.33a3.39,3.39,0,0,1-1.86.9,2.84,2.84,0,0,1-2.47-.86c-.79-1,0-1.92-.91-2.93-.56-.66-1.34-.8-1.28-1.08s.28-.17,1.14-.4a5.11,5.11,0,0,0,1.38-.45c.57-.42.94-1.35.63-1.84-.13-.2-.39-.35-1.91-.4-.9,0-1.44,0-2.73.06-4.44.18-2.28,0-2.9,0s-1,.1-1.14-.12.24-.56.39-.71A21.32,21.32,0,0,1,34,73.28c.22-.18,1.41-.9,1.19-1.93-.11-.56,0-.65-.54-.82a2,2,0,0,0-1.31.13,7.47,7.47,0,0,0-3,2.25,8.77,8.77,0,0,1-1.76,1.6c-.3.2-.5.3-.65.22-.32-.16-.08-1,0-2a13.58,13.58,0,0,0-.36-4.49C27.35,67,27.27,67.35,27,66c-.39-1.75-.75-3.44.13-4.63a2.71,2.71,0,0,1,.82-.71c.7-.4,1.32-.31,2.77-.2a13.6,13.6,0,0,1,2.77.33c.74.13,1.18.13,3.22.58,1.08.25,1.48.32,1.82.07a1.4,1.4,0,0,0,.33-1.69c-.25-.42-.68-.43-1.92-.82C36.24,58.76,34.68,58.28,34.72,58Z"/>
    <path class="cls-1" d="M47.72,58.88,47,68.94a.38.38,0,0,0,.58.35L49.69,68a1,1,0,0,0,.26-.23l1-1.27a.77.77,0,0,0,.13-.73l-.42-1.19s0,0,0-.06L48.22,58.8A.26.26,0,0,0,47.72,58.88Z"/>
  </g>
  <circle class="cls-2" cx="45.61" cy="45.78" r="43.47"/>
</svg>
