<svg id="Layer_1" data-name="Layer 1" xmlns="http://www.w3.org/2000/svg" width="44.85mm" height="44.61mm" viewBox="0 0 127.14 126.45">
  <defs>
    <style>
      .cls-1 {
        fill: none;
        stroke: #1d1d1b;
      }

      .cls-1, .cls-3 {
        stroke-miterlimit: 10;
      }

      .cls-2, .cls-3 {
        fill: #fff;
      }

      .cls-3 {
        stroke: #000;
      }
    </style>
  </defs>
  <title>Agamemnon_1</title>
  <circle class="cls-1" cx="63.13" cy="63.39" r="60.98"/>
  <g>
    <path class="cls-2" d="M47,93.57c-3.81-2.8-10.52-4.57-13.81-2.3C38,90.56,42.33,92.39,47,93.57Z"/>
    <path class="cls-2" d="M39.21,96.05,44,96.4a16.84,16.84,0,0,0-4.85-1.21A20.88,20.88,0,0,1,37.1,95c-.85-.2-1,.22-.94.89,0,.16,0,.31.07.52l1.84-.1c.7,2,1.55,2.57,3.33,2.07l-2.2-2Z"/>
    <g>
      <path d="M28.77,99.2a3.37,3.37,0,0,0,.62-3.63,6.21,6.21,0,0,1,.7-6.41c2.27-3.53,4.57-7,6.82-10.57a2.07,2.07,0,0,0,.2-1.35c-.1-.63-.66-1.72-.54-1.79a9.81,9.81,0,0,1,2.76-1.09,4.87,4.87,0,0,1,1.75.33,3,3,0,0,0-3.61-1c-.61.18-1.46.93-1.79-.24s.41-1.65,1.38-1.9a4.54,4.54,0,0,1,5.61,3.48A38,38,0,0,0,44,79.34c.12.32.66.48,1,.72a3.44,3.44,0,0,0,.22-1.23c-.26-1.32-.68-2.6-.95-3.92-.75-3.69-2.66-5-6.39-4.23-.35.07-.72.1-1.34.2l.33-1.62L36.29,69a31.09,31.09,0,0,1-3.29.84c-2.26.33-3.06-.45-2.59-2.7.51-2.43,1.37-4.79,1.89-7.22.72-3.29,1.29-6.62,1.87-9.94a6.84,6.84,0,0,0,0-2.47,1.72,1.72,0,0,0-1.07-1.14C27.92,45.22,25,41.93,25,37.22a10,10,0,0,1,8.56-10,15.17,15.17,0,0,0,5.76-2.34c11.47-6.81,23.74-10.2,37.11-7.82,13.06,2.32,21.5,10.15,26,22.47a41.56,41.56,0,0,1,2.37,16.39,4.42,4.42,0,0,0,.94,3.29,14.81,14.81,0,0,1,2,3.32c2.5,5.48,1.13,10.88-3.64,14.6L103,78m-1.74-19.9c.24-1.14.56-2.19.68-3.26,1.24-10.5-2.74-19.28-9.46-26.89-4.65-5.26-11.07-7.52-17.82-8.82C61.48,16.56,50,20.1,39.92,29,57,45.44,77,56.11,101.29,58.06ZM63.63,111.23l-.44-.19M39.5,55.62l-.52.17.88,2.44-1.77.48a15.08,15.08,0,0,0,11-1.6c-4.19-3.23-11.51-3.39-12.82,0ZM29.12,111.9l-.21-.45"/>
      <path class="cls-3" d="M68.49,62.39l-1-1.88a5.52,5.52,0,0,0-4.64,6.67c.2,1.44.71,2.84.81,4.28.13,1.73,0,3.48-.06,5.22,0,.36-.24.77-.12,1.07,1,2.57.48,5.15.23,7.77a4.55,4.55,0,0,1-1.58,3.18c-3.27,3-6.47,6.13-9.67,9.23A19.74,19.74,0,0,0,51,99.72c-1.55,1.92-3.15,3.68-5.84,4-2,.25-3.16,1.72-3.92,3.45s-2,2.8-4.12,2.54a2.55,2.55,0,0,0-1.47.39c-1.24.69-2.25.42-3.66.12-2.36-.51-2.86-1.74-3.09-3.64a.58.58,0,0,0-.18-.41c-2.11-1.32-1.22-3-.57-4.66a7.28,7.28,0,0,1,.44-1c1.19-2,1.64-3.94.27-6.1-.94-1.46-.08-2.88.82-4,2-2.54,4.2-5,5.58-8,.85-1.89,2.62-2.72,4.55-3.22,1-.25,1.71-.08,2.1,1s.51,2.13-.74,2.63a30.54,30.54,0,0,1-3.44.92c-.67.17-1.33.37-2.41.67,3,1,5.35,1.53,7.17-1.15.52-.78,1.16-.78,2-.32,1.33.73,1.91.34,1.87-1.22,0-1-.22-2.06-.35-3.09-.12-.87-.32-1.74-.39-2.61-.29-3.54,1-5.61,4.34-6.85,1.7-.62,3.49-1,5.19-1.63A5.35,5.35,0,0,0,57.56,66a3.11,3.11,0,0,0,.36-2.51c-.16-.44-1.36-.79-2.06-.73-2.8.22-3.81-.27-5-2.92-.78-1.7-1.46-3.44-2.21-5.15a8.16,8.16,0,0,0-11.34-4c-.48.25-.81.82-1.3,1.06a3.31,3.31,0,0,1-1.27.06c0-.38-.17-1,0-1.09a7,7,0,0,1,2.66-1.63c3.25-.51,6.51-.57,9.71,1.58a8.34,8.34,0,0,0-4.31-4.19,15.67,15.67,0,0,0-8-1.53,19.45,19.45,0,0,1-2,0c-4.76-.2-7.23-3.5-6.11-8.15.86-3.53,3.91-6.36,7.1-6.48a2.23,2.23,0,0,1,1.63.55c5.79,6.83,13,12,20.61,16.43a108.45,108.45,0,0,0,30.4,12.51,41.9,41.9,0,0,0,15.88,1.08c2.54,3.53,2.44,10.51-.19,13.85a6.6,6.6,0,0,1-4.82,2.54,11.4,11.4,0,0,1-7.5-1.5,68.42,68.42,0,0,1-8.61-6.09,15.41,15.41,0,0,1-4.88-11.13,1.59,1.59,0,0,0-1.39-1.81,27.12,27.12,0,0,1-3.58-1.45c.17,1.44.4,2.8.45,4.17a4.92,4.92,0,0,1-.56,1.64A12.62,12.62,0,0,0,70,60.41,8.84,8.84,0,0,0,68.71,60a6.37,6.37,0,0,0-.29,1.26,4.34,4.34,0,0,0,.17,1.06Z"/>
      <path class="cls-2" d="M101.29,58.06C77,56.11,57,45.44,39.92,29c10-8.91,21.56-12.45,34.77-9.92,6.75,1.3,13.17,3.56,17.82,8.82,6.72,7.61,10.7,16.39,9.46,26.89C101.85,55.87,101.53,56.92,101.29,58.06Z"/>
      <path class="cls-2" d="M63.19,111l.44.19"/>
      <path class="cls-2" d="M39.5,55.62l-3.19,1.45c1.31-3.35,8.63-3.19,12.82,0a15.08,15.08,0,0,1-11,1.6l1.77-.48L39,55.79Zm7.87,1.54v-.44L43.17,55.3c0,1.15,0,2,.06,3.06Zm-6.1-1.95c-.85.83-1,1.67-.28,2.5.14.16,1,0,1.14-.25C42.64,56.56,42.38,55.78,41.27,55.21Z"/>
      <path class="cls-2" d="M28.91,111.45l.21.45"/>
      <path d="M47.37,57.16l-4.14,1.2c0-1,0-1.91-.06-3.06l4.21,1.42Z"/>
      <path d="M41.27,55.21c1.11.57,1.37,1.35.86,2.25-.13.24-1,.41-1.14.25C40.26,56.88,40.42,56,41.27,55.21Z"/>
    </g>
    <g>
      <path d="M58,45,55.8,43.39a34.5,34.5,0,0,0,7,1.2,13.19,13.19,0,0,1,5.69,2.54c.32.22.63.46,1,.69-1.53,1.13-4.13,1-7.12-.49L60.5,46.5Z"/>
      <path d="M111.7,47.52c1.91,3.32,1.59,5.69-.52,7.34s-5.23,2.35-8.61,2.88a10.83,10.83,0,0,0,1-1.74A28.44,28.44,0,0,0,105,51.81c.43-2.11,1.93-3.35,4.42-3.85C110.11,47.8,110.88,47.67,111.7,47.52Z"/>
      <path d="M102.81,52.07c.6,2.5-.21,4.16-2.43,5a17.35,17.35,0,0,1-6.95.67c-1.07-.06-2.18-.18-3.35-.28a23.67,23.67,0,0,0,2.3-1.58,19.71,19.71,0,0,0,2.36-2.39c1-1.27,2.76-1.77,5-1.66C100.77,51.89,101.78,52,102.81,52.07Z"/>
      <path d="M92,53.31c-.31,2.14-1.86,3.15-4.55,3.19-3,0-6.33-.89-9.87-2A22.46,22.46,0,0,0,79.78,54a25.64,25.64,0,0,0,3.39-1.3c1.67-.84,3.76-.9,6.34-.14Z"/>
      <path d="M108.4,47.31c-1.43.19-2.82.47-4.32.56a10.53,10.53,0,0,1-5-1.37,17.7,17.7,0,0,0-6.53-1.92,22.85,22.85,0,0,1,6.09-1.21,11,11,0,0,1,5.48,1.18c1.42.71,2.78,1.64,4.16,2.47Z"/>
      <path d="M66.07,49.66c1.45,0,2.75,0,4,0a15.23,15.23,0,0,0,2.08-.22c2.17-.38,4.56.33,7.08,1.61l1.31.67c-1,1.4-2.61,2-5.09,1.52A34.76,34.76,0,0,1,66.07,49.66Z"/>
      <path d="M85.21,45.52a28.77,28.77,0,0,1,6.41.54,14.62,14.62,0,0,1,8,5,13.49,13.49,0,0,1-8.9-2.6A19.43,19.43,0,0,0,85.21,45.52Z"/>
      <path d="M89.22,51.84a17.19,17.19,0,0,1-5.71-2.13,21.55,21.55,0,0,1-1.89-1.51c-1-.83-1.88-1.69-2.88-2.48-.59-.45-1.31-.8-2.08-1.27,3.06.82,6,1.36,8.94,3.34A11.48,11.48,0,0,1,89.22,51.84Z"/>
      <path d="M60.16,43a7.26,7.26,0,0,1-5.45-.84,29.83,29.83,0,0,1-6.4-4.7c1.63.5,3.35,1.14,5,1.52A13.91,13.91,0,0,1,60.16,43Z"/>
      <path d="M68.58,42a27.08,27.08,0,0,1,7.12,3.86A7.61,7.61,0,0,1,78.32,50c-2.67-1.09-5-2.31-6.53-4.63A11.92,11.92,0,0,0,68.58,42Z"/>
      <path d="M34.35,12.38c1.35,2,2.74,4.08,4,6.13a2.75,2.75,0,0,1,.39,2.89c-.14.27-.37.3-.85.09a3.88,3.88,0,0,1-1.81-1.57,6.48,6.48,0,0,1-.74-1.66c-.42-2-.76-3.94-1.14-5.91Z"/>
      <path d="M42.19,31.29c1.6.71,3.2,1.49,4.81,2.1a11.75,11.75,0,0,1,5.24,4c-1.92.26-3.86-.58-5.73-1.94A23.4,23.4,0,0,1,42.19,31.29Z"/>
      <path d="M60.7,38c1.54,1.09,3.14,2.13,4.59,3.28,2,1.58,2.6,3.2,2.45,4.85-2.06-1.29-4-2.52-4.76-4.41a9.4,9.4,0,0,0-2.39-3.63Z"/>
      <path d="M37.62,25.48c1.57.87,3.18,1.75,4.78,2.65a9.35,9.35,0,0,1,3.53,3.67,8.12,8.12,0,0,1-5.12-2.39A18.61,18.61,0,0,1,37.62,25.48Z"/>
      <path d="M54.32,33.83c.9.77,1.83,1.53,2.69,2.33,2,1.83,2.77,3.54,2,5.11-1.77-1.36-3.32-2.73-3.51-4.41A6.62,6.62,0,0,0,54.32,33.83Z"/>
      <path d="M34.4,20.18c1.41,1,2.82,1.92,4.21,2.89a7,7,0,0,1,2.49,3.32,7.3,7.3,0,0,1-3.93-2.08A13.85,13.85,0,0,1,34.4,20.18Z"/>
      <path d="M51.57,35.94c-1.49-1.44-2.55-2.78-2.35-4.21A8.76,8.76,0,0,0,49,29.54C52.27,32.63,52.91,34.41,51.57,35.94Z"/>
      <path d="M44.53,24.92c2,2.6,3,4.33,1.06,5.53-1.17-1.36-1.78-2.6-1.33-3.74A7.32,7.32,0,0,0,44.53,24.92Z"/>
      <path d="M41.13,20.57c1.71,2.94,1.7,4.05-.07,4.68-.91-1.33-1.22-2.46-.46-3.35A4.08,4.08,0,0,0,41.13,20.57Z"/>
    </g>
  </g>
</svg>
