<svg xmlns="http://www.w3.org/2000/svg" width="557.43" height="463.05" viewBox="0 0 557.43 463.05"><defs><style>.cls-1{fill:#fff;stroke-width:5px;}.cls-1,.cls-2,.cls-3{stroke:#000;stroke-miterlimit:10;}.cls-2,.cls-3{fill:none;}.cls-3{stroke-width:3px;}</style></defs><title>Artboard 5</title><g id="Layer_4" data-name="Layer 4"><circle class="cls-1" cx="278.68" cy="230.1" r="219.03"/><path d="M304.82,235A68.32,68.32,0,0,1,332,282.13,66.59,66.59,0,0,1,329.24,309a64.59,64.59,0,0,1-8.86,17.91c-1.32,1.77-2.63,3.54-4.08,5.15-5.7,6.6-12.26,11.86-18.69,16.89s-12.87,9.78-18.56,15.27A73.83,73.83,0,0,0,264.7,383a76,76,0,0,0-7.77,22.76,76.9,76.9,0,0,1,18.47-45c5.38-6.38,11.49-11.95,17.31-17.54s11.42-11.18,15.72-17.38a53.21,53.21,0,0,0,8.73-41.48,50.84,50.84,0,0,0-23.5-32.76Z"/><path d="M293,209a50.87,50.87,0,0,0,22.53-33.44,53.21,53.21,0,0,0-9.95-41.2c-4.49-6.07-10.26-11.51-16.23-16.91s-12.26-10.8-17.82-17A76.9,76.9,0,0,1,251.77,56a75.79,75.79,0,0,0,8.44,22.53A74.13,74.13,0,0,0,275.1,97c5.85,5.32,12.43,9.9,19,14.72s13.29,9.9,19.18,16.33c1.49,1.57,2.86,3.3,4.23,5a64.2,64.2,0,0,1,3.72,5.52,65.25,65.25,0,0,1,5.66,12.12,66.39,66.39,0,0,1,3.55,26.74,68.27,68.27,0,0,1-25.78,47.89Z"/><polygon points="293.66 251.62 293.03 209.04 304.63 216.05 305.09 247.09 293.66 251.62"/><line class="cls-2" x1="262.28" y1="84.8" x2="266.57" y2="376.09"/><line class="cls-3" x1="235.85" y1="230.1" x2="349.18" y2="230.1"/><polygon points="228.46 240.62 228.92 240.08 237.62 231.58 211.6 231.58 202.28 240.62 228.46 240.62"/><path d="M202.29,219.73l9.31,8.85h26a55.58,55.58,0,0,1-9.24-8.85Z"/><path d="M343.79,230.1l-6.57-10.81.37-.24,17.62,7,18.42,4-18.42,4.06-17.62,7-.37-.19Z"/></g></svg>