<svg id="Layer_1" data-name="Layer 1" xmlns="http://www.w3.org/2000/svg" width="39.27mm" height="39.71mm" viewBox="0 0 111.33 112.55">
  <defs>
    <style>
      .cls-1 {
        fill: #fff;
      }

      .cls-2 {
        fill: none;
        stroke: #1d1d1b;
        stroke-miterlimit: 10;
      }
    </style>
  </defs>
  <title>Klytaimnestra</title>
  <g>
    <path d="M82.45,30.81c3.08-.77,5.12.77,6.85,3,.75,1,1.4,2,2.21,3,4,4.62,3.42,9.46-1.52,13a3.27,3.27,0,0,0-1.24,1.38c-.7,2.07-1.22,4.2-1.93,6.27a4.2,4.2,0,0,1-1.32,2A10.54,10.54,0,0,1,82,61.19a1.83,1.83,0,0,0-1.64,1.9c0,.24,0,.48-.07.72-.24,2.62-1.92,4.27-4,5.44C74.8,70.1,73,70.34,71.9,72c-.09.14-.35.17-.53.26a4.66,4.66,0,0,1-4.57-.14c-1.93-1.11-4-2-5.91-3.15-1.2-.69-1.2-1.16-.47-2.29a1.68,1.68,0,0,0,.27-1,3.66,3.66,0,0,0-2.48-3.23c-.94-.32-1.94-.42-2.88-.72a7.07,7.07,0,0,1-2.82-1.16c-2.1-2-4-4.15-6-6.29a2,2,0,0,1-.34-2.34c.3-.59.07-1-.49-1.23a16.53,16.53,0,0,1-2.47-1.19c-2.45-1.64-4.89-3.31-7.26-5.06a8.08,8.08,0,0,1-1.26-1.81A8.63,8.63,0,0,0,33,40.42a12.33,12.33,0,0,1-3.76-3.78c-.34-.57-.78-1.09-1.36-1.91A6,6,0,0,1,26.2,40a3.37,3.37,0,0,0-.56,1.29c-.34,1-.65,2-1.06,3.2a6.67,6.67,0,0,1-1.06-1.23c-.66-1.5-1.33-3-1.85-4.54a5,5,0,0,1,.3-3.94c1-2.1,1.86-4.3,2.86-6.41s2.68-4.18,5-4.75A69.73,69.73,0,0,0,36.43,21c3-1.08,5.83-2.64,8.87-3.58a29.36,29.36,0,0,1,19.83.76c3.52,1.4,6.53,4.08,9.76,6.2a5.4,5.4,0,0,1,.93.92c4.23,4.53,6.62,10.25,9.89,15.4a23.54,23.54,0,0,1,1.16,2.49c.1.21.24.39.36.59a40.8,40.8,0,0,0-6.7-12.87A11.9,11.9,0,0,0,82.45,30.81ZM43.89,37.6a32.26,32.26,0,0,0,3.79-.52c4.31-.85,8,.46,11.3,3.15,1.15.93,2.39,1.74,3.58,2.61a7.21,7.21,0,0,0,4.66,1.52,4.09,4.09,0,0,1,2.28,1c1.3,1,2,1,3.26-.05.36-.31.7-.65,1.08-.93a2.76,2.76,0,0,1,3.42,0c1.78,1.16,3.64,2.2,5.54,3.19-2.17-1.47-4.3-3-6.51-4.39a2,2,0,0,0-2.93.64c-.25.3-.55.57-.82.86a1.79,1.79,0,0,1-2.73.24c-.75-.57-1.63-1.51-2.38-1.44-4,.36-6.36-2.47-9.05-4.45-3.31-2.44-6.72-3.45-10.75-2.57-2,.43-4.08.59-6.12.87l0,.12A17.66,17.66,0,0,0,43.89,37.6Zm23-15.87a27.58,27.58,0,0,0-4-1.19A39.05,39.05,0,0,0,47,21.65c-3.15.82-6.23,1.92-9.34,2.9l.11.45C47.18,21.42,56.71,19.08,66.87,21.73Zm-32.63,5.1-.16-.18q-2,1.76-3.91,3.53l.21.2Z"/>
    <path d="M41.63,82.43c5.16-1.36,7.15-2.3,7.79-3.79-2.28,2.1-5.09,2.63-7.85,3.2a19.6,19.6,0,0,1-10.63-.36,5.14,5.14,0,0,1-3.44-5.63c.14-1,.13-2.1.19-3.17a6.11,6.11,0,0,0,4.67-2.56c-1.42-.84-2.83-1.59-4.13-2.48s-2.12-2.27-4-1.23a4.94,4.94,0,0,1,.47-1.34c.82-1.56.67-1.78-1-1.93-2.18-.18-3.37-1.55-2.33-3.65s2.08-4.05,3.06-6.11c.73-1.53,1.95-3.11,1.31-4.83a8.26,8.26,0,0,1,.13-6.13,20.35,20.35,0,0,1,1.2-2.7c.49-.89,1.12-1.7,1.58-2.38,1.33,1.11,2.79,2.31,4.22,3.54.72.61,1.53,1.17,1.29,2.36,0,.27.32.71.61.93,1.22,1,2.47,1.9,3.75,2.77,1.88,1.27,3.82,2.44,5.68,3.72.55.38,1.27,1,1.32,1.52.17,2,1.37,3.41,2.66,4.79a23.64,23.64,0,0,1,3.28,3.75,3.93,3.93,0,0,0,3.8,2.16c.43,0,.86,0,1.54,0-.23.71-.39,1.3-.61,1.86-.39,1-.17,1.32.85,1.41,1.6.16,2-1.06,2.57-2.3A2.7,2.7,0,0,1,59.43,67a3.92,3.92,0,0,1-3.36,1.94c-1.25.08-1.54-.32-1.31-1.56a5.1,5.1,0,0,0,0-.68h-.4c0,.74-.33,1.87,0,2.13a3.81,3.81,0,0,0,2.52.57,10.14,10.14,0,0,0,2.5-.9c3.43,2.92,7.14,5,11.79,4.71-.42.56-.93,1.18-1.35,1.86a2.13,2.13,0,0,0-.39,1.23c.38,3.19.93,6.4,2.62,9.15a8.67,8.67,0,0,1,1.38,7.09,2.75,2.75,0,0,1-1.53,2.1,22.06,22.06,0,0,1-2.7,1.27,8.46,8.46,0,0,1-3.48.63M33.63,56.6a3,3,0,0,0,4-.07,19.19,19.19,0,0,1,1.63-1.38,21.2,21.2,0,0,1,2.06-1.1,17.61,17.61,0,0,0-3.31.42,5.7,5.7,0,0,1-5.7-1.11c-.19-.15-.4-.27-.6-.4,0,0-.08,0-.12,0,2,2.22,2.74,2.9,6.54,2.2-.85,1.06-1.77,2-3.13,1.45a18.59,18.59,0,0,1-3-2A16.79,16.79,0,0,0,33.63,56.6Zm-1.11-8.16c2.43.87,4.89,1.64,7.34,2.44a.66.66,0,0,0,.53-.09c-1.71-.57-3.43-1.1-5.12-1.72-1.41-.52-2.75-1.29-4.2-1.69a4.52,4.52,0,0,0-2.46.32c-.67.24-.59.83-.08,1.4C29.67,47.55,31.05,47.92,32.52,48.44ZM27.44,63l-.12.21-.8-.07-.05.22,1.31.37c0-1.48-.29-1.82-1.55-1.83Z"/>
    <path d="M31.57,70.53c-1.73-.38-3.26-.78-4.81-1a.93.93,0,0,0-1.05,1.4A2.1,2.1,0,0,0,28,72.16a10.64,10.64,0,0,0,2.37-.73A7.17,7.17,0,0,0,31.57,70.53Z"/>
    <path d="M24.34,66.69c.51,1.39,1,2.27,2.48,2.24a9.73,9.73,0,0,1,2.58.81c.46.14,1,.19,1.52.3-1.53-1.17-2.9-2.35-4.41-3.3C26,66.42,25.15,66.69,24.34,66.69Z"/>
    <path d="M57.55,62.68l-1,2.85c1.28,0,2.56-1,2.31-1.9C58.78,63.22,58,63,57.55,62.68Z"/>
    <path class="cls-1" d="M41.48,37.51a17.66,17.66,0,0,0,2.41.09,32.26,32.26,0,0,0,3.79-.52c4.31-.85,8,.46,11.3,3.15,1.15.93,2.39,1.74,3.58,2.61a7.21,7.21,0,0,0,4.66,1.52,4.09,4.09,0,0,1,2.28,1c1.3,1,2,1,3.26-.05.36-.31.7-.65,1.08-.93a2.76,2.76,0,0,1,3.42,0c1.78,1.16,3.64,2.2,5.54,3.19-2.17-1.47-4.3-3-6.51-4.39a2,2,0,0,0-2.93.64c-.25.3-.55.57-.82.86a1.79,1.79,0,0,1-2.73.24c-.75-.57-1.63-1.51-2.38-1.44-4,.36-6.36-2.47-9.05-4.45-3.31-2.44-6.72-3.45-10.75-2.57-2,.43-4.08.59-6.12.87Z"/>
    <path class="cls-1" d="M37.77,25c9.41-3.58,18.94-5.92,29.1-3.27a27.58,27.58,0,0,0-4-1.19A39.05,39.05,0,0,0,47,21.65c-3.15.82-6.23,1.92-9.34,2.9Z"/>
    <path class="cls-1" d="M30.38,30.38l3.86-3.55-.16-.18q-2,1.76-3.91,3.53Z"/>
    <path class="cls-1" d="M32.05,54.56a16.79,16.79,0,0,0,1.58,2,3,3,0,0,0,4-.07,19.19,19.19,0,0,1,1.63-1.38,21.2,21.2,0,0,1,2.06-1.1,17.61,17.61,0,0,0-3.31.42,5.7,5.7,0,0,1-5.7-1.11c-.19-.15-.4-.27-.6-.4,0,0-.08,0-.12,0,2,2.22,2.74,2.9,6.54,2.2-.85,1.06-1.77,2-3.13,1.45A18.59,18.59,0,0,1,32.05,54.56Z"/>
    <path class="cls-1" d="M28.53,49.1c1.14-1.55,2.52-1.18,4-.66,2.43.87,4.89,1.64,7.34,2.44a.66.66,0,0,0,.53-.09c-1.71-.57-3.43-1.1-5.12-1.72-1.41-.52-2.75-1.29-4.2-1.69a4.52,4.52,0,0,0-2.46.32C27.94,47.94,28,48.53,28.53,49.1Z"/>
    <path class="cls-1" d="M26.23,61.9,27.44,63l-.12.21-.8-.07-.05.22,1.31.37C27.8,62.25,27.49,61.91,26.23,61.9Z"/>
  </g>
  <circle class="cls-2" cx="55.43" cy="55.05" r="51.22"/>
</svg>
