<svg id="Layer_1" data-name="Layer 1" xmlns="http://www.w3.org/2000/svg" width="49.72mm" height="49.34mm" viewBox="0 0 140.95 139.86">
  <defs>
    <style>
      .cls-1 {
        fill: #fff;
      }

      .cls-2 {
        fill: none;
        stroke: #1d1d1b;
        stroke-miterlimit: 10;
      }
    </style>
  </defs>
  <title>Ifigenia</title>
  <g>
    <path d="M42.83,124.46c1.59-.66,3.06-1.23,4.5-1.88,3.41-1.57,6.46-3.62,8-7.21a11.57,11.57,0,0,0-.3-10c-3.53-7.77-8.83-11.62-17.59-10.22a21.55,21.55,0,0,1-7.28-.4c-3.23-.6-4.81-2.93-4-6a14.31,14.31,0,0,0-.72-9.92c-1.17-2.79-2.75-6.93.27-10.38,1.09-1.25.22-2.3-1.39-2.87-4.52-1.6-4.9-3-1.78-6.79,2.68-3.29,5.57-6.41,8.36-9.61,1.83-2.09,2.81-4.33,1.93-7.25-.6-2-.73-4.29,1.4-5.52,1.69-1,4.09.64,5.47,3.42.45.91.57,2,1,2.91.56,1.22,1,2.74,2,3.46a6.57,6.57,0,0,1,3,5.47c0,2.68,1.49,3.56,3.89,3.84,3.44.41,3.86,1.08,3.36,4.64C52,67,57.66,74,64.47,74.49c1.36.1,4-.44,3.56,1.79-.37,1.72-2.5,3.19-4.1,4.43-.28.22-1.86-1.25-2.71-1.84-.51,2.83.85,3.63,4.26,2.65,1.62,1.37,2.88,2.55,4.25,3.56a25.51,25.51,0,0,0,2.75,1.43c3.08,1.74,3.26,2.41,1.33,5.94,4.66,3.35,9.25,7,14.19,10,1.83,1.12,4.5.9,6.79,1.25,1,.15,2,.19,3,.28l1,1.51c0,1.09.42,2.49-.1,3.22-3.56,5-5.52,10.31-5.2,16.61M43.21,56.71l.14-.85-7.84-5.09a13.24,13.24,0,0,1-.46,2.09,27.06,27.06,0,0,1-1.44,2.72ZM35.9,41.34c.29,5.71,7.56,6.22,8.55,11.41C44.21,47,38,45.71,35.9,41.34Z"/>
    <path d="M100.21,65.18c1.74-2.43,4.28-3.18,7.09-3.33l6.22-.31c1.43,6.07.36,8.17-6.49,13.36l3.67-1.54.58.41L103.84,86.4a25.62,25.62,0,0,1-3.14-2A14.48,14.48,0,0,0,91.6,81c-2.54-.13-4.32-1-5.38-3.93-1.27-3.58-4-6.59-5.67-10.09A48.48,48.48,0,0,0,70.4,52.6a1.62,1.62,0,0,1-.35-.44c-2.47-4.95-5.29-9.77-7.31-14.89-2.2-5.58-3.66-11.44-5.69-18,3.62-.77,6.92-1.82,10.3-2.13C80,16,90.91,20.24,101.23,27.37c6.93,4.78,11.45,10.68,12.38,19,.51,4.55.09,9.2.09,14.31-3,0-5.91-.15-8.78,0-3.12.22-4.3,1.54-4.66,4.56-2.64,2.24-4.89.9-7.27-.72a10.25,10.25,0,0,0,3,3C98.34,68.82,99.6,68.05,100.21,65.18Zm-36.4-36.6c1,3.19,1.33,6.68,4.73,8.34a4.72,4.72,0,0,1,1.66,2.22c3,6.38,5.92,12.83,9,19.17.93,1.87,2.22,4.49,3.83,4.91,4.16,1.08,6.46,4,9.06,6.86a35.53,35.53,0,0,0,4.8,4.78c1.38,1,3.24,1.38,4.88,2l.31-.74a19.93,19.93,0,0,1-10.65-8.35c-1.58-2.32-3.51-4.7-6.91-4.88a3.62,3.62,0,0,1-2.46-1.59,62.42,62.42,0,0,1-2.86-5.8c-2-4.31-3.8-8.79-6.18-12.91C70.26,37.78,66.92,33.25,63.81,28.58ZM96,49.63l-.29-.45A24.68,24.68,0,0,0,91.4,52c-3.64,3.65-3.77,3.81-7.59.1,0,0-.24.1-.36.16,3,4.39,4.33,4.58,8.17,1.17C93.07,52.16,94.54,50.9,96,49.63ZM81.53,30.84c-.36,1.36.76,2.13,2.56,2,2.26-.21,4.5-.69,6.75-1l-.07-.91Z"/>
    <path d="M28.54,35.17c5.29-1.6,3.68-4.68,2.79-7.92a5.25,5.25,0,0,1,3-6.42C38,19.07,41.86,17.45,45.75,16c1-.36,2.39.15,3.52.51,5.35,1.68,8.59,5.14,9.59,10.83a60.94,60.94,0,0,0,3,10.6c.86,2.3,2.5,4.29,3.62,6.5a24.79,24.79,0,0,1,2.07,5.18,13.12,13.12,0,0,0,4.21,6.71A43.31,43.31,0,0,1,79,66c2.3,3.87,3.87,8.16,6,12.12a8.33,8.33,0,0,0,3.62,3.28,30,30,0,0,0,6.53,1.75c3.63.7,6.93,2.25,8.18,5.73,1.49,4.16.08,8.25-2.6,11.67-.69.88-2.25,1.18-3.48,1.5-5.23,1.36-9.87.38-13.83-3.49-1.28-1.25-3-2.09-4.17-3.38s-2.43-2.68-2.6-4.15c-.39-3.38-2.49-4.89-5.13-6.16-4.18-2-4.18-2-2.88-6.33,1.15-3.82.49-4.8-3.43-5.07A12.62,12.62,0,0,1,54,58.92c.58-3.45,0-4.2-3.53-4.3-2.52-.07-3.53-1.21-4.11-3.66-.46-1.94-2-3.63-3-5.43-.54-.92-1.1-1.83-1.59-2.77-1.08-2-1.85-4.32-3.26-6.1s-3.48-1.94-5.67-.89a11.56,11.56,0,0,1-3.34.54Z"/>
    <path class="cls-1" d="M43.21,56.71l-9.6-1.13a27.06,27.06,0,0,0,1.44-2.72,13.24,13.24,0,0,0,.46-2.09l7.84,5.09Z"/>
    <path class="cls-1" d="M35.9,41.34C38,45.71,44.21,47,44.45,52.75,43.46,47.56,36.19,47.05,35.9,41.34Z"/>
    <path class="cls-1" d="M63.81,28.58c3.11,4.67,6.45,9.2,9.26,14.05,2.38,4.12,4.14,8.6,6.18,12.91a62.42,62.42,0,0,0,2.86,5.8,3.62,3.62,0,0,0,2.46,1.59c3.4.18,5.33,2.56,6.91,4.88a19.93,19.93,0,0,0,10.65,8.35l-.31.74c-1.64-.66-3.5-1-4.88-2a35.53,35.53,0,0,1-4.8-4.78c-2.6-2.83-4.9-5.78-9.06-6.86-1.61-.42-2.9-3-3.83-4.91-3.13-6.34-6-12.79-9-19.17a4.72,4.72,0,0,0-1.66-2.22C65.14,35.26,64.83,31.77,63.81,28.58Z"/>
    <path class="cls-1" d="M96,49.63c-1.46,1.27-2.93,2.53-4.38,3.81-3.84,3.41-5.21,3.22-8.17-1.17.12-.06.32-.2.36-.16,3.82,3.71,4,3.55,7.59-.1a24.68,24.68,0,0,1,4.31-2.83Z"/>
    <path class="cls-1" d="M81.53,30.84h9.24l.07.91c-2.25.36-4.49.84-6.75,1C82.29,33,81.17,32.2,81.53,30.84Z"/>
    <path class="cls-1" d="M100.21,65.18c-.61,2.87-1.87,3.64-4.18,2.31a10.25,10.25,0,0,1-3-3c2.38,1.62,4.63,3,7.27.72Z"/>
  </g>
  <circle class="cls-2" cx="70.38" cy="69.18" r="66.65"/>
</svg>
