<svg id="Layer_1" data-name="Layer 1" xmlns="http://www.w3.org/2000/svg" width="46.52mm" height="46.42mm" viewBox="0 0 131.86 131.58">
  <defs>
    <style>
      .cls-1, .cls-3 {
        fill: none;
        stroke-miterlimit: 10;
      }

      .cls-1 {
        stroke: #000;
      }

      .cls-2 {
        fill: #fff;
      }

      .cls-3 {
        stroke: #1d1d1b;
      }
    </style>
  </defs>
  <title>Menelaos</title>
  <g>
    <g>
      <path class="cls-1" d="M29.75,102a3.57,3.57,0,0,0,.66-3.84c-1.16-2.43-.63-4.64.74-6.76,2.39-3.73,4.83-7.43,7.2-11.17a2.19,2.19,0,0,0,.21-1.41c-.11-.68-.69-1.82-.57-1.9a10.58,10.58,0,0,1,2.91-1.15,5.49,5.49,0,0,1,1.85.35,3.18,3.18,0,0,0-3.81-1c-.64.19-1.55,1-1.89-.25s.43-1.75,1.46-2a4.79,4.79,0,0,1,5.92,3.67A37.69,37.69,0,0,0,45.84,81c.12.34.69.51,1.06.76a3.63,3.63,0,0,0,.24-1.3c-.28-1.39-.72-2.75-1-4.14-.79-3.89-2.81-5.24-6.74-4.47-.38.08-.76.12-1.42.21l.34-1.71-.62-.25a32.05,32.05,0,0,1-3.47.88c-2.39.35-3.24-.48-2.73-2.85.54-2.57,1.44-5.06,2-7.62.76-3.48,1.37-7,2-10.5a6.94,6.94,0,0,0,0-2.61,1.85,1.85,0,0,0-1.12-1.21c-5.5-1.22-8.61-4.69-8.57-9.66a10.56,10.56,0,0,1,9-10.54,15.85,15.85,0,0,0,6.08-2.47C53,16.33,66,12.75,80.09,15.27,93.87,17.72,102.79,26,107.51,39a43.72,43.72,0,0,1,2.5,17.3,4.63,4.63,0,0,0,1,3.48,16.21,16.21,0,0,1,2.13,3.5c2.64,5.78,1.19,11.49-3.85,15.41-.33.26-.67.52-1.13.86M73,60.63a9.83,9.83,0,0,1,1.31.38,12.13,12.13,0,0,1,1.3.75A5.25,5.25,0,0,0,76.18,60c-.06-1.45-.3-2.9-.47-4.41a30.09,30.09,0,0,0,3.77,1.53A1.68,1.68,0,0,1,81,59.07a16.22,16.22,0,0,0,5.15,11.75,71.52,71.52,0,0,0,9.09,6.43,12,12,0,0,0,7.91,1.59,7,7,0,0,0,5.09-2.68c2.78-3.54,2.89-10.9.21-14.63a44.12,44.12,0,0,1-16.77-1.14,114.49,114.49,0,0,1-32.1-13.21c-8.08-4.73-15.65-10.13-21.76-17.35a2.42,2.42,0,0,0-1.73-.58c-3.36.13-6.58,3.12-7.49,6.85C27.37,41,30,44.49,35,44.7c.71,0,1.42,0,2.13,0A16.44,16.44,0,0,1,45.6,46.3a8.84,8.84,0,0,1,4.56,4.42c-3.38-2.27-6.83-2.21-10.26-1.67a7.28,7.28,0,0,0-2.81,1.72c-.18.14,0,.75,0,1.15a3.53,3.53,0,0,0,1.35-.06c.51-.26.85-.86,1.37-1.12a8.59,8.59,0,0,1,12,4.25c.8,1.8,1.52,3.64,2.34,5.43,1.28,2.8,2.35,3.32,5.3,3.09.74-.06,2,.3,2.17.77a3.28,3.28,0,0,1-.37,2.65,5.77,5.77,0,0,1-2.58,1.64c-1.79.67-3.69,1.06-5.48,1.72-3.54,1.3-4.89,3.48-4.58,7.23.07.92.28,1.83.41,2.76a32.51,32.51,0,0,1,.37,3.26c0,1.64-.57,2-2,1.28-.89-.48-1.57-.48-2.12.34-1.92,2.83-4.44,2.3-7.57,1.21,1.14-.32,1.84-.52,2.54-.7a30.75,30.75,0,0,0,3.63-1c1.33-.52,1.22-1.61.8-2.77a1.61,1.61,0,0,0-2.23-1c-2,.52-3.9,1.4-4.8,3.39-1.46,3.2-3.74,5.77-5.9,8.45-.95,1.18-1.85,2.68-.86,4.23,1.45,2.28,1,4.34-.28,6.44a6.49,6.49,0,0,0-.47,1c-.69,1.75-1.63,3.52.6,4.92a.63.63,0,0,1,.2.44c.23,2,.76,3.3,3.26,3.83,1.48.32,2.55.61,3.86-.12a2.74,2.74,0,0,1,1.55-.41c2.21.28,3.51-.74,4.36-2.68s2-3.38,4.13-3.65c2.85-.35,4.53-2.22,6.17-4.24a19.05,19.05,0,0,1,1.58-1.89c3.38-3.27,6.76-6.55,10.21-9.75a4.75,4.75,0,0,0,1.67-3.35c.26-2.77.83-5.49-.24-8.21-.12-.31.11-.74.12-1.12,0-1.84.2-3.69.07-5.52-.11-1.52-.64-3-.86-4.52-.52-3.66,1.35-6.3,4.9-7m34.63-2.59c.26-1.2.59-2.31.73-3.44,1.3-11.09-2.9-20.36-10-28.39-4.9-5.55-11.68-7.94-18.81-9.31-13.95-2.68-26.11,1.06-36.71,10.47C59.6,45.21,80.65,56.47,106.32,58.53ZM41.08,56l-.55.18.93,2.58-1.87.51a15.92,15.92,0,0,0,11.66-1.69C46.83,54.12,39.1,54,37.72,57.48Z"/>
      <path d="M72.75,63.1c-.35-.66-.7-1.32-1.06-2-3.55.74-5.42,3.38-4.9,7,.22,1.52.75,3,.86,4.52.13,1.83,0,3.68-.07,5.52,0,.38-.24.81-.12,1.12,1.07,2.72.5,5.44.24,8.21A4.75,4.75,0,0,1,66,90.88c-3.45,3.2-6.83,6.48-10.21,9.75a19.05,19.05,0,0,0-1.58,1.89c-1.64,2-3.32,3.89-6.17,4.24-2.1.27-3.33,1.82-4.13,3.65s-2.15,3-4.36,2.68a2.74,2.74,0,0,0-1.55.41c-1.31.73-2.38.44-3.86.12-2.5-.53-3-1.83-3.26-3.83a.63.63,0,0,0-.2-.44c-2.23-1.4-1.29-3.17-.6-4.92a6.49,6.49,0,0,1,.47-1c1.26-2.1,1.73-4.16.28-6.44-1-1.55-.09-3,.86-4.23,2.16-2.68,4.44-5.25,5.9-8.45.9-2,2.76-2.87,4.8-3.39a1.61,1.61,0,0,1,2.23,1c.42,1.16.53,2.25-.8,2.77a30.75,30.75,0,0,1-3.63,1c-.7.18-1.4.38-2.54.7,3.13,1.09,5.65,1.62,7.57-1.21.55-.82,1.23-.82,2.12-.34,1.41.77,2,.36,2-1.28A32.51,32.51,0,0,0,49,80.28c-.13-.93-.34-1.84-.41-2.76-.31-3.75,1-5.93,4.58-7.23,1.79-.66,3.69-1.05,5.48-1.72a5.77,5.77,0,0,0,2.58-1.64,3.28,3.28,0,0,0,.37-2.65c-.16-.47-1.43-.83-2.17-.77-2.95.23-4-.29-5.3-3.09-.82-1.79-1.54-3.63-2.34-5.43a8.59,8.59,0,0,0-12-4.25c-.52.26-.86.86-1.37,1.12a3.53,3.53,0,0,1-1.35.06c0-.4-.18-1,0-1.15a7.28,7.28,0,0,1,2.81-1.72c3.43-.54,6.88-.6,10.26,1.67A8.84,8.84,0,0,0,45.6,46.3a16.44,16.44,0,0,0-8.46-1.62c-.71,0-1.42,0-2.13,0-5-.21-7.64-3.7-6.45-8.6.91-3.73,4.13-6.72,7.49-6.85a2.42,2.42,0,0,1,1.73.58c6.11,7.22,13.68,12.62,21.76,17.35a114.49,114.49,0,0,0,32.1,13.21,44.12,44.12,0,0,0,16.77,1.14c2.68,3.73,2.57,11.09-.21,14.63a7,7,0,0,1-5.09,2.68,12,12,0,0,1-7.91-1.59,71.52,71.52,0,0,1-9.09-6.43A16.22,16.22,0,0,1,81,59.07a1.68,1.68,0,0,0-1.48-1.91,30.09,30.09,0,0,1-3.77-1.53c.17,1.51.41,3,.47,4.41a5.25,5.25,0,0,1-.59,1.72,12.13,12.13,0,0,0-1.3-.75A9.83,9.83,0,0,0,73,60.63,7.77,7.77,0,0,0,72.67,62a4.85,4.85,0,0,0,.18,1.11Z"/>
      <path d="M106.32,58.53C80.65,56.47,59.6,45.21,41.53,27.86c10.6-9.41,22.76-13.15,36.71-10.47,7.13,1.37,13.91,3.76,18.81,9.31,7.1,8,11.3,17.3,10,28.39C106.91,56.22,106.58,57.33,106.32,58.53Z"/>
      <path d="M41.08,56l-3.36,1.53c1.38-3.53,9.11-3.36,13.53.05a15.92,15.92,0,0,1-11.66,1.69l1.87-.51-.93-2.58Zm8.31,1.63,0-.46L45,55.62c0,1.21,0,2.14.06,3.23ZM43,55.52c-.9.88-1.07,1.77-.3,2.64.15.17,1.07,0,1.21-.26C44.39,57,44.13,56.12,43,55.52Z"/>
      <path d="M49.39,57.58,45,58.85c0-1.09,0-2-.06-3.23l4.45,1.5Z"/>
      <path d="M43,55.52c1.18.6,1.44,1.43.91,2.38-.14.25-1.06.43-1.21.26C41.88,57.29,42.05,56.4,43,55.52Z"/>
    </g>
    <g>
      <path class="cls-2" d="M62.81,43.34l-2.34-1.71a36.45,36.45,0,0,0,7.34,1.26,14,14,0,0,1,6,2.69c.35.23.67.48,1,.72-1.62,1.2-4.37,1-7.52-.51l-1.87-.88Z"/>
      <path class="cls-2" d="M119.49,46c2,3.5,1.69,6-.55,7.75s-5.52,2.48-9.08,3a12.51,12.51,0,0,0,1.08-1.84,30,30,0,0,0,1.43-4.42c.45-2.23,2-3.54,4.66-4.07C117.82,46.29,118.62,46.15,119.49,46Z"/>
      <path class="cls-2" d="M110.11,50.8c.62,2.63-.22,4.38-2.57,5.28a18.3,18.3,0,0,1-7.33.71c-1.14-.07-2.31-.19-3.54-.29a27.86,27.86,0,0,0,2.43-1.67,20.42,20.42,0,0,0,2.48-2.53c1.11-1.34,2.92-1.86,5.33-1.75C108,50.6,109,50.71,110.11,50.8Z"/>
      <path class="cls-2" d="M98.65,52.1c-.33,2.26-2,3.33-4.8,3.37-3.21,0-6.69-.94-10.42-2.11a22.08,22.08,0,0,0,2.36-.51,27.12,27.12,0,0,0,3.58-1.37c1.77-.89,4-.95,6.69-.15Z"/>
      <path class="cls-2" d="M116,45.77c-1.52.2-3,.49-4.57.59a11.34,11.34,0,0,1-5.24-1.44,18.58,18.58,0,0,0-6.9-2,24.44,24.44,0,0,1,6.44-1.28,11.6,11.6,0,0,1,5.78,1.25c1.5.76,2.93,1.73,4.39,2.62Z"/>
      <path class="cls-2" d="M71.31,48.25c1.53,0,2.9,0,4.23,0a14,14,0,0,0,2.2-.24c2.29-.4,4.82.36,7.48,1.71l1.38.7c-1,1.48-2.75,2.06-5.38,1.61A36.74,36.74,0,0,1,71.31,48.25Z"/>
      <path class="cls-2" d="M91.52,43.88a30.26,30.26,0,0,1,6.77.57,15.39,15.39,0,0,1,8.47,5.25A14.32,14.32,0,0,1,97.36,47,20.56,20.56,0,0,0,91.52,43.88Z"/>
      <path class="cls-2" d="M95.76,50.55a18,18,0,0,1-6-2.25,21.76,21.76,0,0,1-2-1.6c-1-.86-2-1.78-3-2.61a24.2,24.2,0,0,0-2.19-1.34c3.23.87,6.36,1.44,9.44,3.53A12.08,12.08,0,0,1,95.76,50.55Z"/>
      <path class="cls-2" d="M65.07,41.18a7.66,7.66,0,0,1-5.76-.88,31.37,31.37,0,0,1-6.75-5c1.72.53,3.53,1.21,5.29,1.61A14.6,14.6,0,0,1,65.07,41.18Z"/>
      <path class="cls-2" d="M74,40.14c2.6,1.13,5.26,2.16,7.52,4.07a8.18,8.18,0,0,1,2.77,4.39c-2.82-1.15-5.33-2.44-6.89-4.89A12.74,12.74,0,0,0,74,40.14Z"/>
      <path class="cls-2" d="M37.82,8.88c1.43,2.16,2.89,4.31,4.27,6.47a2.93,2.93,0,0,1,.42,3.06c-.15.28-.39.32-.9.09a4,4,0,0,1-1.91-1.65,6.65,6.65,0,0,1-.78-1.75c-.44-2.1-.81-4.17-1.2-6.25Z"/>
      <path class="cls-2" d="M46.09,28.85c1.7.75,3.39,1.57,5.09,2.22a12.42,12.42,0,0,1,5.53,4.28c-2,.27-4.07-.61-6.05-2.06A24.79,24.79,0,0,1,46.09,28.85Z"/>
      <path class="cls-2" d="M65.64,35.9c1.62,1.15,3.32,2.24,4.85,3.46,2.07,1.66,2.75,3.38,2.59,5.12-2.18-1.36-4.23-2.67-5-4.65A9.84,9.84,0,0,0,65.52,36Z"/>
      <path class="cls-2" d="M41.28,22.71l5,2.81A9.8,9.8,0,0,1,50,29.39a8.58,8.58,0,0,1-5.4-2.52A19.12,19.12,0,0,1,41.28,22.71Z"/>
      <path class="cls-2" d="M58.91,31.53c1,.82,1.93,1.62,2.84,2.46,2.1,1.93,2.92,3.74,2.1,5.4C62,38,60.36,36.51,60.15,34.74A7.08,7.08,0,0,0,58.91,31.53Z"/>
      <path class="cls-2" d="M37.88,17.12c1.49,1,3,2,4.44,3.06A7.34,7.34,0,0,1,45,23.68a7.66,7.66,0,0,1-4.15-2.2A14.3,14.3,0,0,1,37.88,17.12Z"/>
      <path class="cls-2" d="M56,33.77c-1.57-1.52-2.69-2.94-2.48-4.45A8.76,8.76,0,0,0,53.26,27C56.74,30.26,57.42,32.15,56,33.77Z"/>
      <path class="cls-2" d="M48.57,22.12c2.15,2.75,3.16,4.58,1.12,5.85-1.24-1.44-1.88-2.74-1.41-3.95A8.17,8.17,0,0,0,48.57,22.12Z"/>
      <path class="cls-2" d="M45,17.54c1.81,3.1,1.8,4.26-.07,4.93-1-1.4-1.3-2.6-.49-3.53A4.28,4.28,0,0,0,45,17.54Z"/>
    </g>
  </g>
  <circle class="cls-3" cx="65.79" cy="63.89" r="60.98"/>
</svg>
