<svg xmlns="http://www.w3.org/2000/svg" width="557.43" height="463.05" viewBox="0 0 557.43 463.05"><defs><style>.cls-1,.cls-2{fill:#fff;}.cls-1,.cls-2,.cls-3{stroke:#000;stroke-miterlimit:10;}.cls-1{stroke-width:5px;}.cls-2,.cls-3{stroke-width:2px;}.cls-3{fill:none;stroke-linecap:round;}</style></defs><title>Artboard 4</title><g id="Layer_4" data-name="Layer 4"><circle class="cls-1" cx="279.64" cy="228.07" r="219.03"/><path class="cls-2" d="M349,371.79H210.26c0-6.26,19.72-11.57,47.13-13.47h-4a6.25,6.25,0,1,1,0-12.5h4.51C221,322,193.81,242.84,193.81,190.75c0-44.14,19.54-56.9,47.95-60.58H214.92a15.41,15.41,0,0,1,0-30.82H344.35a15.41,15.41,0,1,1,0,30.82H317.52c28.41,3.68,48,16.44,48,60.58,0,52.09-27.22,131.29-64.09,155.07h4.51a6.25,6.25,0,1,1,0,12.5h-4C329.3,360.22,349,365.53,349,371.79Z"/><line class="cls-3" x1="194.81" y1="203.37" x2="209.55" y2="182.96"/><line class="cls-3" x1="224.3" y1="203.37" x2="209.56" y2="182.96"/><line class="cls-3" x1="224.31" y1="203.37" x2="239.05" y2="182.96"/><line class="cls-3" x1="253.8" y1="203.37" x2="239.06" y2="182.96"/><line class="cls-3" x1="253.82" y1="203.37" x2="268.55" y2="182.96"/><line class="cls-3" x1="283.3" y1="203.37" x2="268.57" y2="182.96"/><line class="cls-3" x1="283.47" y1="203.37" x2="298.21" y2="182.96"/><line class="cls-3" x1="312.96" y1="203.37" x2="298.22" y2="182.96"/><line class="cls-3" x1="313.15" y1="203.37" x2="327.89" y2="182.96"/><line class="cls-3" x1="342.64" y1="203.37" x2="327.9" y2="182.96"/><line class="cls-3" x1="342.52" y1="203.37" x2="357.26" y2="182.96"/><line class="cls-3" x1="365.43" y1="194.26" x2="357.27" y2="182.96"/><line class="cls-3" x1="209.55" y1="182.96" x2="357.26" y2="182.96"/><line class="cls-3" x1="194.81" y1="203.37" x2="365.05" y2="203.37"/><line class="cls-3" x1="209.55" y1="182.96" x2="194.81" y2="182.96"/><line class="cls-3" x1="357.26" y1="182.96" x2="365.05" y2="182.96"/><line class="cls-3" x1="202.72" y1="250.64" x2="209.36" y2="241.45"/><line class="cls-3" x1="224.11" y1="261.86" x2="209.37" y2="241.45"/><line class="cls-3" x1="224.12" y1="261.86" x2="238.86" y2="241.45"/><line class="cls-3" x1="253.61" y1="261.86" x2="238.88" y2="241.45"/><line class="cls-3" x1="253.63" y1="261.86" x2="268.37" y2="241.45"/><line class="cls-3" x1="283.12" y1="261.86" x2="268.38" y2="241.45"/><line class="cls-3" x1="283.28" y1="261.86" x2="298.02" y2="241.45"/><line class="cls-3" x1="312.77" y1="261.86" x2="298.03" y2="241.45"/><line class="cls-3" x1="312.96" y1="261.86" x2="327.7" y2="241.45"/><line class="cls-3" x1="342.45" y1="261.86" x2="327.71" y2="241.45"/><line class="cls-3" x1="342.33" y1="261.86" x2="357.07" y2="241.45"/><line class="cls-3" x1="358.45" y1="243.34" x2="357.08" y2="241.45"/><line class="cls-3" x1="209.36" y1="241.45" x2="357.07" y2="241.45"/><line class="cls-3" x1="206.02" y1="262.85" x2="353.16" y2="262.61"/><line class="cls-3" x1="209.36" y1="241.45" x2="200.38" y2="241.45"/><line class="cls-3" x1="357.07" y1="241.45" x2="357.98" y2="241.45"/></g></svg>