<svg id="Layer_1" data-name="Layer 1" xmlns="http://www.w3.org/2000/svg" width="44.85mm" height="44.61mm" viewBox="0 0 127.14 126.45">
  <defs>
    <style>
      .cls-1 {
        fill: #fff;
      }

      .cls-2 {
        fill: none;
        stroke: #1d1d1b;
        stroke-miterlimit: 10;
      }
    </style>
  </defs>
  <title>Paris</title>
  <g>
    <path d="M21.22,38.78c.37.23.72.48,1.08.72"/>
    <path class="cls-1" d="M20.63,41.5,20,41.08a0,0,0,0,1,0,0"/>
    <path class="cls-1" d="M22.3,39.5l0,0c-.1.08-.23.26-.3.24a7.92,7.92,0,0,1-.78-.37"/>
    <path d="M68.05,113.6a84.18,84.18,0,0,1-16.93-2.49A72.45,72.45,0,0,1,34.7,105a1.21,1.21,0,0,0-1.76.44c-.29-.36-.54-.7-.82-1a1.53,1.53,0,0,1,.42-2.41c.53-.25,1.09-.45,1.4-.58.09-.51,0-1,.21-1.14.44-.39.79-1.12,1.6-.7a1.27,1.27,0,0,0-1.32,1.14,1.52,1.52,0,0,1,2-.66c-.23-.16-.45-.33-.67-.5.36-.76,1.43.54,1.82-.29.89.42-.26.37.55-.49h0l.25.09c0,.17.31-.2.32-.07-.16-.15-.06,2-.22,1.87-.62-.56-.2-.5-.64,0s-1.64-1.45-1-.77l1.25-1.12.48.89c0-.46.05-.68.06-.89a.84.84,0,0,0,1,.46,13.91,13.91,0,0,1,2.66,0,1.71,1.71,0,0,0,1.65-.71,18.89,18.89,0,0,0,3.24-5.92,3.9,3.9,0,0,1,.57-1.25c.1-.31,0-.25.1-.31,1.87-1.11,3.27-2.25,5.12-3.39,0,0,0-.09,0,0l-7.52,1.45h0a8.8,8.8,0,0,0-2.77-.42A8.45,8.45,0,0,1,36.23,86a2.93,2.93,0,0,1-.17-4.27,2.37,2.37,0,0,0,0-3,5.22,5.22,0,0,1-.73-1.3,1.28,1.28,0,0,1,1.28-1.81c1.22,0,2.45,0,3.67,0a40.19,40.19,0,0,0-4.65-1.06c-1.25-.21-1.65-.7-1.31-1.93a14.77,14.77,0,0,1,.56-1.38c.53-1.38-.09-2.31-1.55-2.36-.39,0-.78,0-1.17,0a3.16,3.16,0,0,1-3-4.19c.08-.29.18-.58.27-.87,1.07-3.31,2.15-6.62,3.17-9.94a1.89,1.89,0,0,0-.1-1.26,10.34,10.34,0,0,1-.67-7.09,12.82,12.82,0,0,0,.31-1.27h0c.45-.42.19-.3.56.14.21.25-.34-.33-.51-.19l.16-.18h0a1.61,1.61,0,0,1,.08-.56c.4.42-.38-.38,0,0l.14-.14c0-.39,0-.24,0-.24s0-.15.06-.17c.25.29-.25-.3,0,0l.26-.05.24-1.13L32,41.63a1.06,1.06,0,0,0-.25,0c-2,.54-3.06-.36-2.68-2.39.16-.83,0-1.1-.85-1.29-4-.95-5.63-3.74-4.31-7.47.24-.68.89-1.38.79-2s-.9-1.12-1.34-1.72a2.53,2.53,0,0,1,.65-4c1.09-.69,2.34-1.14,3.5-1.73a2.47,2.47,0,0,0,1-.79,5.32,5.32,0,0,1,2.87-2.44,21.33,21.33,0,0,1,2.48-.52l-.1-.43c1.52,1.16,3.54.93,5.12,1.95-.33-.88-.59-1.72.16-2.4a3.08,3.08,0,0,1,3-.88,11.06,11.06,0,0,0,5.45.13,8.13,8.13,0,0,1,2.17.2A16.33,16.33,0,0,0,44,20.48c1.64.11,3.24.1,4.85.13.25,0,.67.15.72.32a2.6,2.6,0,0,0,2.4,1.9c1.18.19,2.38.29,3.57.38.5,0,.56.29.69.72a7.49,7.49,0,0,0,1.13,2.63,5.15,5.15,0,0,0,5.39,1.69,68,68,0,0,0,6.65-2.43c.24-.09.57-.23.74-.13a19.3,19.3,0,0,1,1.76,1.18c-2.8,0-5,1-7.48,2.16,1.88.72,3.55,1.34,5.2,2a7.15,7.15,0,0,0,5.54,0,9.65,9.65,0,0,1,1-.38.81.81,0,0,1,.6.07c.47.37.91.8,1.4,1.26a14.49,14.49,0,0,0-7.43,1.43c1,.54,2,1.11,3,1.59,1.28.62,2.56,1.23,3.89,1.72.55.2.87.41.94,1l-2.42.48,1.34.95c2,1.44,2,1.44,1.81,3.93C79,46,81.14,47.78,83.57,47a45.89,45.89,0,0,0,3.94,2.45,14.28,14.28,0,0,0,2.67.66,1.06,1.06,0,0,1,.68.46,12.15,12.15,0,0,1,.42,1.66,11.62,11.62,0,0,0-7.15-2.5l1.6,2.63c-.36.09-.65.15-.93.24A3.88,3.88,0,0,1,80.13,51a25.83,25.83,0,0,1-1.74-4.32c-.67-1.91-1.18-3.89-1.89-5.78A4.1,4.1,0,0,0,74,38.36c1.6,2.38,1.67,2.65,1.87,5.61.09,1.26.15,2.52.36,3.75.72,4.24,5,6.85,8.61,5.64.41-.14.8-.31,1.17-.45l2.19,3.2c-1.57.62-3.14.26-4.82,0A3.82,3.82,0,0,0,85.7,58a5.59,5.59,0,0,0,4.23-.33c.65-.33,1,.05,1.42.34a1.13,1.13,0,0,1,.28.9c-.1.85-.31,1.69-.45,2.55a2.13,2.13,0,0,0,0,1.06,20.1,20.1,0,0,0,1.15,2.55c1.07,2,2.3,4,3.24,6,1.06,2.34,1.52,4.77-.51,6.94,0,.06,0,.16-.08.24l-2.67,1.15c.38,1.36.81,2.69,1.11,4A8.33,8.33,0,0,1,93,89c-1.23,2.51-3.46,3.43-6.09,3.58-.6,0-.91.19-.82.82A22.94,22.94,0,0,0,86.64,97c.94,3.12,3.12,5.42,5.34,7.68,0,.06.14.13.2.12.87-.11,1.16.66,1.65,1.1s1.09,1.17,1.71,1.65c1,.74,2,1.38,3,2.06l.76.53-2,.91a5,5,0,0,0-1,0c-2.44.45-4.88.91-7.31,1.42M39,35.3c.62-.86,1.31-1.67,1.87-2.56A16.81,16.81,0,0,1,51.1,25.52l.83-.22a10.69,10.69,0,0,0-7,.92,11.53,11.53,0,0,0-5.35,5c-.45.84-.95,1.65-1.33,2.51A3.85,3.85,0,0,0,38.17,35c-.27-.61-.54-.27-.65.05a3.81,3.81,0,0,1-1.11,1.45c-.49.47-1,.92-1.59,1.42A3.9,3.9,0,0,0,37.34,37a2.9,2.9,0,0,0,.89-.82c.13-.19.08-.53.11-.8C38.59,35.76,38.79,35.61,39,35.3ZM73.38,70.76c1.34,2.53,3.14,4.78,3.77,7.61a2.3,2.3,0,0,1-.62,2.23,1.76,1.76,0,0,0,1.09-1.79,18.28,18.28,0,0,0-.72-3.75,38.07,38.07,0,0,0-2.05-4.94,6.9,6.9,0,0,1-.09-5.66c.38-1.08.89-2.11,1.29-3.18a6.67,6.67,0,0,0,.41-4.09c-.75-2.92-5.15-4.2-7.31-2.09a4.45,4.45,0,0,0-.85,1.63,3.7,3.7,0,0,1,3.18-2,3.44,3.44,0,0,1,3.72,3.84,6.32,6.32,0,0,1-.56,2.18,36.58,36.58,0,0,0-2.3,7.15,15.89,15.89,0,0,1-.85,2.43c-.66,1.51-1.65,1.63-2.71.36a3.92,3.92,0,0,1-.25-.32C69.62,73,71.27,73.16,73.38,70.76ZM56.64,35.86a17.29,17.29,0,0,1-3.1,2c-1.78.9-3.6,1.21-5.28-.37a2.41,2.41,0,0,0,2.46,2.63A8.19,8.19,0,0,0,55,38.68c.5-.3,1-.63,1.52-1a1.61,1.61,0,0,1,.21.37,9.39,9.39,0,0,0,2.92,4.68A22.19,22.19,0,0,1,62,45.38a2.41,2.41,0,0,1,.24,2.86c.76-.42,1-.76.87-1.53a8.33,8.33,0,0,0-.84-2.33c-.82-1.49-1.82-2.87-2.63-4.37a13,13,0,0,1-1.12-3,2.34,2.34,0,0,1,.42-1.51c.64-1.09,1.38-2.12,2.08-3.17l-.21-.15C59.42,33.39,58.08,34.7,56.64,35.86ZM80.45,87a11.63,11.63,0,0,1,1-1.86c.57-.93,1.22-1.8,1.81-2.72a6.13,6.13,0,0,0-1.59-8.27c-.13-.09-.27-.16-.56-.32a2.54,2.54,0,0,0,.15.41,6.32,6.32,0,0,1-.07,7.24c-.59,1-1.29,1.89-2,2.81a4.66,4.66,0,0,0,.87,6.3,3.42,3.42,0,0,0,2.7.62C80.13,90.3,79.57,89.2,80.45,87Zm-7.16-35.4,0-.15c-.7-.67-1.42-1.31-2.1-2A1.32,1.32,0,0,1,70.91,48,8.63,8.63,0,0,0,70.49,42c-.23,1.33-.37,2.59-.67,3.81a7.54,7.54,0,0,1-5.26,5.67,3.73,3.73,0,0,1-4.23-.78A1.85,1.85,0,0,0,62,52.93a7.88,7.88,0,0,0,7.27-2,4.5,4.5,0,0,0,.41-.43ZM40.46,38.92a3.66,3.66,0,0,0,4.47,1.18,5.27,5.27,0,0,0,2.35-2.43c.62-1.18,1.16-2.4,1.71-3.62.67-1.5,1.32-3,2-4.56A4.79,4.79,0,0,0,48.8,31.4c-.74,1.17-1.39,2.41-2.13,3.59a18.56,18.56,0,0,1-1.55,2.17,4.54,4.54,0,0,1-1.23,1A1.81,1.81,0,0,1,41,36.51a11.71,11.71,0,0,1,.33-1.92A3.16,3.16,0,0,0,40.46,38.92ZM38.93,23.58a36.09,36.09,0,0,0-3.74,1.85A9.52,9.52,0,0,1,30,27c-2.1-.11-3-.93-3.14-3a2.32,2.32,0,0,0,.4,3.69,6.51,6.51,0,0,0,6.83.55,17.21,17.21,0,0,0,2.52-1.63c1.49-1.07,2.95-2.18,4.54-3.36A9.83,9.83,0,0,0,38.93,23.58Zm44,43.82c.93.5,1.92.88,2.87,1.37a5,5,0,0,1,2.42,6.74c-.45,1.08-1,1.32-2.17.95a1.29,1.29,0,0,0,1.65.53,2.59,2.59,0,0,0,.38-.17c3.15-1.78,3.35-6.88.27-8.75a14.38,14.38,0,0,0-3.41-1.33,9.07,9.07,0,0,1-4.13-2.09A3.7,3.7,0,0,0,82.9,67.4Zm2.22-5.56c-.79-.47-1.66-.78-2.49-1.17a4.85,4.85,0,0,1-3-4,2.93,2.93,0,0,0,.29,4.73c1.8,1.27,3.93,1.67,6,2.18.53.13,1.06.22,1.6.33l.15-.26C86.82,63,86,62.36,85.12,61.84ZM28.73,34.31a5.37,5.37,0,0,0,5.35-.39,4.52,4.52,0,0,0,2.24-4.29c0-.11,0-.22-.09-.49-.36.44-.64.8-.94,1.14a8.6,8.6,0,0,1-3.4,2.63c-1.8.71-3.32.14-4.76-1.28A2.89,2.89,0,0,0,28.73,34.31Zm34.51,3.21a20.83,20.83,0,0,0,3,5.6l.32-.06a25.26,25.26,0,0,0-.3-2.89c-.42-1.79-1-3.53-1.43-5.32a12,12,0,0,1-.15-2A3.94,3.94,0,0,0,63.24,37.52ZM88,87a10.9,10.9,0,0,0,1.47-.57c1.42-.72,1.64-1.79.61-3.18-.87,1.48-2.42,1.88-3.82,2.52a14.52,14.52,0,0,0-2,1c-.76.51-.86,1.12-.48,2.08C84.94,87.69,86.53,87.49,88,87ZM37.08,49.71c5-.73,9.47,1.15,14.24,2.37C47.39,49.2,40.48,47.37,37.08,49.71ZM48.31,55a17.47,17.47,0,0,0-5-1.25c-.71-.09-1.45-.08-2.15-.24-.89-.22-1,.22-1,.91,0,.16,0,.32.07.54l1.89-.11c.73,2,1.61,2.65,3.44,2.13l-2.27-2.11v-.23Zm23,6.47A2.4,2.4,0,0,0,69.82,63a5.16,5.16,0,0,0-.38,1.27c-.13.83,0,1.79-1.47,1.73l.2.22,2.06.51Z"/>
    <path d="M97.46,40.52c0,.14-.49.45-.51.43a2.81,2.81,0,0,1-.76-.93c0-.15.33-.46.51-.7a7.92,7.92,0,0,1-.78.37c-.06,0-.19-.16-.29-.24-.71-.14-.93-.53-.82-1.26a19,19,0,0,0-.56-8.67,7.2,7.2,0,0,0-7.18-5.32,4.07,4.07,0,0,1-.67-.08c0-.76,0-1.47,0-2.19-.07-3-1.84-4.78-4.85-4.77a1.09,1.09,0,0,1-1.23-.78c-.94-2.25-2.9-3.07-5.12-3.06a44.07,44.07,0,0,0-5,.63,2.15,2.15,0,0,1-1.2-.21c-.91-.49-1.75-1.08-2.64-1.59-.36-.22-.81-.32-.61-.9l-.27.35-.24-.38-1.24-.81.84,1.11-.09.23c-.69-.79-1.39-1.43-2.37-.19a4,4,0,0,1,.08-.51l-3.25.65c.7.53,1.27,1,1.88,1.41A6.38,6.38,0,0,1,64,18.49a1.61,1.61,0,0,0,1.13,1.69,6.25,6.25,0,0,1,.87.46L64.09,13.5l.25-.15c1.46,1.11,2.9,2.23,4.38,3.31a1.45,1.45,0,0,0,1,.33,4,4,0,0,1,3,.83c.86.57,1.65,1.24,2.51,1.81a4.66,4.66,0,0,0,3,.8l-1.37,1.49c.06.08.14.23.24.35a5.68,5.68,0,0,1,1.42,5.13c-.29,1.46.57,2.12,1.34,2.83-.12-2.42-.24-4.88-.37-7.56a25.9,25.9,0,0,1,4.73,5.55,18.22,18.22,0,0,0,1.8,2.05l.27-.15.24-1.65c.51.72,1,1.25,1.29,1.84.81,1.36,1.59,2.75,2.35,4.14A6,6,0,0,1,90,40.61c-.74,1.28-.05,2,.59,3.06a7.26,7.26,0,0,0,.19-1c.08-2.42,1.36-4.53,1.7-6.89l.31-.06c.69,1.77,1.5,3.5,2,5.32a13.5,13.5,0,0,1,.61,4.08,5.68,5.68,0,0,1-1.77,3.71,1.61,1.61,0,0,0-.42,1.93,6.68,6.68,0,0,1,.27,1l3.86-7.47.26.63c.06-.09.14-.15.14-.21a7.76,7.76,0,0,0-.12-1.88,1.74,1.74,0,0,1,.24-1.71l-.65.42"/>
    <path d="M50.84,20.88c.43.86.93,1,1.85.53C54,20.7,55.25,20,56.55,19.3a8.39,8.39,0,0,1,1.21-.44l-.33-.22c-1.09-.82-2-.62-3,.26A20.88,20.88,0,0,1,50.84,20.88Z"/>
    <path d="M65.21,22.43c-1.37-1-1.9-1-3.28-.26-.89.49-1.88.8-2.81,1.22-.22.1-.54.32-.54.49a2.36,2.36,0,0,0,.31,1.06c0,.08.5,0,.72-.12,1.2-.59,2.36-1.24,3.57-1.79A13.72,13.72,0,0,1,65.21,22.43Z"/>
    <path d="M70.88,19.12a9.69,9.69,0,0,1,.58,4.55.76.76,0,0,0,.31.52c.49.37,1,.69,1.47,1-.29-1.64-.51-3.31-.92-4.92-.14-.52-.8-.91-1.22-1.35Z"/>
    <path d="M56.57,12.58l-.89.39c.24,1,.45,2,.71,2.94a.83.83,0,0,0,.48.39c.49.19,1,.33,1.58.51C57.81,15.39,57.22,14,56.57,12.58Z"/>
    <path d="M85.21,31.06c-.26,1.21-.52,2.38-.73,3.57,0,.19.13.45.26.64.31.42.66.82,1.07,1.33,0-.51,0-.92,0-1.34,0-1,0-1.94.17-2.9A1.09,1.09,0,0,0,85.21,31.06Z"/>
    <path d="M80.41,36.84c.37.32.59.67.85.71,1,.15,2.08.19,3.07.27C83.2,36.1,83.18,36.09,80.41,36.84Z"/>
    <path d="M83.87,43.64c.28-.6.22-.9-.38-1a4.21,4.21,0,0,1-1-.36c-.3-.14-.58-.31-1-.52a4.39,4.39,0,0,0-.09.6c0,1.28,0,1.3,1.28,1.28Z"/>
    <path d="M86.34,43.12l2.32,1.21C88.13,42.73,88.07,42.7,86.34,43.12Z"/>
    <path d="M60,26.15l2.39.69.08-.29-2.39-.67Z"/>
    <path class="cls-1" d="M69,70.33c1.09,2.66,2.74,2.83,4.85.43,1.34,2.53,3.14,4.78,3.77,7.61A2.3,2.3,0,0,1,77,80.6a1.76,1.76,0,0,0,1.09-1.79,18.28,18.28,0,0,0-.72-3.75,36.72,36.72,0,0,0-2-4.94,6.9,6.9,0,0,1-.09-5.66c.38-1.08.89-2.11,1.29-3.18a6.67,6.67,0,0,0,.41-4.09c-.75-2.92-5.15-4.2-7.31-2.09a4.45,4.45,0,0,0-.85,1.63,3.7,3.7,0,0,1,3.18-2,3.44,3.44,0,0,1,3.72,3.84,6.32,6.32,0,0,1-.56,2.18,35.89,35.89,0,0,0-2.29,7.15,17.09,17.09,0,0,1-.86,2.43c-.66,1.51-1.65,1.63-2.71.36A3.92,3.92,0,0,1,69,70.33Z"/>
    <path class="cls-1" d="M61.24,32.15c-1.38,1.24-2.72,2.55-4.16,3.71a17.58,17.58,0,0,1-3.09,2c-1.79.9-3.61,1.21-5.29-.37a2.41,2.41,0,0,0,2.46,2.63,8.19,8.19,0,0,0,4.31-1.41c.5-.3,1-.63,1.52-1a1.61,1.61,0,0,1,.21.37,9.39,9.39,0,0,0,2.92,4.68,22.19,22.19,0,0,1,2.31,2.63,2.41,2.41,0,0,1,.24,2.86c.76-.42,1-.76.87-1.53a8.33,8.33,0,0,0-.84-2.33c-.82-1.49-1.82-2.87-2.63-4.37A13,13,0,0,1,59,37a2.34,2.34,0,0,1,.42-1.51c.64-1.09,1.38-2.12,2.08-3.17Z"/>
    <path class="cls-1" d="M83.18,91.18c-2.61-.88-3.17-2-2.29-4.21a11.63,11.63,0,0,1,1-1.86c.57-.93,1.22-1.8,1.81-2.72a6.13,6.13,0,0,0-1.59-8.27c-.13-.09-.27-.16-.55-.32a2,2,0,0,0,.14.41,6.32,6.32,0,0,1-.07,7.24c-.59,1-1.29,1.89-2,2.81a4.67,4.67,0,0,0,.87,6.3A3.42,3.42,0,0,0,83.18,91.18Z"/>
    <path class="cls-1" d="M70.09,50.54l3.64,1,0-.15c-.7-.67-1.42-1.31-2.1-2A1.32,1.32,0,0,1,71.35,48,8.63,8.63,0,0,0,70.93,42c-.23,1.33-.37,2.59-.67,3.81A7.54,7.54,0,0,1,65,51.52a3.73,3.73,0,0,1-4.23-.78,1.85,1.85,0,0,0,1.64,2.19,7.88,7.88,0,0,0,7.27-2A4.5,4.5,0,0,0,70.09,50.54Z"/>
    <path class="cls-1" d="M41.76,34.59a3.16,3.16,0,0,0-.86,4.33,3.66,3.66,0,0,0,4.47,1.18,5.27,5.27,0,0,0,2.35-2.43c.62-1.18,1.16-2.4,1.71-3.62.67-1.5,1.32-3,2-4.56a4.79,4.79,0,0,0-2.19,1.91c-.74,1.17-1.39,2.41-2.13,3.59a18.56,18.56,0,0,1-1.55,2.17,4.54,4.54,0,0,1-1.23,1,1.81,1.81,0,0,1-2.9-1.64A11.71,11.71,0,0,1,41.76,34.59Z"/>
    <path class="cls-1" d="M38.78,35.35c.25.41.45.26.68-.05.62-.86,1.31-1.67,1.87-2.56a16.81,16.81,0,0,1,10.21-7.22l.83-.22a10.69,10.69,0,0,0-7,.92,11.53,11.53,0,0,0-5.35,5c-.45.84-1,1.65-1.33,2.51A3.85,3.85,0,0,0,38.61,35Z"/>
    <path class="cls-1" d="M41.57,23.23a9.83,9.83,0,0,0-2.2.35,36.09,36.09,0,0,0-3.74,1.85A9.52,9.52,0,0,1,30.42,27c-2.1-.11-3-.93-3.14-3a2.32,2.32,0,0,0,.4,3.69,6.51,6.51,0,0,0,6.83.55A17.21,17.21,0,0,0,37,26.59C38.52,25.52,40,24.41,41.57,23.23Z"/>
    <path class="cls-1" d="M81.22,64.65a3.7,3.7,0,0,0,2.12,2.75c.93.5,1.93.88,2.87,1.37a5,5,0,0,1,2.42,6.74c-.45,1.08-1,1.32-2.17.95a1.29,1.29,0,0,0,1.65.53,2.59,2.59,0,0,0,.38-.17c3.15-1.78,3.35-6.88.27-8.75a14.38,14.38,0,0,0-3.41-1.33A9.07,9.07,0,0,1,81.22,64.65Z"/>
    <path class="cls-1" d="M88.1,63.62c-.84-.6-1.65-1.26-2.54-1.78s-1.66-.78-2.49-1.17a4.85,4.85,0,0,1-3-4,2.93,2.93,0,0,0,.29,4.73c1.8,1.27,3.93,1.67,6,2.18.53.13,1.06.22,1.6.33Z"/>
    <path class="cls-1" d="M27.57,31.63a2.89,2.89,0,0,0,1.6,2.68,5.37,5.37,0,0,0,5.35-.39,4.52,4.52,0,0,0,2.24-4.29c0-.11,0-.22-.09-.49-.36.44-.64.8-.94,1.14a8.6,8.6,0,0,1-3.4,2.63C30.53,33.62,29,33.05,27.57,31.63Z"/>
    <path class="cls-1" d="M65.16,32.89a3.94,3.94,0,0,0-1.48,4.63,20.83,20.83,0,0,0,3,5.6l.32-.06a25.26,25.26,0,0,0-.3-2.89c-.42-1.79-1-3.53-1.43-5.32A12,12,0,0,1,65.16,32.89Z"/>
    <path class="cls-1" d="M84.21,88.87C85.38,87.69,87,87.49,88.43,87a10.9,10.9,0,0,0,1.47-.57c1.43-.72,1.64-1.79.61-3.18-.87,1.48-2.42,1.88-3.82,2.52a14.52,14.52,0,0,0-2,1C83.93,87.3,83.83,87.91,84.21,88.87Z"/>
    <path class="cls-1" d="M51.76,52.08c-3.93-2.88-10.84-4.71-14.24-2.37C42.54,49,47,50.86,51.76,52.08Z"/>
    <path class="cls-1" d="M43.77,54.64l5,.36a17.4,17.4,0,0,0-5-1.25c-.72-.09-1.46-.08-2.16-.24-.88-.22-1,.22-1,.91,0,.16,0,.32.07.54l1.89-.11c.73,2,1.61,2.65,3.44,2.13l-2.27-2.11Z"/>
    <path class="cls-1" d="M70.67,66.68l1.07-5.21A2.4,2.4,0,0,0,70.26,63a5.16,5.16,0,0,0-.38,1.27c-.13.83,0,1.79-1.47,1.73l.2.22Z"/>
    <path class="cls-1" d="M38.78,35.35,38.61,35c-.27-.61-.54-.27-.65.05a3.81,3.81,0,0,1-1.11,1.45c-.49.47-1,.92-1.59,1.42A3.9,3.9,0,0,0,37.78,37a2.9,2.9,0,0,0,.89-.82C38.81,36,38.75,35.62,38.78,35.35Z"/>
    <path class="cls-1" d="M21.2,39.32c.18.24.57.55.51.7A2.69,2.69,0,0,1,21,41s-.52-.29-.51-.43"/>
  </g>
  <circle class="cls-2" cx="63.13" cy="63.39" r="60.98"/>
</svg>
