<svg xmlns="http://www.w3.org/2000/svg" width="557.43" height="463.05" viewBox="0 0 557.43 463.05"><defs><style>.cls-1{fill:#fff;}.cls-1,.cls-2{stroke:#000;stroke-miterlimit:10;stroke-width:5px;}.cls-2{fill:none;}</style></defs><title>Artboard 2</title><g id="Layer_4" data-name="Layer 4"><circle class="cls-1" cx="284" cy="231.68" r="219.03"/><path class="cls-2" d="M174.91,362.81l47.47-60.41a5.68,5.68,0,0,1,4.34-2.18l28.63-.68a6.35,6.35,0,0,0,6.2-6.35v-5.1A16.61,16.61,0,0,0,245,271.48H213.57a15.77,15.77,0,0,0-13,6.82l-25.67,37.17V240.16a18.74,18.74,0,0,1,5.49-13.24L221.29,186a20.07,20.07,0,0,1,14.19-5.87H296a17.91,17.91,0,0,1,12.67,5.24l34,34a24.06,24.06,0,0,1,7,17v79.07l20.84,47.34c-7.68-1-20-2.49-35.2-3.67-48.2-3.75-87.21-1.5-119.69.49C206,360.22,192,361.2,174.91,362.81Z"/><polyline class="cls-2" points="235.48 180.16 235.48 161.5 308.33 161.5 370.52 213.71 370.52 316.31 349.68 316.31"/><path class="cls-2" d="M235.48,161.5a75.59,75.59,0,0,0-30.87,6.18,69.87,69.87,0,0,0-6.48,3.24L174.91,132l25.86-12,11.41,20.55-3.65-25.12,26.95-3.65H308.1v27l10-25.12,84.7,70.61V336.43l-32.32-20.12"/></g></svg>