<svg xmlns="http://www.w3.org/2000/svg" width="557.43" height="463.05" viewBox="0 0 557.43 463.05"><defs><style>.cls-1,.cls-5{fill:#fff;}.cls-1,.cls-2,.cls-3,.cls-4,.cls-5{stroke:#000;stroke-miterlimit:10;}.cls-1{stroke-width:5px;}.cls-2,.cls-3,.cls-4{fill:none;}.cls-2,.cls-4,.cls-5{stroke-width:2px;}.cls-3,.cls-4,.cls-5{stroke-linecap:round;}.cls-3{stroke-width:4px;}</style></defs><title>Artboard 3</title><g id="Layer_8" data-name="Layer 8"><circle class="cls-1" cx="287.47" cy="231.62" r="219.03"/></g><g id="Layer_5" data-name="Layer 5"><rect class="cls-2" x="217.97" y="362.51" width="140.92" height="13.32"/><path class="cls-2" d="M235,349.19h107.3a11.94,11.94,0,0,1,11.94,11.94v0a1.38,1.38,0,0,1-1.38,1.38H224.4a1.38,1.38,0,0,1-1.38-1.38v0A11.94,11.94,0,0,1,235,349.19Z"/><rect class="cls-2" x="232.21" y="135.41" width="111.22" height="213.78"/><line class="cls-3" x1="254.02" y1="161.07" x2="254.02" y2="328.09"/><line class="cls-3" x1="278.72" y1="161.07" x2="278.72" y2="328.09"/><line class="cls-3" x1="302.66" y1="161.07" x2="302.66" y2="328.09"/><line class="cls-3" x1="326.94" y1="161.07" x2="326.94" y2="328.09"/><path class="cls-4" d="M200,98.15H372.33a3.78,3.78,0,0,1,3.78,3.78v33.48a0,0,0,0,1,0,0H196.2a0,0,0,0,1,0,0V101.9A3.75,3.75,0,0,1,200,98.15Z"/><circle class="cls-5" cx="219.73" cy="136.06" r="23.2"/><path class="cls-4" d="M241.89,143.27a23.41,23.41,0,0,1-29.49,15,18.74,18.74,0,0,1-12-23.58,15,15,0,0,1,18.87-9.63,12,12,0,0,1,7.71,15.09,9.58,9.58,0,0,1-12.08,6.16,7.66,7.66,0,0,1-4.93-9.66,6.14,6.14,0,0,1,7.73-3.94,4.91,4.91,0,0,1,3.16,6.18,3.93,3.93,0,0,1-4.95,2.53,3.14,3.14,0,0,1-2-4"/><circle class="cls-5" cx="352.91" cy="134.98" r="23.2"/><path class="cls-4" d="M330.75,142.2a23.41,23.41,0,0,0,29.48,15.05,18.73,18.73,0,0,0,12-23.59A15,15,0,0,0,353.4,124a12,12,0,0,0-7.7,15.09,9.59,9.59,0,0,0,12.07,6.17,7.67,7.67,0,0,0,4.93-9.66,6.13,6.13,0,0,0-7.73-3.95,4.92,4.92,0,0,0-3.15,6.19,3.93,3.93,0,0,0,4.95,2.52,3.13,3.13,0,0,0,2-4"/></g></svg>