<svg id="Layer_1" data-name="Layer 1" xmlns="http://www.w3.org/2000/svg" width="11.9mm" height="239.43mm" viewBox="0 0 33.74 678.7">
  <defs>
    <style>
      .cls-1 {
        fill: none;
        stroke: #000;
        stroke-width: 2px;
      }

      .cls-1, .cls-3, .cls-5 {
        stroke-miterlimit: 10;
      }

      .cls-2, .cls-3 {
        fill: #703529;
      }

      .cls-3, .cls-5 {
        stroke: #f8f7f7;
        stroke-width: 4px;
      }

      .cls-4, .cls-5 {
        fill: #2d3445;
      }
    </style>
  </defs>
  <title>timeline</title>
  <line class="cls-1" x1="16.87" y1="66.02" x2="16.87" y2="71.78"/>
  <circle class="cls-2" cx="16.87" cy="16.87" r="16.87"/>
  <circle class="cls-3" cx="16.62" cy="16.84" r="11.05"/>
  <circle class="cls-4" cx="16.87" cy="88.39" r="16.87"/>
  <circle class="cls-5" cx="16.62" cy="88.35" r="11.05"/>
  <line class="cls-1" x1="16.87" y1="33.74" x2="16.87" y2="39.49"/>
  <line class="cls-1" x1="16.87" y1="41.85" x2="16.87" y2="47.61"/>
  <line class="cls-1" x1="16.87" y1="49.75" x2="16.87" y2="55.51"/>
  <line class="cls-1" x1="16.87" y1="58.05" x2="16.87" y2="63.81"/>
  <line class="cls-1" x1="16.87" y1="137.8" x2="16.87" y2="143.56"/>
  <line class="cls-1" x1="16.87" y1="105.52" x2="16.87" y2="111.27"/>
  <line class="cls-1" x1="16.87" y1="113.63" x2="16.87" y2="119.39"/>
  <line class="cls-1" x1="16.87" y1="121.53" x2="16.87" y2="127.29"/>
  <line class="cls-1" x1="16.87" y1="129.83" x2="16.87" y2="135.59"/>
  <line class="cls-1" x1="16.87" y1="209.58" x2="16.87" y2="215.33"/>
  <circle class="cls-2" cx="16.87" cy="160.43" r="16.87"/>
  <circle class="cls-3" cx="16.62" cy="160.39" r="11.05"/>
  <circle class="cls-4" cx="16.87" cy="231.94" r="16.87"/>
  <circle class="cls-5" cx="16.62" cy="231.91" r="11.05"/>
  <line class="cls-1" x1="16.87" y1="177.3" x2="16.87" y2="183.05"/>
  <line class="cls-1" x1="16.87" y1="185.41" x2="16.87" y2="191.17"/>
  <line class="cls-1" x1="16.87" y1="193.31" x2="16.87" y2="199.06"/>
  <line class="cls-1" x1="16.87" y1="201.61" x2="16.87" y2="207.36"/>
  <line class="cls-1" x1="16.87" y1="281.36" x2="16.87" y2="287.11"/>
  <line class="cls-1" x1="16.87" y1="249.08" x2="16.87" y2="254.83"/>
  <line class="cls-1" x1="16.87" y1="257.19" x2="16.87" y2="262.95"/>
  <line class="cls-1" x1="16.87" y1="265.09" x2="16.87" y2="270.84"/>
  <line class="cls-1" x1="16.87" y1="273.39" x2="16.87" y2="279.14"/>
  <line class="cls-1" x1="16.87" y1="353.14" x2="16.87" y2="358.89"/>
  <circle class="cls-2" cx="16.87" cy="303.98" r="16.87"/>
  <circle class="cls-3" cx="16.62" cy="303.95" r="11.05"/>
  <circle class="cls-4" cx="16.87" cy="375.5" r="16.87"/>
  <circle class="cls-5" cx="16.62" cy="375.47" r="11.05"/>
  <line class="cls-1" x1="16.87" y1="320.85" x2="16.87" y2="326.61"/>
  <line class="cls-1" x1="16.87" y1="328.97" x2="16.87" y2="334.72"/>
  <line class="cls-1" x1="16.87" y1="336.86" x2="16.87" y2="342.62"/>
  <line class="cls-1" x1="16.87" y1="345.16" x2="16.87" y2="350.92"/>
  <line class="cls-1" x1="16.87" y1="424.92" x2="16.87" y2="430.67"/>
  <line class="cls-1" x1="16.87" y1="392.63" x2="16.87" y2="398.39"/>
  <line class="cls-1" x1="16.87" y1="400.75" x2="16.87" y2="406.5"/>
  <line class="cls-1" x1="16.87" y1="408.64" x2="16.87" y2="414.4"/>
  <line class="cls-1" x1="16.87" y1="416.94" x2="16.87" y2="422.7"/>
  <line class="cls-1" x1="16.87" y1="496.69" x2="16.87" y2="502.45"/>
  <circle class="cls-2" cx="16.87" cy="447.54" r="16.87"/>
  <circle class="cls-3" cx="16.62" cy="447.51" r="11.05"/>
  <circle class="cls-4" cx="16.87" cy="519.06" r="16.87"/>
  <circle class="cls-5" cx="16.62" cy="519.02" r="11.05"/>
  <line class="cls-1" x1="16.87" y1="464.41" x2="16.87" y2="470.17"/>
  <line class="cls-1" x1="16.87" y1="472.52" x2="16.87" y2="478.28"/>
  <line class="cls-1" x1="16.87" y1="480.42" x2="16.87" y2="486.18"/>
  <line class="cls-1" x1="16.87" y1="488.72" x2="16.87" y2="494.48"/>
  <line class="cls-1" x1="16.87" y1="568.47" x2="16.87" y2="574.23"/>
  <line class="cls-1" x1="16.87" y1="536.19" x2="16.87" y2="541.95"/>
  <line class="cls-1" x1="16.87" y1="544.3" x2="16.87" y2="550.06"/>
  <line class="cls-1" x1="16.87" y1="552.2" x2="16.87" y2="557.96"/>
  <line class="cls-1" x1="16.87" y1="560.5" x2="16.87" y2="566.26"/>
  <line class="cls-1" x1="16.87" y1="639.46" x2="16.87" y2="645.22"/>
  <circle class="cls-2" cx="16.87" cy="590.31" r="16.87"/>
  <circle class="cls-3" cx="16.62" cy="590.28" r="11.05"/>
  <circle class="cls-4" cx="16.87" cy="661.83" r="16.87"/>
  <circle class="cls-5" cx="16.62" cy="661.8" r="11.05"/>
  <line class="cls-1" x1="16.87" y1="607.18" x2="16.87" y2="612.94"/>
  <line class="cls-1" x1="16.87" y1="615.3" x2="16.87" y2="621.05"/>
  <line class="cls-1" x1="16.87" y1="623.19" x2="16.87" y2="628.95"/>
  <line class="cls-1" x1="16.87" y1="631.49" x2="16.87" y2="637.25"/>
</svg>
